<?xml version="1.0" encoding="UTF-8"?>
<svg xmlns="http://www.w3.org/2000/svg" xmlns:xlink="http://www.w3.org/1999/xlink" width="756pt" height="504pt" viewBox="0 0 756 504" version="1.1">
<defs>
<clipPath id="clip1">
  <path d="M 95.628906 300 L 740.058594 300 L 740.058594 302 L 95.628906 302 Z M 95.628906 300 "/>
</clipPath>
<clipPath id="clip2">
  <path d="M 95.628906 58 L 740.058594 58 L 740.058594 60 L 95.628906 60 Z M 95.628906 58 "/>
</clipPath>
<clipPath id="clip3">
  <path d="M 183 15.941406 L 184 15.941406 L 184 440.628906 L 183 440.628906 Z M 183 15.941406 "/>
</clipPath>
<clipPath id="clip4">
  <path d="M 417 15.941406 L 419 15.941406 L 419 440.628906 L 417 440.628906 Z M 417 15.941406 "/>
</clipPath>
<clipPath id="clip5">
  <path d="M 651 15.941406 L 653 15.941406 L 653 440.628906 L 651 440.628906 Z M 651 15.941406 "/>
</clipPath>
<clipPath id="clip6">
  <path d="M 95.628906 420 L 740.058594 420 L 740.058594 423 L 95.628906 423 Z M 95.628906 420 "/>
</clipPath>
<clipPath id="clip7">
  <path d="M 95.628906 179 L 740.058594 179 L 740.058594 181 L 95.628906 181 Z M 95.628906 179 "/>
</clipPath>
<clipPath id="clip8">
  <path d="M 299 15.941406 L 302 15.941406 L 302 440.628906 L 299 440.628906 Z M 299 15.941406 "/>
</clipPath>
<clipPath id="clip9">
  <path d="M 534 15.941406 L 536 15.941406 L 536 440.628906 L 534 440.628906 Z M 534 15.941406 "/>
</clipPath>
</defs>
<g id="surface19">
<rect x="0" y="0" width="756" height="504" style="fill:rgb(100%,100%,100%);fill-opacity:1;stroke:none;"/>
<g clip-path="url(#clip1)" clip-rule="nonzero">
<path style="fill:none;stroke-width:0.96998;stroke-linecap:butt;stroke-linejoin:round;stroke:rgb(92.156863%,92.156863%,92.156863%);stroke-opacity:1;stroke-miterlimit:10;" d="M 95.628906 300.671875 L 740.058594 300.671875 "/>
</g>
<g clip-path="url(#clip2)" clip-rule="nonzero">
<path style="fill:none;stroke-width:0.96998;stroke-linecap:butt;stroke-linejoin:round;stroke:rgb(92.156863%,92.156863%,92.156863%);stroke-opacity:1;stroke-miterlimit:10;" d="M 95.628906 59.375 L 740.058594 59.375 "/>
</g>
<g clip-path="url(#clip3)" clip-rule="nonzero">
<path style="fill:none;stroke-width:0.96998;stroke-linecap:butt;stroke-linejoin:round;stroke:rgb(92.156863%,92.156863%,92.156863%);stroke-opacity:1;stroke-miterlimit:10;" d="M 183.503906 440.628906 L 183.503906 15.941406 "/>
</g>
<g clip-path="url(#clip4)" clip-rule="nonzero">
<path style="fill:none;stroke-width:0.96998;stroke-linecap:butt;stroke-linejoin:round;stroke:rgb(92.156863%,92.156863%,92.156863%);stroke-opacity:1;stroke-miterlimit:10;" d="M 417.84375 440.628906 L 417.84375 15.941406 "/>
</g>
<g clip-path="url(#clip5)" clip-rule="nonzero">
<path style="fill:none;stroke-width:0.96998;stroke-linecap:butt;stroke-linejoin:round;stroke:rgb(92.156863%,92.156863%,92.156863%);stroke-opacity:1;stroke-miterlimit:10;" d="M 652.183594 440.628906 L 652.183594 15.941406 "/>
</g>
<g clip-path="url(#clip6)" clip-rule="nonzero">
<path style="fill:none;stroke-width:1.939961;stroke-linecap:butt;stroke-linejoin:round;stroke:rgb(92.156863%,92.156863%,92.156863%);stroke-opacity:1;stroke-miterlimit:10;" d="M 95.628906 421.324219 L 740.058594 421.324219 "/>
</g>
<g clip-path="url(#clip7)" clip-rule="nonzero">
<path style="fill:none;stroke-width:1.939961;stroke-linecap:butt;stroke-linejoin:round;stroke:rgb(92.156863%,92.156863%,92.156863%);stroke-opacity:1;stroke-miterlimit:10;" d="M 95.628906 180.023438 L 740.058594 180.023438 "/>
</g>
<g clip-path="url(#clip8)" clip-rule="nonzero">
<path style="fill:none;stroke-width:1.939961;stroke-linecap:butt;stroke-linejoin:round;stroke:rgb(92.156863%,92.156863%,92.156863%);stroke-opacity:1;stroke-miterlimit:10;" d="M 300.675781 440.628906 L 300.675781 15.941406 "/>
</g>
<g clip-path="url(#clip9)" clip-rule="nonzero">
<path style="fill:none;stroke-width:1.939961;stroke-linecap:butt;stroke-linejoin:round;stroke:rgb(92.156863%,92.156863%,92.156863%);stroke-opacity:1;stroke-miterlimit:10;" d="M 535.011719 440.628906 L 535.011719 15.941406 "/>
</g>
<path style="fill:none;stroke-width:3.200935;stroke-linecap:butt;stroke-linejoin:round;stroke:rgb(0%,0%,0%);stroke-opacity:1;stroke-miterlimit:10;" d="M 124.921875 421.324219 L 300.675781 421.324219 "/>
<path style="fill:none;stroke-width:3.200935;stroke-linecap:butt;stroke-linejoin:round;stroke:rgb(0%,0%,0%);stroke-opacity:1;stroke-miterlimit:10;" d="M 300.675781 180.023438 L 535.011719 180.023438 "/>
<path style="fill:none;stroke-width:3.200935;stroke-linecap:butt;stroke-linejoin:round;stroke:rgb(0%,0%,0%);stroke-opacity:1;stroke-miterlimit:10;" d="M 535.011719 421.324219 L 710.765625 421.324219 "/>
<path style="fill:none;stroke-width:1.066978;stroke-linecap:butt;stroke-linejoin:round;stroke:rgb(0%,0%,0%);stroke-opacity:1;stroke-dasharray:4.267913,4.267913;stroke-miterlimit:10;" d="M 300.675781 421.324219 L 300.675781 180.023438 "/>
<path style="fill:none;stroke-width:1.066978;stroke-linecap:butt;stroke-linejoin:round;stroke:rgb(0%,0%,0%);stroke-opacity:1;stroke-dasharray:4.267913,4.267913;stroke-miterlimit:10;" d="M 535.011719 421.324219 L 535.011719 180.023438 "/>
<path style="fill:none;stroke-width:1.939961;stroke-linecap:butt;stroke-linejoin:round;stroke:rgb(40%,40%,40%);stroke-opacity:1;stroke-miterlimit:10;" d="M 95.628906 440.628906 L 95.628906 15.941406 "/>
<path style=" stroke:none;fill-rule:evenodd;fill:rgb(12.941176%,12.941176%,12.941176%);fill-opacity:1;" d="M 82.644531 416.507812 L 82.957031 416.519531 L 83.253906 416.558594 L 83.53125 416.621094 L 83.796875 416.710938 L 84.042969 416.828125 L 84.277344 416.96875 L 84.496094 417.136719 L 84.695312 417.328125 L 84.878906 417.542969 L 85.050781 417.789062 L 85.207031 418.054688 L 85.34375 418.339844 L 85.46875 418.652344 L 85.574219 418.988281 L 85.664062 419.34375 L 85.738281 419.722656 L 85.796875 420.125 L 85.835938 420.554688 L 85.863281 421.003906 L 85.871094 421.476562 L 85.863281 421.945312 L 85.835938 422.398438 L 85.796875 422.824219 L 85.738281 423.226562 L 85.664062 423.609375 L 85.574219 423.96875 L 85.46875 424.304688 L 85.34375 424.617188 L 85.207031 424.90625 L 85.050781 425.175781 L 84.878906 425.417969 L 84.695312 425.636719 L 84.496094 425.828125 L 84.277344 425.996094 L 84.042969 426.136719 L 83.796875 426.253906 L 83.53125 426.34375 L 83.253906 426.40625 L 82.957031 426.445312 L 82.644531 426.457031 L 82.332031 426.445312 L 82.035156 426.40625 L 81.753906 426.34375 L 81.488281 426.253906 L 81.242188 426.136719 L 81.007812 425.996094 L 80.789062 425.828125 L 80.585938 425.636719 L 80.398438 425.417969 L 80.226562 425.175781 L 80.070312 424.90625 L 79.933594 424.617188 L 79.8125 424.304688 L 79.710938 423.96875 L 79.621094 423.609375 L 79.546875 423.226562 L 79.492188 422.824219 L 79.449219 422.398438 L 79.425781 421.945312 L 79.417969 421.476562 L 79.425781 421.003906 L 79.449219 420.554688 L 79.492188 420.125 L 79.546875 419.722656 L 79.621094 419.34375 L 79.710938 418.988281 L 79.8125 418.652344 L 79.933594 418.339844 L 80.070312 418.054688 L 80.226562 417.789062 L 80.398438 417.542969 L 80.585938 417.328125 L 80.789062 417.136719 L 81.007812 416.96875 L 81.242188 416.828125 L 81.488281 416.710938 L 81.753906 416.621094 L 82.035156 416.558594 L 82.332031 416.519531 Z M 82.644531 417.558594 L 82.460938 417.566406 L 82.289062 417.59375 L 82.125 417.640625 L 81.972656 417.707031 L 81.828125 417.789062 L 81.691406 417.890625 L 81.566406 418.007812 L 81.449219 418.148438 L 81.34375 418.304688 L 81.246094 418.480469 L 81.164062 418.675781 L 81.085938 418.894531 L 81.019531 419.136719 L 80.960938 419.402344 L 80.914062 419.6875 L 80.871094 420 L 80.839844 420.335938 L 80.820312 420.691406 L 80.804688 421.070312 L 80.800781 421.476562 L 80.804688 421.878906 L 80.820312 422.257812 L 80.839844 422.617188 L 80.871094 422.953125 L 80.914062 423.265625 L 80.960938 423.554688 L 81.019531 423.820312 L 81.085938 424.066406 L 81.164062 424.285156 L 81.246094 424.484375 L 81.34375 424.660156 L 81.449219 424.816406 L 81.566406 424.953125 L 81.691406 425.074219 L 81.828125 425.175781 L 81.972656 425.257812 L 82.125 425.324219 L 82.289062 425.367188 L 82.460938 425.398438 L 82.644531 425.40625 L 82.824219 425.398438 L 82.996094 425.367188 L 83.15625 425.324219 L 83.308594 425.257812 L 83.449219 425.175781 L 83.585938 425.074219 L 83.707031 424.953125 L 83.824219 424.816406 L 83.929688 424.660156 L 84.027344 424.484375 L 84.113281 424.285156 L 84.191406 424.066406 L 84.261719 423.820312 L 84.320312 423.554688 L 84.371094 423.265625 L 84.414062 422.953125 L 84.445312 422.617188 L 84.46875 422.257812 L 84.484375 421.878906 L 84.488281 421.476562 L 84.484375 421.074219 L 84.46875 420.695312 L 84.445312 420.339844 L 84.414062 420.007812 L 84.371094 419.699219 L 84.320312 419.414062 L 84.261719 419.148438 L 84.191406 418.90625 L 84.113281 418.691406 L 84.027344 418.492188 L 83.929688 418.316406 L 83.824219 418.15625 L 83.707031 418.015625 L 83.585938 417.894531 L 83.449219 417.792969 L 83.308594 417.707031 L 83.15625 417.640625 L 82.996094 417.59375 L 82.824219 417.566406 Z M 82.644531 417.558594 "/>
<path style=" stroke:none;fill-rule:evenodd;fill:rgb(12.941176%,12.941176%,12.941176%);fill-opacity:1;" d="M 46.070312 175.351562 L 46.070312 184.984375 L 44.742188 184.984375 L 44.742188 176.761719 L 42.496094 178.128906 L 41.921875 177.195312 L 44.902344 175.351562 Z M 46.070312 175.351562 "/>
<path style=" stroke:none;fill-rule:evenodd;fill:rgb(12.941176%,12.941176%,12.941176%);fill-opacity:1;" d="M 52.503906 173.363281 L 53.628906 173.625 L 50.300781 186.480469 L 49.164062 186.207031 Z M 52.503906 173.363281 "/>
<path style=" stroke:none;fill-rule:evenodd;fill:rgb(12.941176%,12.941176%,12.941176%);fill-opacity:1;" d="M 59.230469 173.394531 L 59.082031 173.613281 L 58.941406 173.828125 L 58.808594 174.039062 L 58.679688 174.242188 L 58.558594 174.445312 L 58.441406 174.640625 L 58.328125 174.832031 L 58.226562 175.019531 L 58.128906 175.203125 L 58.035156 175.378906 L 57.949219 175.554688 L 57.867188 175.734375 L 57.71875 176.109375 L 57.644531 176.304688 L 57.578125 176.503906 L 57.453125 176.917969 L 57.398438 177.132812 L 57.34375 177.351562 L 57.296875 177.578125 L 57.253906 177.8125 L 57.21875 178.050781 L 57.1875 178.300781 L 57.160156 178.554688 L 57.136719 178.816406 L 57.121094 179.089844 L 57.109375 179.367188 L 57.101562 179.652344 L 57.097656 179.945312 L 57.101562 180.234375 L 57.109375 180.519531 L 57.121094 180.792969 L 57.136719 181.0625 L 57.160156 181.324219 L 57.1875 181.578125 L 57.21875 181.824219 L 57.253906 182.0625 L 57.296875 182.296875 L 57.34375 182.523438 L 57.398438 182.742188 L 57.453125 182.957031 L 57.515625 183.167969 L 57.578125 183.375 L 57.644531 183.578125 L 57.792969 183.96875 L 57.867188 184.160156 L 57.949219 184.34375 L 58.035156 184.523438 L 58.128906 184.703125 L 58.226562 184.882812 L 58.328125 185.070312 L 58.441406 185.261719 L 58.558594 185.457031 L 58.679688 185.65625 L 58.808594 185.859375 L 58.941406 186.066406 L 59.082031 186.28125 L 59.230469 186.496094 L 58.394531 187.074219 L 58.210938 186.808594 L 58.03125 186.550781 L 57.863281 186.304688 L 57.703125 186.066406 L 57.550781 185.839844 L 57.410156 185.625 L 57.277344 185.417969 L 57.152344 185.21875 L 57.035156 185.03125 L 56.925781 184.855469 L 56.828125 184.675781 L 56.730469 184.492188 L 56.636719 184.296875 L 56.546875 184.097656 L 56.457031 183.894531 L 56.375 183.683594 L 56.292969 183.464844 L 56.210938 183.238281 L 56.136719 183.003906 L 56.0625 182.765625 L 55.996094 182.519531 L 55.9375 182.261719 L 55.886719 182 L 55.839844 181.726562 L 55.804688 181.449219 L 55.773438 181.164062 L 55.746094 180.871094 L 55.730469 180.570312 L 55.71875 180.261719 L 55.714844 179.945312 L 55.71875 179.628906 L 55.730469 179.320312 L 55.746094 179.019531 L 55.773438 178.726562 L 55.804688 178.445312 L 55.839844 178.167969 L 55.886719 177.898438 L 55.9375 177.636719 L 55.996094 177.382812 L 56.0625 177.136719 L 56.136719 176.894531 L 56.210938 176.660156 L 56.292969 176.433594 L 56.375 176.214844 L 56.457031 176.003906 L 56.546875 175.796875 L 56.636719 175.597656 L 56.730469 175.410156 L 56.828125 175.226562 L 56.925781 175.046875 L 57.035156 174.867188 L 57.152344 174.679688 L 57.277344 174.480469 L 57.410156 174.269531 L 57.550781 174.050781 L 57.703125 173.824219 L 57.863281 173.585938 L 58.03125 173.339844 L 58.210938 173.082031 L 58.394531 172.816406 Z M 59.230469 173.394531 "/>
<path style=" stroke:none;fill-rule:evenodd;fill:rgb(12.941176%,12.941176%,12.941176%);fill-opacity:1;" d="M 64.644531 177.222656 L 64.898438 177.234375 L 65.140625 177.265625 L 65.375 177.316406 L 65.597656 177.390625 L 65.808594 177.484375 L 66.007812 177.601562 L 66.199219 177.738281 L 66.378906 177.894531 L 66.546875 178.074219 L 66.703125 178.273438 L 66.847656 178.488281 L 66.976562 178.722656 L 67.09375 178.972656 L 67.191406 179.238281 L 67.277344 179.519531 L 67.34375 179.820312 L 67.398438 180.136719 L 67.4375 180.46875 L 67.460938 180.816406 L 67.46875 181.183594 L 67.464844 181.417969 L 67.453125 181.644531 L 67.433594 181.867188 L 67.410156 182.085938 L 67.375 182.296875 L 67.335938 182.5 L 67.289062 182.703125 L 67.238281 182.898438 L 67.175781 183.085938 L 67.105469 183.269531 L 67.03125 183.445312 L 66.949219 183.613281 L 66.863281 183.773438 L 66.769531 183.921875 L 66.667969 184.066406 L 66.5625 184.203125 L 66.449219 184.332031 L 66.328125 184.449219 L 66.203125 184.5625 L 66.070312 184.667969 L 65.933594 184.761719 L 65.789062 184.84375 L 65.644531 184.917969 L 65.492188 184.980469 L 65.335938 185.035156 L 65.175781 185.078125 L 65.007812 185.113281 L 64.839844 185.136719 L 64.664062 185.152344 L 64.484375 185.15625 L 64.25 185.148438 L 64.023438 185.117188 L 63.800781 185.066406 L 63.589844 184.996094 L 63.382812 184.90625 L 63.1875 184.792969 L 62.996094 184.664062 L 62.8125 184.511719 L 62.636719 184.339844 L 62.46875 184.148438 L 62.339844 184.984375 L 61.175781 184.984375 L 61.175781 174.34375 L 62.5 174.183594 L 62.5 178.347656 L 62.667969 178.132812 L 62.847656 177.941406 L 63.035156 177.773438 L 63.234375 177.628906 L 63.445312 177.503906 L 63.664062 177.402344 L 63.894531 177.324219 L 64.132812 177.269531 L 64.382812 177.234375 Z M 64.167969 184.105469 L 64.339844 184.097656 L 64.503906 184.078125 L 64.660156 184.042969 L 64.808594 183.992188 L 64.949219 183.929688 L 65.082031 183.851562 L 65.207031 183.761719 L 65.324219 183.65625 L 65.433594 183.535156 L 65.539062 183.402344 L 65.632812 183.25 L 65.71875 183.082031 L 65.792969 182.898438 L 65.859375 182.699219 L 65.914062 182.488281 L 65.960938 182.257812 L 65.996094 182.011719 L 66.019531 181.75 L 66.035156 181.476562 L 66.042969 181.183594 L 66.035156 180.882812 L 66.023438 180.601562 L 66 180.335938 L 65.96875 180.089844 L 65.925781 179.859375 L 65.875 179.644531 L 65.816406 179.449219 L 65.746094 179.269531 L 65.667969 179.109375 L 65.582031 178.964844 L 65.484375 178.835938 L 65.378906 178.714844 L 65.269531 178.613281 L 65.148438 178.523438 L 65.023438 178.445312 L 64.886719 178.386719 L 64.746094 178.335938 L 64.59375 178.300781 L 64.4375 178.28125 L 64.269531 178.273438 L 64.070312 178.285156 L 63.875 178.320312 L 63.6875 178.378906 L 63.503906 178.464844 L 63.324219 178.570312 L 63.148438 178.699219 L 62.980469 178.851562 L 62.8125 179.03125 L 62.652344 179.230469 L 62.5 179.457031 L 62.5 183.082031 L 62.5625 183.175781 L 62.625 183.265625 L 62.691406 183.351562 L 62.761719 183.433594 L 62.832031 183.507812 L 62.910156 183.582031 L 62.984375 183.652344 L 63.148438 183.777344 L 63.234375 183.832031 L 63.324219 183.882812 L 63.414062 183.929688 L 63.503906 183.972656 L 63.597656 184.007812 L 63.691406 184.039062 L 63.785156 184.0625 L 63.878906 184.082031 L 63.976562 184.09375 L 64.070312 184.105469 Z M 64.167969 184.105469 "/>
<path style=" stroke:none;fill-rule:evenodd;fill:rgb(12.941176%,12.941176%,12.941176%);fill-opacity:1;" d="M 69.222656 181.039062 L 69.222656 179.914062 L 73.300781 179.914062 L 73.300781 181.039062 Z M 69.222656 181.039062 "/>
<path style=" stroke:none;fill-rule:evenodd;fill:rgb(12.941176%,12.941176%,12.941176%);fill-opacity:1;" d="M 80.644531 183.214844 L 80.644531 183.304688 L 80.648438 183.386719 L 80.65625 183.46875 L 80.667969 183.546875 L 80.683594 183.617188 L 80.699219 183.683594 L 80.71875 183.746094 L 80.746094 183.804688 L 80.769531 183.855469 L 80.800781 183.90625 L 80.835938 183.945312 L 80.871094 183.988281 L 80.910156 184.023438 L 80.953125 184.0625 L 81 184.09375 L 81.046875 184.128906 L 81.101562 184.15625 L 81.15625 184.1875 L 81.214844 184.210938 L 81.277344 184.234375 L 80.972656 185.15625 L 80.859375 185.140625 L 80.746094 185.121094 L 80.640625 185.097656 L 80.539062 185.070312 L 80.441406 185.039062 L 80.347656 185.003906 L 80.261719 184.964844 L 80.175781 184.921875 L 80.097656 184.875 L 80.023438 184.828125 L 79.953125 184.773438 L 79.886719 184.710938 L 79.824219 184.644531 L 79.765625 184.574219 L 79.710938 184.496094 L 79.660156 184.410156 L 79.613281 184.324219 L 79.566406 184.226562 L 79.527344 184.125 L 79.492188 184.019531 L 79.332031 184.234375 L 79.15625 184.429688 L 78.96875 184.601562 L 78.761719 184.746094 L 78.542969 184.875 L 78.3125 184.976562 L 78.0625 185.054688 L 77.800781 185.113281 L 77.523438 185.144531 L 77.230469 185.15625 L 77.011719 185.152344 L 76.800781 185.132812 L 76.597656 185.101562 L 76.40625 185.054688 L 76.226562 185 L 76.054688 184.929688 L 75.890625 184.847656 L 75.738281 184.753906 L 75.59375 184.644531 L 75.457031 184.523438 L 75.335938 184.394531 L 75.226562 184.253906 L 75.128906 184.109375 L 75.042969 183.953125 L 74.972656 183.792969 L 74.914062 183.625 L 74.871094 183.445312 L 74.835938 183.261719 L 74.816406 183.070312 L 74.8125 182.867188 L 74.820312 182.632812 L 74.84375 182.40625 L 74.886719 182.191406 L 74.949219 181.988281 L 75.027344 181.796875 L 75.121094 181.617188 L 75.234375 181.449219 L 75.363281 181.292969 L 75.511719 181.144531 L 75.675781 181.011719 L 75.859375 180.886719 L 76.054688 180.777344 L 76.265625 180.679688 L 76.492188 180.59375 L 76.734375 180.523438 L 76.988281 180.464844 L 77.257812 180.421875 L 77.542969 180.386719 L 77.839844 180.367188 L 78.152344 180.363281 L 79.316406 180.363281 L 79.316406 179.800781 L 79.3125 179.644531 L 79.300781 179.496094 L 79.28125 179.359375 L 79.253906 179.230469 L 79.222656 179.109375 L 79.179688 179 L 79.128906 178.898438 L 79.070312 178.804688 L 79.003906 178.722656 L 78.929688 178.648438 L 78.847656 178.582031 L 78.757812 178.523438 L 78.660156 178.472656 L 78.550781 178.425781 L 78.4375 178.390625 L 78.3125 178.359375 L 78.179688 178.335938 L 78.039062 178.316406 L 77.890625 178.304688 L 77.734375 178.304688 L 77.5625 178.308594 L 77.386719 178.320312 L 77.199219 178.339844 L 77.007812 178.367188 L 76.804688 178.402344 L 76.597656 178.449219 L 76.382812 178.5 L 76.15625 178.5625 L 75.925781 178.628906 L 75.6875 178.707031 L 75.359375 177.742188 L 75.636719 177.644531 L 75.914062 177.554688 L 76.1875 177.476562 L 76.453125 177.410156 L 76.71875 177.351562 L 76.980469 177.304688 L 77.234375 177.269531 L 77.488281 177.242188 L 77.734375 177.226562 L 77.980469 177.222656 L 78.238281 177.230469 L 78.488281 177.25 L 78.722656 177.28125 L 78.941406 177.328125 L 79.148438 177.390625 L 79.34375 177.460938 L 79.523438 177.546875 L 79.6875 177.648438 L 79.839844 177.757812 L 79.980469 177.886719 L 80.105469 178.019531 L 80.21875 178.167969 L 80.316406 178.324219 L 80.40625 178.492188 L 80.476562 178.675781 L 80.535156 178.867188 L 80.582031 179.066406 L 80.617188 179.28125 L 80.636719 179.507812 L 80.644531 179.742188 Z M 77.53125 184.164062 L 77.753906 184.152344 L 77.96875 184.117188 L 78.171875 184.058594 L 78.363281 183.976562 L 78.546875 183.867188 L 78.722656 183.738281 L 78.886719 183.585938 L 79.039062 183.410156 L 79.183594 183.207031 L 79.316406 182.984375 L 79.316406 181.242188 L 78.324219 181.242188 L 77.925781 181.257812 L 77.566406 181.304688 L 77.253906 181.378906 L 76.980469 181.488281 L 76.746094 181.628906 L 76.558594 181.800781 L 76.410156 182.003906 L 76.304688 182.234375 L 76.242188 182.5 L 76.222656 182.796875 L 76.226562 182.929688 L 76.234375 183.054688 L 76.25 183.171875 L 76.273438 183.285156 L 76.304688 183.390625 L 76.339844 183.488281 L 76.382812 183.582031 L 76.433594 183.667969 L 76.492188 183.746094 L 76.554688 183.820312 L 76.621094 183.882812 L 76.699219 183.941406 L 76.78125 183.996094 L 76.867188 184.039062 L 76.964844 184.078125 L 77.066406 184.109375 L 77.171875 184.132812 L 77.285156 184.148438 L 77.40625 184.160156 Z M 77.53125 184.164062 "/>
<path style=" stroke:none;fill-rule:evenodd;fill:rgb(12.941176%,12.941176%,12.941176%);fill-opacity:1;" d="M 83.40625 172.816406 L 83.59375 173.082031 L 83.769531 173.339844 L 83.9375 173.585938 L 84.097656 173.824219 L 84.246094 174.050781 L 84.386719 174.269531 L 84.519531 174.480469 L 84.644531 174.679688 L 84.757812 174.867188 L 84.863281 175.046875 L 84.964844 175.226562 L 85.0625 175.410156 L 85.15625 175.597656 L 85.25 175.796875 L 85.335938 176.003906 L 85.421875 176.214844 L 85.503906 176.433594 L 85.582031 176.660156 L 85.65625 176.894531 L 85.726562 177.136719 L 85.792969 177.382812 L 85.855469 177.636719 L 85.910156 177.898438 L 85.957031 178.167969 L 85.996094 178.445312 L 86.027344 178.726562 L 86.054688 179.019531 L 86.070312 179.320312 L 86.082031 179.628906 L 86.085938 179.945312 L 86.082031 180.261719 L 86.070312 180.570312 L 86.054688 180.871094 L 86.027344 181.164062 L 85.996094 181.449219 L 85.957031 181.726562 L 85.910156 182 L 85.855469 182.261719 L 85.792969 182.519531 L 85.726562 182.765625 L 85.65625 183.003906 L 85.582031 183.238281 L 85.503906 183.464844 L 85.421875 183.683594 L 85.335938 183.894531 L 85.25 184.097656 L 85.15625 184.296875 L 85.0625 184.492188 L 84.964844 184.675781 L 84.863281 184.855469 L 84.757812 185.03125 L 84.644531 185.21875 L 84.519531 185.417969 L 84.386719 185.625 L 84.246094 185.839844 L 84.097656 186.066406 L 83.9375 186.304688 L 83.769531 186.550781 L 83.59375 186.808594 L 83.40625 187.074219 L 82.574219 186.496094 L 82.71875 186.28125 L 82.859375 186.066406 L 82.992188 185.859375 L 83.121094 185.65625 L 83.242188 185.457031 L 83.355469 185.261719 L 83.464844 185.070312 L 83.566406 184.882812 L 83.664062 184.703125 L 83.753906 184.523438 L 83.839844 184.34375 L 83.921875 184.160156 L 84.003906 183.96875 L 84.078125 183.773438 L 84.148438 183.578125 L 84.214844 183.375 L 84.28125 183.167969 L 84.339844 182.957031 L 84.394531 182.742188 L 84.445312 182.523438 L 84.492188 182.296875 L 84.539062 182.0625 L 84.578125 181.824219 L 84.609375 181.578125 L 84.640625 181.324219 L 84.664062 181.0625 L 84.679688 180.792969 L 84.691406 180.519531 L 84.699219 180.234375 L 84.703125 179.945312 L 84.699219 179.652344 L 84.691406 179.367188 L 84.679688 179.089844 L 84.664062 178.816406 L 84.640625 178.554688 L 84.609375 178.300781 L 84.578125 178.050781 L 84.539062 177.8125 L 84.492188 177.578125 L 84.445312 177.351562 L 84.394531 177.132812 L 84.339844 176.917969 L 84.28125 176.710938 L 84.214844 176.503906 L 84.148438 176.304688 L 84.078125 176.109375 L 84.003906 175.921875 L 83.921875 175.734375 L 83.839844 175.554688 L 83.753906 175.378906 L 83.664062 175.203125 L 83.566406 175.019531 L 83.464844 174.832031 L 83.355469 174.640625 L 83.242188 174.445312 L 83.121094 174.242188 L 82.992188 174.039062 L 82.859375 173.828125 L 82.71875 173.613281 L 82.574219 173.394531 Z M 83.40625 172.816406 "/>
<path style="fill:none;stroke-width:1.939961;stroke-linecap:butt;stroke-linejoin:round;stroke:rgb(20%,20%,20%);stroke-opacity:1;stroke-miterlimit:10;" d="M 90.648438 421.324219 L 95.628906 421.324219 "/>
<path style="fill:none;stroke-width:1.939961;stroke-linecap:butt;stroke-linejoin:round;stroke:rgb(20%,20%,20%);stroke-opacity:1;stroke-miterlimit:10;" d="M 90.648438 180.023438 L 95.628906 180.023438 "/>
<path style="fill:none;stroke-width:1.939961;stroke-linecap:butt;stroke-linejoin:round;stroke:rgb(40%,40%,40%);stroke-opacity:1;stroke-miterlimit:10;" d="M 95.628906 440.628906 L 740.058594 440.628906 "/>
<path style="fill:none;stroke-width:1.939961;stroke-linecap:butt;stroke-linejoin:round;stroke:rgb(20%,20%,20%);stroke-opacity:1;stroke-miterlimit:10;" d="M 300.675781 445.609375 L 300.675781 440.628906 "/>
<path style="fill:none;stroke-width:1.939961;stroke-linecap:butt;stroke-linejoin:round;stroke:rgb(20%,20%,20%);stroke-opacity:1;stroke-miterlimit:10;" d="M 535.011719 445.609375 L 535.011719 440.628906 "/>
<path style=" stroke:none;fill-rule:evenodd;fill:rgb(12.941176%,12.941176%,12.941176%);fill-opacity:1;" d="M 303.238281 457.746094 L 303.238281 457.835938 L 303.253906 458 L 303.261719 458.074219 L 303.277344 458.148438 L 303.296875 458.214844 L 303.316406 458.277344 L 303.339844 458.335938 L 303.367188 458.386719 L 303.394531 458.433594 L 303.464844 458.519531 L 303.503906 458.554688 L 303.546875 458.59375 L 303.59375 458.625 L 303.644531 458.660156 L 303.695312 458.6875 L 303.75 458.714844 L 303.808594 458.742188 L 303.871094 458.765625 L 303.570312 459.6875 L 303.453125 459.671875 L 303.34375 459.652344 L 303.234375 459.628906 L 303.132812 459.601562 L 303.035156 459.570312 L 302.945312 459.535156 L 302.855469 459.496094 L 302.773438 459.453125 L 302.691406 459.40625 L 302.617188 459.355469 L 302.546875 459.300781 L 302.480469 459.242188 L 302.417969 459.175781 L 302.359375 459.105469 L 302.304688 459.027344 L 302.253906 458.941406 L 302.207031 458.851562 L 302.164062 458.757812 L 302.121094 458.65625 L 302.085938 458.550781 L 301.925781 458.765625 L 301.75 458.960938 L 301.5625 459.132812 L 301.359375 459.277344 L 301.140625 459.402344 L 300.90625 459.507812 L 300.65625 459.585938 L 300.394531 459.644531 L 300.117188 459.675781 L 299.824219 459.6875 L 299.605469 459.683594 L 299.394531 459.664062 L 299.195312 459.632812 L 299.003906 459.585938 L 298.820312 459.53125 L 298.648438 459.460938 L 298.484375 459.378906 L 298.332031 459.28125 L 298.1875 459.175781 L 298.054688 459.054688 L 297.929688 458.925781 L 297.820312 458.785156 L 297.722656 458.640625 L 297.640625 458.484375 L 297.566406 458.324219 L 297.507812 458.15625 L 297.464844 457.976562 L 297.433594 457.792969 L 297.414062 457.597656 L 297.40625 457.398438 L 297.414062 457.164062 L 297.441406 456.9375 L 297.484375 456.722656 L 297.542969 456.519531 L 297.621094 456.328125 L 297.71875 456.148438 L 297.828125 455.980469 L 297.957031 455.824219 L 298.105469 455.675781 L 298.269531 455.542969 L 298.453125 455.417969 L 298.648438 455.308594 L 298.863281 455.210938 L 299.089844 455.125 L 299.328125 455.054688 L 299.582031 454.996094 L 299.851562 454.953125 L 300.136719 454.917969 L 300.433594 454.898438 L 300.746094 454.894531 L 301.914062 454.894531 L 301.914062 454.332031 L 301.910156 454.175781 L 301.898438 454.027344 L 301.878906 453.890625 L 301.851562 453.761719 L 301.816406 453.640625 L 301.773438 453.53125 L 301.722656 453.429688 L 301.664062 453.335938 L 301.597656 453.253906 L 301.523438 453.179688 L 301.441406 453.113281 L 301.351562 453.054688 L 301.253906 453.003906 L 301.148438 452.957031 L 301.03125 452.921875 L 300.90625 452.890625 L 300.777344 452.863281 L 300.636719 452.847656 L 300.484375 452.835938 L 300.328125 452.832031 L 300.160156 452.839844 L 299.980469 452.851562 L 299.792969 452.871094 L 299.601562 452.898438 L 299.398438 452.933594 L 299.191406 452.980469 L 298.976562 453.03125 L 298.753906 453.09375 L 298.523438 453.160156 L 298.285156 453.238281 L 297.953125 452.273438 L 298.234375 452.175781 L 298.507812 452.085938 L 298.78125 452.007812 L 299.050781 451.941406 L 299.3125 451.882812 L 299.574219 451.835938 L 299.828125 451.800781 L 300.082031 451.773438 L 300.328125 451.757812 L 300.574219 451.753906 L 300.835938 451.761719 L 301.082031 451.78125 L 301.316406 451.8125 L 301.535156 451.859375 L 301.742188 451.917969 L 301.9375 451.992188 L 302.117188 452.078125 L 302.285156 452.179688 L 302.4375 452.289062 L 302.574219 452.417969 L 302.703125 452.550781 L 302.8125 452.699219 L 302.914062 452.855469 L 303 453.023438 L 303.074219 453.203125 L 303.132812 453.394531 L 303.179688 453.597656 L 303.210938 453.8125 L 303.230469 454.039062 L 303.238281 454.273438 Z M 300.128906 458.695312 L 300.351562 458.683594 L 300.5625 458.648438 L 300.765625 458.589844 L 300.960938 458.503906 L 301.144531 458.398438 L 301.316406 458.269531 L 301.480469 458.117188 L 301.632812 457.9375 L 301.777344 457.738281 L 301.914062 457.515625 L 301.914062 455.773438 L 300.917969 455.773438 L 300.519531 455.785156 L 300.164062 455.832031 L 299.847656 455.910156 L 299.574219 456.019531 L 299.34375 456.160156 L 299.152344 456.332031 L 299.007812 456.535156 L 298.902344 456.765625 L 298.839844 457.03125 L 298.816406 457.328125 L 298.820312 457.457031 L 298.832031 457.585938 L 298.847656 457.703125 L 298.871094 457.816406 L 298.898438 457.921875 L 298.9375 458.019531 L 298.980469 458.113281 L 299.027344 458.199219 L 299.085938 458.277344 L 299.148438 458.347656 L 299.21875 458.414062 L 299.292969 458.472656 L 299.375 458.527344 L 299.464844 458.570312 L 299.558594 458.609375 L 299.660156 458.640625 L 299.765625 458.664062 L 299.882812 458.679688 L 300 458.691406 Z M 300.128906 458.695312 "/>
<path style=" stroke:none;fill-rule:evenodd;fill:rgb(12.941176%,12.941176%,12.941176%);fill-opacity:1;" d="M 535.574219 451.753906 L 535.828125 451.765625 L 536.070312 451.796875 L 536.304688 451.847656 L 536.527344 451.921875 L 536.738281 452.015625 L 536.9375 452.132812 L 537.128906 452.269531 L 537.308594 452.425781 L 537.476562 452.605469 L 537.632812 452.804688 L 537.777344 453.019531 L 537.910156 453.253906 L 538.023438 453.503906 L 538.121094 453.769531 L 538.207031 454.050781 L 538.273438 454.351562 L 538.328125 454.664062 L 538.367188 455 L 538.390625 455.347656 L 538.398438 455.714844 L 538.394531 455.949219 L 538.382812 456.175781 L 538.363281 456.398438 L 538.339844 456.613281 L 538.308594 456.828125 L 538.269531 457.03125 L 538.222656 457.234375 L 538.167969 457.429688 L 538.105469 457.617188 L 538.039062 457.800781 L 537.960938 457.976562 L 537.878906 458.144531 L 537.792969 458.300781 L 537.699219 458.453125 L 537.597656 458.597656 L 537.492188 458.734375 L 537.378906 458.863281 L 537.257812 458.980469 L 537.132812 459.09375 L 537 459.199219 L 536.863281 459.292969 L 536.722656 459.375 L 536.574219 459.449219 L 536.421875 459.511719 L 536.265625 459.566406 L 536.105469 459.609375 L 535.941406 459.644531 L 535.769531 459.667969 L 535.597656 459.683594 L 535.417969 459.6875 L 535.179688 459.679688 L 534.953125 459.648438 L 534.734375 459.597656 L 534.519531 459.527344 L 534.316406 459.4375 L 534.117188 459.324219 L 533.925781 459.195312 L 533.742188 459.042969 L 533.570312 458.871094 L 533.402344 458.679688 L 533.269531 459.515625 L 532.105469 459.515625 L 532.105469 448.875 L 533.429688 448.714844 L 533.429688 452.878906 L 533.597656 452.664062 L 533.777344 452.472656 L 533.96875 452.304688 L 534.167969 452.160156 L 534.375 452.035156 L 534.597656 451.933594 L 534.824219 451.855469 L 535.066406 451.800781 L 535.316406 451.765625 Z M 535.101562 458.636719 L 535.273438 458.628906 L 535.4375 458.609375 L 535.59375 458.574219 L 535.742188 458.523438 L 535.882812 458.460938 L 536.015625 458.382812 L 536.140625 458.292969 L 536.257812 458.1875 L 536.367188 458.066406 L 536.46875 457.929688 L 536.5625 457.78125 L 536.648438 457.613281 L 536.726562 457.429688 L 536.789062 457.230469 L 536.847656 457.015625 L 536.890625 456.789062 L 536.925781 456.542969 L 536.953125 456.28125 L 536.96875 456.003906 L 536.972656 455.714844 L 536.96875 455.414062 L 536.953125 455.132812 L 536.929688 454.867188 L 536.898438 454.621094 L 536.855469 454.390625 L 536.804688 454.175781 L 536.746094 453.980469 L 536.675781 453.800781 L 536.597656 453.640625 L 536.511719 453.496094 L 536.414062 453.363281 L 536.3125 453.246094 L 536.199219 453.144531 L 536.082031 453.054688 L 535.953125 452.976562 L 535.816406 452.914062 L 535.675781 452.867188 L 535.523438 452.832031 L 535.367188 452.8125 L 535.199219 452.804688 L 535 452.816406 L 534.808594 452.851562 L 534.617188 452.910156 L 534.433594 452.992188 L 534.253906 453.101562 L 534.078125 453.230469 L 533.910156 453.382812 L 533.746094 453.5625 L 533.585938 453.761719 L 533.429688 453.984375 L 533.429688 457.613281 L 533.492188 457.707031 L 533.554688 457.796875 L 533.621094 457.882812 L 533.691406 457.960938 L 533.765625 458.039062 L 533.839844 458.113281 L 533.996094 458.246094 L 534.078125 458.308594 L 534.164062 458.363281 L 534.253906 458.414062 L 534.34375 458.460938 L 534.4375 458.503906 L 534.527344 458.539062 L 534.621094 458.570312 L 534.714844 458.59375 L 534.808594 458.613281 L 534.90625 458.625 L 535.003906 458.632812 Z M 535.101562 458.636719 "/>
<path style=" stroke:none;fill-rule:evenodd;fill:rgb(27.058824%,27.058824%,27.058824%);fill-opacity:1;" d="M 106.015625 472.546875 L 100.597656 484.394531 L 98.863281 484.394531 L 96.746094 472.546875 L 98.433594 472.546875 L 99.945312 482.625 L 104.332031 472.546875 Z M 106.015625 472.546875 "/>
<path style=" stroke:none;fill-rule:evenodd;fill:rgb(27.058824%,27.058824%,27.058824%);fill-opacity:1;" d="M 110.78125 475.125 L 111.117188 475.132812 L 111.28125 475.140625 L 111.601562 475.171875 L 111.761719 475.195312 L 111.917969 475.21875 L 112.074219 475.246094 L 112.230469 475.277344 L 112.535156 475.355469 L 112.691406 475.398438 L 112.847656 475.445312 L 113.007812 475.5 L 113.164062 475.554688 L 113.324219 475.617188 L 113.480469 475.679688 L 113.640625 475.75 L 113.800781 475.824219 L 113.964844 475.898438 L 113.035156 482.332031 L 113.027344 482.386719 L 113.023438 482.433594 L 113.015625 482.480469 L 113.011719 482.523438 L 113.007812 482.5625 L 113.007812 482.601562 L 113 482.664062 L 113 482.769531 L 113.003906 482.828125 L 113.011719 482.886719 L 113.019531 482.9375 L 113.042969 483.039062 L 113.058594 483.085938 L 113.097656 483.171875 L 113.121094 483.210938 L 113.148438 483.246094 L 113.21875 483.316406 L 113.261719 483.351562 L 113.304688 483.382812 L 113.355469 483.410156 L 113.40625 483.441406 L 113.460938 483.46875 L 113.523438 483.496094 L 113.585938 483.519531 L 113.136719 484.601562 L 112.996094 484.582031 L 112.863281 484.558594 L 112.734375 484.527344 L 112.613281 484.488281 L 112.496094 484.449219 L 112.285156 484.347656 L 112.191406 484.289062 L 112.101562 484.226562 L 112.019531 484.15625 L 111.945312 484.078125 L 111.875 483.996094 L 111.808594 483.90625 L 111.753906 483.8125 L 111.703125 483.707031 L 111.65625 483.597656 L 111.617188 483.480469 L 111.585938 483.355469 L 111.558594 483.226562 L 111.539062 483.089844 L 111.425781 483.226562 L 111.3125 483.359375 L 111.195312 483.484375 L 111.074219 483.605469 L 110.953125 483.722656 L 110.828125 483.828125 L 110.699219 483.933594 L 110.570312 484.03125 L 110.4375 484.121094 L 110.300781 484.207031 L 110.160156 484.28125 L 110.019531 484.347656 L 109.878906 484.410156 L 109.734375 484.460938 L 109.589844 484.503906 L 109.445312 484.539062 L 109.292969 484.566406 L 109.144531 484.585938 L 108.992188 484.597656 L 108.839844 484.601562 L 108.570312 484.59375 L 108.3125 484.566406 L 108.066406 484.515625 L 107.835938 484.453125 L 107.617188 484.367188 L 107.410156 484.261719 L 107.214844 484.140625 L 107.03125 483.996094 L 106.863281 483.835938 L 106.707031 483.65625 L 106.5625 483.460938 L 106.433594 483.253906 L 106.320312 483.03125 L 106.222656 482.796875 L 106.136719 482.550781 L 106.070312 482.292969 L 106.015625 482.019531 L 105.980469 481.734375 L 105.957031 481.4375 L 105.949219 481.128906 L 105.953125 480.851562 L 105.96875 480.578125 L 105.992188 480.300781 L 106.027344 480.027344 L 106.074219 479.753906 L 106.128906 479.476562 L 106.191406 479.203125 L 106.269531 478.925781 L 106.351562 478.652344 L 106.445312 478.375 L 106.554688 478.105469 L 106.675781 477.84375 L 106.808594 477.589844 L 106.949219 477.347656 L 107.105469 477.113281 L 107.269531 476.886719 L 107.449219 476.667969 L 107.636719 476.460938 L 107.835938 476.261719 L 108.046875 476.070312 L 108.269531 475.890625 L 108.503906 475.730469 L 108.75 475.589844 L 109.003906 475.464844 L 109.273438 475.363281 L 109.550781 475.277344 L 109.84375 475.210938 L 110.144531 475.164062 L 110.457031 475.136719 Z M 110.816406 476.382812 L 110.601562 476.386719 L 110.398438 476.410156 L 110.199219 476.449219 L 110.007812 476.5 L 109.824219 476.566406 L 109.644531 476.648438 L 109.476562 476.742188 L 109.3125 476.855469 L 109.15625 476.980469 L 109.011719 477.121094 L 108.871094 477.269531 L 108.742188 477.425781 L 108.621094 477.589844 L 108.503906 477.757812 L 108.394531 477.9375 L 108.292969 478.125 L 108.199219 478.316406 L 108.113281 478.519531 L 108.035156 478.726562 L 107.960938 478.945312 L 107.898438 479.160156 L 107.84375 479.378906 L 107.792969 479.597656 L 107.75 479.816406 L 107.714844 480.035156 L 107.6875 480.257812 L 107.664062 480.476562 L 107.648438 480.699219 L 107.636719 480.921875 L 107.632812 481.144531 L 107.636719 481.363281 L 107.648438 481.570312 L 107.667969 481.765625 L 107.699219 481.949219 L 107.734375 482.121094 L 107.777344 482.28125 L 107.828125 482.433594 L 107.886719 482.570312 L 107.953125 482.699219 L 108.03125 482.8125 L 108.113281 482.914062 L 108.203125 483.003906 L 108.296875 483.085938 L 108.402344 483.15625 L 108.511719 483.214844 L 108.628906 483.261719 L 108.753906 483.300781 L 108.882812 483.324219 L 109.019531 483.339844 L 109.164062 483.347656 L 109.304688 483.34375 L 109.441406 483.328125 L 109.574219 483.308594 L 109.703125 483.277344 L 109.832031 483.238281 L 109.957031 483.191406 L 110.078125 483.136719 L 110.195312 483.070312 L 110.308594 483 L 110.421875 482.917969 L 110.535156 482.828125 L 110.648438 482.730469 L 110.765625 482.625 L 110.878906 482.511719 L 110.996094 482.390625 L 111.113281 482.265625 L 111.230469 482.128906 L 111.351562 481.988281 L 111.46875 481.835938 L 111.589844 481.679688 L 112.296875 476.671875 L 112.222656 476.644531 L 112.152344 476.613281 L 112.078125 476.589844 L 112.007812 476.5625 L 111.9375 476.539062 L 111.726562 476.480469 L 111.660156 476.464844 L 111.589844 476.449219 L 111.523438 476.4375 L 111.382812 476.414062 L 111.234375 476.398438 L 111.15625 476.390625 L 111.074219 476.386719 L 110.988281 476.382812 Z M 110.816406 476.382812 "/>
<path style=" stroke:none;fill-rule:evenodd;fill:rgb(27.058824%,27.058824%,27.058824%);fill-opacity:1;" d="M 117.59375 482.625 L 117.589844 482.640625 L 117.585938 482.660156 L 117.585938 482.679688 L 117.582031 482.703125 L 117.578125 482.722656 L 117.578125 482.796875 L 117.574219 482.820312 L 117.574219 482.847656 L 117.578125 482.894531 L 117.578125 482.9375 L 117.585938 482.980469 L 117.59375 483.019531 L 117.601562 483.054688 L 117.625 483.117188 L 117.640625 483.144531 L 117.660156 483.171875 L 117.699219 483.210938 L 117.726562 483.230469 L 117.75 483.246094 L 117.8125 483.269531 L 117.882812 483.285156 L 117.921875 483.292969 L 117.960938 483.292969 L 118.003906 483.296875 L 118.167969 483.285156 L 118.230469 483.277344 L 118.289062 483.265625 L 118.351562 483.253906 L 118.417969 483.238281 L 118.484375 483.21875 L 118.554688 483.199219 L 118.625 483.175781 L 118.953125 484.308594 L 118.820312 484.367188 L 118.5625 484.460938 L 118.3125 484.53125 L 118.0625 484.578125 L 117.9375 484.589844 L 117.816406 484.601562 L 117.695312 484.601562 L 117.542969 484.597656 L 117.394531 484.585938 L 117.253906 484.5625 L 117.117188 484.535156 L 116.992188 484.496094 L 116.871094 484.449219 L 116.757812 484.390625 L 116.648438 484.328125 L 116.550781 484.253906 L 116.457031 484.171875 L 116.375 484.082031 L 116.304688 483.984375 L 116.238281 483.878906 L 116.183594 483.761719 L 116.136719 483.640625 L 116.097656 483.507812 L 116.066406 483.367188 L 116.042969 483.21875 L 116.03125 483.0625 L 116.027344 482.898438 L 116.027344 482.828125 L 116.03125 482.785156 L 116.03125 482.738281 L 116.035156 482.6875 L 116.039062 482.632812 L 116.042969 482.574219 L 116.050781 482.507812 L 116.054688 482.441406 L 116.0625 482.367188 L 117.574219 471.683594 L 119.15625 471.496094 Z M 117.59375 482.625 "/>
<path style=" stroke:none;fill-rule:evenodd;fill:rgb(27.058824%,27.058824%,27.058824%);fill-opacity:1;" d="M 123.269531 484.601562 L 123.0625 484.597656 L 122.867188 484.578125 L 122.679688 484.550781 L 122.5 484.507812 L 122.332031 484.457031 L 122.171875 484.390625 L 122.019531 484.316406 L 121.875 484.226562 L 121.742188 484.128906 L 121.617188 484.019531 L 121.507812 483.894531 L 121.40625 483.757812 L 121.320312 483.617188 L 121.242188 483.464844 L 121.179688 483.304688 L 121.125 483.132812 L 121.085938 482.957031 L 121.054688 482.769531 L 121.039062 482.570312 L 121.03125 482.367188 L 121.035156 482.308594 L 121.035156 482.25 L 121.039062 482.191406 L 121.042969 482.128906 L 121.046875 482.070312 L 121.050781 482.007812 L 121.058594 481.949219 L 121.066406 481.886719 L 121.074219 481.828125 L 121.085938 481.765625 L 121.996094 475.332031 L 123.5625 475.332031 L 122.667969 481.695312 L 122.65625 481.757812 L 122.632812 481.933594 L 122.628906 481.992188 L 122.625 482.046875 L 122.621094 482.105469 L 122.617188 482.15625 L 122.617188 482.378906 L 122.625 482.484375 L 122.636719 482.585938 L 122.652344 482.679688 L 122.675781 482.765625 L 122.703125 482.847656 L 122.734375 482.921875 L 122.769531 482.988281 L 122.808594 483.050781 L 122.855469 483.105469 L 122.910156 483.15625 L 122.96875 483.199219 L 123.03125 483.238281 L 123.101562 483.269531 L 123.175781 483.300781 L 123.253906 483.324219 L 123.335938 483.339844 L 123.421875 483.355469 L 123.515625 483.363281 L 123.613281 483.363281 L 123.765625 483.359375 L 123.917969 483.339844 L 124.066406 483.3125 L 124.210938 483.269531 L 124.355469 483.21875 L 124.5 483.152344 L 124.636719 483.078125 L 124.773438 482.988281 L 124.910156 482.890625 L 125.039062 482.78125 L 125.175781 482.660156 L 125.308594 482.53125 L 125.441406 482.394531 L 125.574219 482.25 L 125.707031 482.101562 L 125.839844 481.941406 L 125.972656 481.773438 L 126.101562 481.601562 L 126.234375 481.421875 L 126.363281 481.230469 L 127.191406 475.332031 L 128.753906 475.332031 L 127.484375 484.394531 L 126.140625 484.394531 L 126.261719 482.726562 L 126.128906 482.910156 L 125.992188 483.082031 L 125.855469 483.246094 L 125.714844 483.398438 L 125.578125 483.542969 L 125.4375 483.679688 L 125.296875 483.808594 L 125.15625 483.925781 L 125.011719 484.039062 L 124.867188 484.136719 L 124.726562 484.226562 L 124.578125 484.304688 L 124.429688 484.375 L 124.273438 484.433594 L 124.117188 484.488281 L 123.953125 484.527344 L 123.789062 484.5625 L 123.617188 484.585938 L 123.445312 484.597656 Z M 123.269531 484.601562 "/>
<path style=" stroke:none;fill-rule:evenodd;fill:rgb(27.058824%,27.058824%,27.058824%);fill-opacity:1;" d="M 138.164062 477.429688 L 138.148438 477.769531 L 138.101562 478.085938 L 138.023438 478.386719 L 137.917969 478.664062 L 137.777344 478.925781 L 137.605469 479.167969 L 137.40625 479.390625 L 137.171875 479.59375 L 136.910156 479.777344 L 136.617188 479.941406 L 136.292969 480.089844 L 135.949219 480.230469 L 135.574219 480.363281 L 135.179688 480.484375 L 134.757812 480.597656 L 134.3125 480.703125 L 133.84375 480.796875 L 133.347656 480.882812 L 132.828125 480.957031 L 132.28125 481.023438 L 132.308594 481.453125 L 132.375 481.835938 L 132.480469 482.175781 L 132.621094 482.46875 L 132.796875 482.714844 L 133.011719 482.917969 L 133.265625 483.074219 L 133.554688 483.1875 L 133.878906 483.253906 L 134.242188 483.277344 L 134.371094 483.277344 L 134.496094 483.269531 L 134.621094 483.257812 L 134.742188 483.246094 L 134.867188 483.226562 L 134.988281 483.203125 L 135.109375 483.175781 L 135.226562 483.144531 L 135.347656 483.109375 L 135.464844 483.070312 L 135.582031 483.027344 L 135.699219 482.980469 L 135.816406 482.929688 L 135.9375 482.871094 L 136.058594 482.808594 L 136.179688 482.742188 L 136.300781 482.671875 L 136.421875 482.597656 L 136.542969 482.519531 L 136.667969 482.433594 L 137.339844 483.5 L 137.03125 483.710938 L 136.71875 483.898438 L 136.402344 484.0625 L 136.082031 484.207031 L 135.761719 484.328125 L 135.433594 484.425781 L 135.101562 484.503906 L 134.769531 484.558594 L 134.429688 484.589844 L 134.085938 484.601562 L 133.765625 484.59375 L 133.457031 484.5625 L 133.164062 484.515625 L 132.886719 484.449219 L 132.621094 484.363281 L 132.371094 484.253906 L 132.136719 484.128906 L 131.917969 483.984375 L 131.714844 483.824219 L 131.523438 483.640625 L 131.355469 483.4375 L 131.203125 483.21875 L 131.070312 482.984375 L 130.953125 482.734375 L 130.855469 482.46875 L 130.773438 482.191406 L 130.710938 481.894531 L 130.667969 481.585938 L 130.640625 481.261719 L 130.628906 480.921875 L 130.636719 480.648438 L 130.648438 480.378906 L 130.671875 480.109375 L 130.703125 479.839844 L 130.746094 479.570312 L 130.796875 479.304688 L 130.859375 479.035156 L 130.925781 478.769531 L 131.007812 478.503906 L 131.09375 478.238281 L 131.195312 477.976562 L 131.308594 477.71875 L 131.433594 477.476562 L 131.570312 477.238281 L 131.71875 477.011719 L 131.878906 476.796875 L 132.046875 476.589844 L 132.230469 476.390625 L 132.421875 476.199219 L 132.625 476.019531 L 132.839844 475.851562 L 133.066406 475.699219 L 133.304688 475.5625 L 133.554688 475.449219 L 133.816406 475.347656 L 134.089844 475.269531 L 134.371094 475.207031 L 134.667969 475.160156 L 134.972656 475.132812 L 135.292969 475.125 L 135.558594 475.132812 L 135.816406 475.152344 L 136.058594 475.1875 L 136.289062 475.234375 L 136.507812 475.292969 L 136.714844 475.367188 L 136.90625 475.453125 L 137.085938 475.554688 L 137.253906 475.667969 L 137.40625 475.796875 L 137.550781 475.933594 L 137.679688 476.078125 L 137.792969 476.226562 L 137.890625 476.378906 L 137.976562 476.539062 L 138.042969 476.707031 L 138.097656 476.878906 L 138.132812 477.054688 L 138.15625 477.242188 Z M 132.367188 479.820312 L 132.78125 479.769531 L 133.175781 479.714844 L 133.546875 479.652344 L 133.890625 479.585938 L 134.214844 479.515625 L 134.519531 479.4375 L 134.796875 479.359375 L 135.054688 479.269531 L 135.289062 479.179688 L 135.496094 479.082031 L 135.691406 478.976562 L 135.863281 478.859375 L 136.015625 478.726562 L 136.148438 478.585938 L 136.257812 478.433594 L 136.351562 478.265625 L 136.421875 478.089844 L 136.472656 477.898438 L 136.503906 477.695312 L 136.511719 477.480469 L 136.511719 477.398438 L 136.488281 477.242188 L 136.441406 477.085938 L 136.371094 476.9375 L 136.324219 476.867188 L 136.277344 476.792969 L 136.160156 476.660156 L 136.089844 476.601562 L 136.011719 476.550781 L 135.929688 476.503906 L 135.835938 476.46875 L 135.738281 476.4375 L 135.632812 476.410156 L 135.519531 476.394531 L 135.402344 476.382812 L 135.273438 476.382812 L 135.019531 476.390625 L 134.777344 476.421875 L 134.542969 476.472656 L 134.324219 476.539062 L 134.117188 476.628906 L 133.921875 476.738281 L 133.738281 476.871094 L 133.566406 477.019531 L 133.410156 477.1875 L 133.261719 477.378906 L 133.125 477.582031 L 133 477.796875 L 132.886719 478.015625 L 132.78125 478.25 L 132.6875 478.488281 L 132.601562 478.738281 L 132.527344 478.996094 L 132.464844 479.261719 L 132.410156 479.535156 Z M 132.367188 479.820312 "/>
<path style=" stroke:none;fill-rule:evenodd;fill:rgb(27.058824%,27.058824%,27.058824%);fill-opacity:1;" d="M 15.941406 67.832031 L 15.949219 67.371094 L 15.980469 66.929688 L 16.027344 66.503906 L 16.097656 66.097656 L 16.183594 65.710938 L 16.292969 65.34375 L 16.421875 64.996094 L 16.566406 64.667969 L 16.734375 64.355469 L 16.921875 64.066406 L 17.128906 63.796875 L 17.371094 63.558594 L 17.640625 63.347656 L 17.945312 63.164062 L 18.28125 63.007812 L 18.644531 62.882812 L 19.042969 62.78125 L 19.472656 62.710938 L 19.9375 62.667969 L 20.429688 62.65625 L 20.828125 62.660156 L 21.21875 62.679688 L 21.605469 62.714844 L 21.984375 62.761719 L 22.355469 62.820312 L 22.71875 62.890625 L 23.078125 62.976562 L 23.429688 63.074219 L 23.773438 63.183594 L 24.109375 63.308594 L 24.4375 63.449219 L 24.75 63.601562 L 25.050781 63.773438 L 25.339844 63.957031 L 25.613281 64.160156 L 25.878906 64.378906 L 26.125 64.613281 L 26.363281 64.859375 L 26.582031 65.125 L 26.792969 65.40625 L 26.984375 65.699219 L 27.152344 66.011719 L 27.300781 66.335938 L 27.433594 66.679688 L 27.542969 67.039062 L 27.632812 67.410156 L 27.703125 67.800781 L 27.75 68.207031 L 27.78125 68.632812 L 27.792969 69.070312 L 27.792969 71.925781 L 15.941406 70.257812 Z M 17.246094 68.832031 L 26.5 70.121094 L 26.5 68.832031 L 26.492188 68.511719 L 26.464844 68.207031 L 26.421875 67.914062 L 26.359375 67.632812 L 26.277344 67.363281 L 26.179688 67.105469 L 26.0625 66.863281 L 25.929688 66.628906 L 25.777344 66.40625 L 25.605469 66.199219 L 25.421875 66 L 25.230469 65.816406 L 25.027344 65.640625 L 24.8125 65.480469 L 24.59375 65.328125 L 24.359375 65.191406 L 24.117188 65.066406 L 23.867188 64.949219 L 23.605469 64.84375 L 23.335938 64.753906 L 23.058594 64.667969 L 22.777344 64.59375 L 22.492188 64.527344 L 22.207031 64.46875 L 21.914062 64.417969 L 21.617188 64.378906 L 21.316406 64.347656 L 21.011719 64.324219 L 20.707031 64.3125 L 20.394531 64.304688 L 20.140625 64.3125 L 19.898438 64.324219 L 19.667969 64.347656 L 19.449219 64.378906 L 19.242188 64.417969 L 19.050781 64.46875 L 18.867188 64.527344 L 18.699219 64.59375 L 18.542969 64.667969 L 18.398438 64.753906 L 18.265625 64.847656 L 18.144531 64.945312 L 18.027344 65.046875 L 17.921875 65.15625 L 17.828125 65.269531 L 17.742188 65.390625 L 17.664062 65.515625 L 17.597656 65.644531 L 17.539062 65.78125 L 17.488281 65.921875 L 17.441406 66.066406 L 17.402344 66.214844 L 17.367188 66.371094 L 17.335938 66.527344 L 17.308594 66.691406 L 17.285156 66.863281 L 17.269531 67.039062 L 17.257812 67.21875 L 17.25 67.402344 L 17.246094 67.59375 Z M 17.246094 68.832031 "/>
<path style=" stroke:none;fill-rule:evenodd;fill:rgb(27.058824%,27.058824%,27.058824%);fill-opacity:1;" d="M 20.824219 53.574219 L 21.164062 53.589844 L 21.480469 53.636719 L 21.78125 53.714844 L 22.0625 53.820312 L 22.320312 53.960938 L 22.5625 54.132812 L 22.785156 54.332031 L 22.988281 54.566406 L 23.171875 54.828125 L 23.335938 55.121094 L 23.488281 55.445312 L 23.628906 55.789062 L 23.757812 56.160156 L 23.882812 56.558594 L 23.992188 56.980469 L 24.097656 57.425781 L 24.191406 57.894531 L 24.277344 58.390625 L 24.351562 58.910156 L 24.417969 59.457031 L 24.847656 59.425781 L 25.230469 59.359375 L 25.570312 59.257812 L 25.863281 59.117188 L 26.109375 58.941406 L 26.3125 58.726562 L 26.46875 58.472656 L 26.582031 58.183594 L 26.652344 57.859375 L 26.671875 57.496094 L 26.671875 57.367188 L 26.65625 57.117188 L 26.640625 56.996094 L 26.621094 56.871094 L 26.597656 56.75 L 26.570312 56.628906 L 26.539062 56.511719 L 26.503906 56.390625 L 26.464844 56.273438 L 26.421875 56.15625 L 26.375 56.039062 L 26.324219 55.921875 L 26.265625 55.800781 L 26.203125 55.679688 L 26.136719 55.558594 L 26.066406 55.4375 L 25.992188 55.316406 L 25.914062 55.195312 L 25.832031 55.070312 L 26.898438 54.398438 L 27.105469 54.707031 L 27.292969 55.019531 L 27.457031 55.335938 L 27.601562 55.65625 L 27.722656 55.976562 L 27.820312 56.304688 L 27.898438 56.636719 L 27.953125 56.96875 L 27.988281 57.308594 L 27.996094 57.648438 L 27.988281 57.972656 L 27.957031 58.28125 L 27.910156 58.574219 L 27.84375 58.851562 L 27.757812 59.117188 L 27.652344 59.367188 L 27.527344 59.597656 L 27.382812 59.820312 L 27.21875 60.023438 L 27.035156 60.214844 L 26.832031 60.382812 L 26.613281 60.535156 L 26.378906 60.667969 L 26.128906 60.785156 L 25.863281 60.882812 L 25.585938 60.964844 L 25.289062 61.027344 L 24.980469 61.070312 L 24.65625 61.097656 L 24.316406 61.109375 L 24.046875 61.101562 L 23.773438 61.089844 L 23.503906 61.066406 L 23.234375 61.03125 L 22.964844 60.992188 L 22.699219 60.941406 L 22.429688 60.878906 L 22.164062 60.808594 L 21.898438 60.730469 L 21.632812 60.644531 L 21.371094 60.542969 L 21.117188 60.425781 L 20.871094 60.304688 L 20.632812 60.167969 L 20.40625 60.019531 L 20.191406 59.859375 L 19.984375 59.691406 L 19.785156 59.507812 L 19.59375 59.316406 L 19.414062 59.113281 L 19.246094 58.898438 L 19.09375 58.667969 L 18.957031 58.429688 L 18.84375 58.183594 L 18.742188 57.921875 L 18.664062 57.648438 L 18.601562 57.363281 L 18.554688 57.070312 L 18.527344 56.765625 L 18.519531 56.445312 L 18.527344 56.175781 L 18.546875 55.921875 L 18.582031 55.679688 L 18.628906 55.445312 L 18.6875 55.230469 L 18.761719 55.023438 L 18.847656 54.832031 L 18.949219 54.652344 L 19.0625 54.484375 L 19.191406 54.332031 L 19.328125 54.1875 L 19.472656 54.058594 L 19.621094 53.945312 L 19.773438 53.847656 L 19.933594 53.761719 L 20.101562 53.695312 L 20.273438 53.640625 L 20.453125 53.605469 L 20.636719 53.582031 Z M 23.214844 59.371094 L 23.164062 58.953125 L 23.109375 58.5625 L 23.046875 58.191406 L 22.980469 57.84375 L 22.910156 57.519531 L 22.832031 57.21875 L 22.753906 56.941406 L 22.664062 56.683594 L 22.574219 56.449219 L 22.476562 56.238281 L 22.371094 56.046875 L 22.253906 55.875 L 22.121094 55.722656 L 21.980469 55.589844 L 21.828125 55.480469 L 21.660156 55.386719 L 21.484375 55.316406 L 21.292969 55.265625 L 21.089844 55.234375 L 20.875 55.226562 L 20.792969 55.226562 L 20.636719 55.25 L 20.480469 55.296875 L 20.332031 55.367188 L 20.261719 55.414062 L 20.1875 55.460938 L 20.121094 55.515625 L 20.054688 55.578125 L 19.996094 55.648438 L 19.945312 55.726562 L 19.898438 55.808594 L 19.863281 55.898438 L 19.832031 56 L 19.808594 56.105469 L 19.789062 56.214844 L 19.777344 56.335938 L 19.777344 56.464844 L 19.785156 56.71875 L 19.816406 56.960938 L 19.867188 57.195312 L 19.933594 57.414062 L 20.023438 57.621094 L 20.136719 57.816406 L 20.265625 58 L 20.414062 58.167969 L 20.582031 58.328125 L 20.773438 58.476562 L 20.976562 58.613281 L 21.191406 58.738281 L 21.414062 58.851562 L 21.644531 58.957031 L 21.882812 59.050781 L 22.132812 59.136719 L 22.390625 59.210938 L 22.65625 59.273438 L 22.929688 59.328125 Z M 23.214844 59.371094 "/>
<path style=" stroke:none;fill-rule:evenodd;fill:rgb(27.058824%,27.058824%,27.058824%);fill-opacity:1;" d="M 18.519531 46.503906 L 18.527344 46.308594 L 18.546875 46.121094 L 18.574219 45.945312 L 18.621094 45.773438 L 18.675781 45.613281 L 18.742188 45.460938 L 18.824219 45.320312 L 18.917969 45.183594 L 19.023438 45.058594 L 19.140625 44.9375 L 19.265625 44.828125 L 19.398438 44.730469 L 19.542969 44.640625 L 19.695312 44.566406 L 19.859375 44.5 L 20.027344 44.449219 L 20.210938 44.40625 L 20.398438 44.378906 L 20.597656 44.359375 L 20.808594 44.355469 L 20.921875 44.355469 L 21.039062 44.363281 L 21.101562 44.367188 L 21.164062 44.375 L 21.226562 44.378906 L 21.359375 44.394531 L 21.425781 44.40625 L 27.792969 45.300781 L 27.792969 46.867188 L 21.460938 45.972656 L 21.386719 45.964844 L 21.320312 45.960938 L 21.257812 45.953125 L 21.199219 45.949219 L 21.148438 45.945312 L 21.101562 45.941406 L 21.058594 45.941406 L 21.019531 45.9375 L 20.960938 45.9375 L 20.84375 45.941406 L 20.734375 45.949219 L 20.632812 45.960938 L 20.535156 45.976562 L 20.445312 46 L 20.363281 46.03125 L 20.289062 46.0625 L 20.21875 46.101562 L 20.15625 46.144531 L 20.101562 46.195312 L 20.054688 46.25 L 20.007812 46.308594 L 19.972656 46.371094 L 19.9375 46.4375 L 19.910156 46.507812 L 19.886719 46.585938 L 19.867188 46.664062 L 19.855469 46.75 L 19.847656 46.839844 L 19.84375 46.933594 L 19.851562 47.09375 L 19.871094 47.25 L 19.90625 47.40625 L 19.957031 47.558594 L 20.019531 47.714844 L 20.097656 47.867188 L 20.191406 48.015625 L 20.296875 48.167969 L 20.414062 48.316406 L 20.550781 48.464844 L 20.695312 48.609375 L 20.847656 48.75 L 21.007812 48.890625 L 21.175781 49.027344 L 21.355469 49.160156 L 21.539062 49.296875 L 21.730469 49.425781 L 21.929688 49.554688 L 22.140625 49.683594 L 22.355469 49.808594 L 27.792969 50.5625 L 27.792969 52.128906 L 18.726562 50.855469 L 18.726562 49.515625 L 20.5 49.652344 L 20.3125 49.515625 L 20.136719 49.378906 L 19.96875 49.242188 L 19.808594 49.097656 L 19.660156 48.957031 L 19.519531 48.808594 L 19.382812 48.664062 L 19.261719 48.511719 L 19.144531 48.359375 L 19.035156 48.207031 L 18.9375 48.050781 L 18.851562 47.890625 L 18.773438 47.730469 L 18.707031 47.5625 L 18.648438 47.394531 L 18.601562 47.222656 L 18.566406 47.046875 L 18.539062 46.871094 L 18.523438 46.6875 Z M 18.519531 46.503906 "/>
<path style=" stroke:none;fill-rule:evenodd;fill:rgb(27.058824%,27.058824%,27.058824%);fill-opacity:1;" d="M 18.519531 38.609375 L 18.53125 38.269531 L 18.566406 37.941406 L 18.621094 37.621094 L 18.699219 37.308594 L 18.800781 37.007812 L 18.921875 36.714844 L 19.066406 36.429688 L 19.234375 36.15625 L 19.425781 35.890625 L 19.636719 35.632812 L 20.585938 36.410156 L 20.429688 36.613281 L 20.292969 36.820312 L 20.171875 37.035156 L 20.066406 37.25 L 19.976562 37.46875 L 19.90625 37.695312 L 19.847656 37.921875 L 19.808594 38.152344 L 19.785156 38.386719 L 19.777344 38.628906 L 19.777344 38.789062 L 19.789062 38.945312 L 19.804688 39.09375 L 19.828125 39.234375 L 19.859375 39.371094 L 19.894531 39.5 L 19.9375 39.621094 L 19.984375 39.738281 L 20.039062 39.847656 L 20.101562 39.953125 L 20.171875 40.042969 L 20.242188 40.125 L 20.320312 40.195312 L 20.402344 40.257812 L 20.488281 40.3125 L 20.582031 40.355469 L 20.679688 40.390625 L 20.78125 40.414062 L 20.886719 40.429688 L 20.996094 40.433594 L 21.097656 40.429688 L 21.195312 40.417969 L 21.285156 40.398438 L 21.371094 40.371094 L 21.453125 40.335938 L 21.53125 40.289062 L 21.601562 40.238281 L 21.667969 40.179688 L 21.730469 40.113281 L 21.789062 40.039062 L 21.84375 39.949219 L 21.898438 39.847656 L 21.957031 39.734375 L 22.015625 39.609375 L 22.070312 39.472656 L 22.128906 39.324219 L 22.191406 39.164062 L 22.25 38.992188 L 22.3125 38.808594 L 22.371094 38.609375 L 22.457031 38.351562 L 22.546875 38.109375 L 22.640625 37.878906 L 22.738281 37.664062 L 22.839844 37.460938 L 22.949219 37.273438 L 23.058594 37.101562 L 23.175781 36.941406 L 23.296875 36.796875 L 23.421875 36.667969 L 23.550781 36.546875 L 23.6875 36.441406 L 23.832031 36.351562 L 23.988281 36.269531 L 24.148438 36.203125 L 24.320312 36.144531 L 24.5 36.101562 L 24.6875 36.070312 L 24.886719 36.054688 L 25.089844 36.046875 L 25.28125 36.050781 L 25.464844 36.066406 L 25.640625 36.09375 L 25.8125 36.132812 L 25.976562 36.179688 L 26.136719 36.238281 L 26.289062 36.308594 L 26.433594 36.386719 L 26.574219 36.480469 L 26.707031 36.582031 L 26.835938 36.691406 L 26.957031 36.804688 L 27.070312 36.929688 L 27.179688 37.058594 L 27.28125 37.195312 L 27.375 37.335938 L 27.460938 37.488281 L 27.542969 37.640625 L 27.621094 37.804688 L 27.6875 37.972656 L 27.746094 38.144531 L 27.800781 38.316406 L 27.847656 38.492188 L 27.886719 38.671875 L 27.921875 38.855469 L 27.949219 39.039062 L 27.96875 39.230469 L 27.984375 39.421875 L 27.996094 39.617188 L 27.996094 39.8125 L 27.984375 40.210938 L 27.945312 40.59375 L 27.878906 40.960938 L 27.789062 41.316406 L 27.671875 41.660156 L 27.527344 41.988281 L 27.355469 42.300781 L 27.160156 42.605469 L 26.9375 42.894531 L 26.691406 43.167969 L 25.777344 42.273438 L 25.957031 42.046875 L 26.121094 41.816406 L 26.261719 41.578125 L 26.382812 41.332031 L 26.488281 41.082031 L 26.574219 40.828125 L 26.640625 40.566406 L 26.6875 40.296875 L 26.714844 40.023438 L 26.726562 39.746094 L 26.71875 39.535156 L 26.707031 39.335938 L 26.683594 39.148438 L 26.652344 38.972656 L 26.613281 38.8125 L 26.5625 38.660156 L 26.503906 38.523438 L 26.4375 38.398438 L 26.363281 38.28125 L 26.277344 38.179688 L 26.183594 38.089844 L 26.085938 38.007812 L 25.988281 37.933594 L 25.890625 37.871094 L 25.789062 37.820312 L 25.683594 37.773438 L 25.578125 37.742188 L 25.46875 37.71875 L 25.359375 37.703125 L 25.246094 37.699219 L 25.15625 37.699219 L 25.066406 37.707031 L 24.984375 37.714844 L 24.902344 37.726562 L 24.828125 37.742188 L 24.6875 37.78125 L 24.5625 37.835938 L 24.503906 37.871094 L 24.453125 37.90625 L 24.398438 37.949219 L 24.347656 37.996094 L 24.296875 38.046875 L 24.246094 38.101562 L 24.199219 38.164062 L 24.152344 38.230469 L 24.109375 38.300781 L 24.066406 38.375 L 24.023438 38.453125 L 23.984375 38.539062 L 23.941406 38.628906 L 23.898438 38.726562 L 23.855469 38.828125 L 23.808594 38.941406 L 23.765625 39.058594 L 23.71875 39.1875 L 23.671875 39.320312 L 23.625 39.460938 L 23.578125 39.609375 L 23.496094 39.863281 L 23.410156 40.101562 L 23.324219 40.324219 L 23.234375 40.535156 L 23.136719 40.730469 L 23.039062 40.910156 L 22.9375 41.074219 L 22.832031 41.226562 L 22.726562 41.359375 L 22.613281 41.480469 L 22.492188 41.585938 L 22.367188 41.679688 L 22.230469 41.761719 L 22.089844 41.835938 L 21.941406 41.894531 L 21.789062 41.945312 L 21.625 41.984375 L 21.457031 42.011719 L 21.28125 42.027344 L 21.101562 42.03125 L 20.972656 42.027344 L 20.847656 42.015625 L 20.722656 42 L 20.597656 41.972656 L 20.476562 41.9375 L 20.355469 41.894531 L 20.234375 41.847656 L 20.113281 41.789062 L 19.996094 41.726562 L 19.878906 41.652344 L 19.761719 41.574219 L 19.648438 41.488281 L 19.539062 41.390625 L 19.433594 41.289062 L 19.332031 41.175781 L 19.238281 41.058594 L 19.144531 40.929688 L 19.058594 40.796875 L 18.976562 40.652344 L 18.898438 40.5 L 18.828125 40.34375 L 18.761719 40.179688 L 18.707031 40.007812 L 18.65625 39.828125 L 18.613281 39.640625 L 18.582031 39.449219 L 18.554688 39.25 L 18.535156 39.042969 L 18.523438 38.828125 Z M 18.519531 38.609375 "/>
<path style=" stroke:none;fill-rule:evenodd;fill:rgb(27.058824%,27.058824%,27.058824%);fill-opacity:1;" d="M 18.726562 31.386719 L 27.792969 32.660156 L 27.792969 34.222656 L 18.726562 32.949219 Z M 16.523438 31.796875 L 16.523438 31.890625 L 16.515625 31.976562 L 16.5 32.058594 L 16.480469 32.140625 L 16.457031 32.214844 L 16.425781 32.289062 L 16.390625 32.355469 L 16.347656 32.421875 L 16.300781 32.480469 L 16.25 32.539062 L 16.191406 32.589844 L 16.128906 32.636719 L 16.0625 32.679688 L 15.996094 32.714844 L 15.925781 32.746094 L 15.855469 32.769531 L 15.78125 32.789062 L 15.625 32.8125 L 15.542969 32.8125 L 15.445312 32.808594 L 15.351562 32.800781 L 15.261719 32.78125 L 15.171875 32.757812 L 15.089844 32.726562 L 15.007812 32.691406 L 14.929688 32.644531 L 14.855469 32.59375 L 14.785156 32.535156 L 14.71875 32.46875 L 14.652344 32.398438 L 14.59375 32.324219 L 14.542969 32.25 L 14.5 32.167969 L 14.460938 32.085938 L 14.429688 32 L 14.40625 31.910156 L 14.390625 31.820312 L 14.378906 31.726562 L 14.375 31.625 L 14.378906 31.535156 L 14.386719 31.449219 L 14.398438 31.363281 L 14.417969 31.285156 L 14.472656 31.136719 L 14.550781 31.003906 L 14.597656 30.945312 L 14.648438 30.886719 L 14.707031 30.835938 L 14.765625 30.789062 L 14.828125 30.746094 L 14.894531 30.710938 L 14.964844 30.679688 L 15.035156 30.65625 L 15.113281 30.636719 L 15.191406 30.621094 L 15.269531 30.613281 L 15.355469 30.613281 L 15.453125 30.617188 L 15.546875 30.625 L 15.640625 30.644531 L 15.730469 30.667969 L 15.816406 30.699219 L 15.898438 30.734375 L 15.976562 30.78125 L 16.054688 30.832031 L 16.128906 30.890625 L 16.199219 30.957031 L 16.261719 31.027344 L 16.316406 31.101562 L 16.363281 31.175781 L 16.40625 31.253906 L 16.441406 31.339844 L 16.472656 31.425781 L 16.496094 31.511719 L 16.511719 31.605469 L 16.523438 31.699219 Z M 16.523438 31.796875 "/>
<path style=" stroke:none;fill-rule:evenodd;fill:rgb(27.058824%,27.058824%,27.058824%);fill-opacity:1;" d="M 25.398438 27.429688 L 25.464844 27.4375 L 25.527344 27.441406 L 25.585938 27.449219 L 25.636719 27.453125 L 25.683594 27.457031 L 25.726562 27.457031 L 25.765625 27.460938 L 25.796875 27.460938 L 25.824219 27.464844 L 25.847656 27.464844 L 26.011719 27.457031 L 26.085938 27.445312 L 26.15625 27.433594 L 26.222656 27.417969 L 26.339844 27.371094 L 26.390625 27.34375 L 26.441406 27.3125 L 26.484375 27.273438 L 26.519531 27.230469 L 26.550781 27.183594 L 26.582031 27.132812 L 26.605469 27.078125 L 26.644531 26.953125 L 26.65625 26.886719 L 26.664062 26.8125 L 26.671875 26.734375 L 26.671875 26.59375 L 26.667969 26.53125 L 26.664062 26.472656 L 26.660156 26.410156 L 26.652344 26.351562 L 26.640625 26.289062 L 26.632812 26.230469 L 26.585938 26.054688 L 26.566406 25.992188 L 26.542969 25.925781 L 26.515625 25.859375 L 26.492188 25.792969 L 26.460938 25.722656 L 26.433594 25.652344 L 26.402344 25.578125 L 26.367188 25.503906 L 26.332031 25.425781 L 26.292969 25.347656 L 27.394531 24.832031 L 27.511719 25.023438 L 27.613281 25.214844 L 27.703125 25.410156 L 27.78125 25.609375 L 27.847656 25.808594 L 27.902344 26.011719 L 27.941406 26.214844 L 27.972656 26.421875 L 27.992188 26.632812 L 27.996094 26.84375 L 27.992188 27.050781 L 27.976562 27.246094 L 27.949219 27.429688 L 27.914062 27.605469 L 27.863281 27.773438 L 27.804688 27.929688 L 27.734375 28.078125 L 27.65625 28.214844 L 27.566406 28.34375 L 27.464844 28.460938 L 27.351562 28.570312 L 27.226562 28.667969 L 27.09375 28.75 L 26.953125 28.824219 L 26.800781 28.886719 L 26.644531 28.9375 L 26.472656 28.976562 L 26.296875 29.007812 L 26.109375 29.023438 L 25.917969 29.03125 L 25.847656 29.027344 L 25.714844 29.027344 L 25.597656 29.019531 L 25.542969 29.015625 L 25.449219 29.007812 L 25.40625 29 L 25.367188 28.996094 L 19.949219 28.238281 L 19.949219 29.804688 L 18.726562 29.632812 L 18.726562 27.996094 L 16.628906 27.429688 L 16.492188 26.191406 L 18.726562 26.5 L 18.726562 24.367188 L 19.949219 24.710938 L 19.949219 26.671875 Z M 25.398438 27.429688 "/>
<path style=" stroke:none;fill-rule:evenodd;fill:rgb(27.058824%,27.058824%,27.058824%);fill-opacity:1;" d="M 27.878906 19.65625 L 28.183594 19.800781 L 28.476562 19.953125 L 28.757812 20.117188 L 29.023438 20.285156 L 29.277344 20.464844 L 29.519531 20.648438 L 29.746094 20.84375 L 29.964844 21.046875 L 30.164062 21.257812 L 30.355469 21.480469 L 30.527344 21.707031 L 30.691406 21.953125 L 30.835938 22.210938 L 30.96875 22.480469 L 31.085938 22.765625 L 31.1875 23.0625 L 31.277344 23.371094 L 31.351562 23.695312 L 31.410156 24.035156 L 31.453125 24.386719 L 30.214844 24.453125 L 30.183594 24.273438 L 30.148438 24.097656 L 30.109375 23.929688 L 30.070312 23.769531 L 30.027344 23.617188 L 29.980469 23.46875 L 29.933594 23.332031 L 29.878906 23.199219 L 29.824219 23.074219 L 29.769531 22.957031 L 29.644531 22.730469 L 29.578125 22.625 L 29.507812 22.519531 L 29.433594 22.421875 L 29.355469 22.324219 L 29.273438 22.230469 L 29.191406 22.144531 L 29.101562 22.058594 L 29.011719 21.976562 L 28.917969 21.898438 L 28.820312 21.820312 L 28.714844 21.738281 L 28.601562 21.65625 L 28.484375 21.578125 L 28.359375 21.496094 L 28.226562 21.414062 L 28.085938 21.332031 L 27.941406 21.25 L 27.792969 21.167969 L 27.792969 21.753906 L 18.726562 23.492188 L 18.726562 21.839844 L 26.585938 20.566406 L 18.726562 17.09375 L 18.726562 15.457031 Z M 27.878906 19.65625 "/>
</g>
</svg>
