<?xml version="1.0" encoding="UTF-8"?>
<svg xmlns="http://www.w3.org/2000/svg" xmlns:xlink="http://www.w3.org/1999/xlink" width="756pt" height="504pt" viewBox="0 0 756 504" version="1.1">
<defs>
<clipPath id="clip1">
  <path d="M 69.910156 382 L 740.058594 382 L 740.058594 384 L 69.910156 384 Z M 69.910156 382 "/>
</clipPath>
<clipPath id="clip2">
  <path d="M 69.910156 305 L 740.058594 305 L 740.058594 306 L 69.910156 306 Z M 69.910156 305 "/>
</clipPath>
<clipPath id="clip3">
  <path d="M 69.910156 227 L 740.058594 227 L 740.058594 229 L 69.910156 229 Z M 69.910156 227 "/>
</clipPath>
<clipPath id="clip4">
  <path d="M 69.910156 150 L 740.058594 150 L 740.058594 152 L 69.910156 152 Z M 69.910156 150 "/>
</clipPath>
<clipPath id="clip5">
  <path d="M 69.910156 73 L 740.058594 73 L 740.058594 75 L 69.910156 75 Z M 69.910156 73 "/>
</clipPath>
<clipPath id="clip6">
  <path d="M 69.910156 420 L 740.058594 420 L 740.058594 423 L 69.910156 423 Z M 69.910156 420 "/>
</clipPath>
<clipPath id="clip7">
  <path d="M 69.910156 343 L 740.058594 343 L 740.058594 346 L 69.910156 346 Z M 69.910156 343 "/>
</clipPath>
<clipPath id="clip8">
  <path d="M 69.910156 265 L 740.058594 265 L 740.058594 268 L 69.910156 268 Z M 69.910156 265 "/>
</clipPath>
<clipPath id="clip9">
  <path d="M 69.910156 188 L 740.058594 188 L 740.058594 191 L 69.910156 191 Z M 69.910156 188 "/>
</clipPath>
<clipPath id="clip10">
  <path d="M 69.910156 111 L 740.058594 111 L 740.058594 114 L 69.910156 114 Z M 69.910156 111 "/>
</clipPath>
<clipPath id="clip11">
  <path d="M 69.910156 34 L 740.058594 34 L 740.058594 37 L 69.910156 37 Z M 69.910156 34 "/>
</clipPath>
<clipPath id="clip12">
  <path d="M 194 15.941406 L 197 15.941406 L 197 440.628906 L 194 440.628906 Z M 194 15.941406 "/>
</clipPath>
<clipPath id="clip13">
  <path d="M 404 15.941406 L 406 15.941406 L 406 440.628906 L 404 440.628906 Z M 404 15.941406 "/>
</clipPath>
<clipPath id="clip14">
  <path d="M 613 15.941406 L 616 15.941406 L 616 440.628906 L 613 440.628906 Z M 613 15.941406 "/>
</clipPath>
</defs>
<g id="surface19">
<rect x="0" y="0" width="756" height="504" style="fill:rgb(100%,100%,100%);fill-opacity:1;stroke:none;"/>
<g clip-path="url(#clip1)" clip-rule="nonzero">
<path style="fill:none;stroke-width:0.96998;stroke-linecap:butt;stroke-linejoin:round;stroke:rgb(92.156863%,92.156863%,92.156863%);stroke-opacity:1;stroke-miterlimit:10;" d="M 69.910156 382.714844 L 740.058594 382.714844 "/>
</g>
<g clip-path="url(#clip2)" clip-rule="nonzero">
<path style="fill:none;stroke-width:0.96998;stroke-linecap:butt;stroke-linejoin:round;stroke:rgb(92.156863%,92.156863%,92.156863%);stroke-opacity:1;stroke-miterlimit:10;" d="M 69.910156 305.5 L 740.058594 305.5 "/>
</g>
<g clip-path="url(#clip3)" clip-rule="nonzero">
<path style="fill:none;stroke-width:0.96998;stroke-linecap:butt;stroke-linejoin:round;stroke:rgb(92.156863%,92.156863%,92.156863%);stroke-opacity:1;stroke-miterlimit:10;" d="M 69.910156 228.285156 L 740.058594 228.285156 "/>
</g>
<g clip-path="url(#clip4)" clip-rule="nonzero">
<path style="fill:none;stroke-width:0.96998;stroke-linecap:butt;stroke-linejoin:round;stroke:rgb(92.156863%,92.156863%,92.156863%);stroke-opacity:1;stroke-miterlimit:10;" d="M 69.910156 151.066406 L 740.058594 151.066406 "/>
</g>
<g clip-path="url(#clip5)" clip-rule="nonzero">
<path style="fill:none;stroke-width:0.96998;stroke-linecap:butt;stroke-linejoin:round;stroke:rgb(92.156863%,92.156863%,92.156863%);stroke-opacity:1;stroke-miterlimit:10;" d="M 69.910156 73.851562 L 740.058594 73.851562 "/>
</g>
<g clip-path="url(#clip6)" clip-rule="nonzero">
<path style="fill:none;stroke-width:1.939961;stroke-linecap:butt;stroke-linejoin:round;stroke:rgb(92.156863%,92.156863%,92.156863%);stroke-opacity:1;stroke-miterlimit:10;" d="M 69.910156 421.324219 L 740.058594 421.324219 "/>
</g>
<g clip-path="url(#clip7)" clip-rule="nonzero">
<path style="fill:none;stroke-width:1.939961;stroke-linecap:butt;stroke-linejoin:round;stroke:rgb(92.156863%,92.156863%,92.156863%);stroke-opacity:1;stroke-miterlimit:10;" d="M 69.910156 344.109375 L 740.058594 344.109375 "/>
</g>
<g clip-path="url(#clip8)" clip-rule="nonzero">
<path style="fill:none;stroke-width:1.939961;stroke-linecap:butt;stroke-linejoin:round;stroke:rgb(92.156863%,92.156863%,92.156863%);stroke-opacity:1;stroke-miterlimit:10;" d="M 69.910156 266.890625 L 740.058594 266.890625 "/>
</g>
<g clip-path="url(#clip9)" clip-rule="nonzero">
<path style="fill:none;stroke-width:1.939961;stroke-linecap:butt;stroke-linejoin:round;stroke:rgb(92.156863%,92.156863%,92.156863%);stroke-opacity:1;stroke-miterlimit:10;" d="M 69.910156 189.675781 L 740.058594 189.675781 "/>
</g>
<g clip-path="url(#clip10)" clip-rule="nonzero">
<path style="fill:none;stroke-width:1.939961;stroke-linecap:butt;stroke-linejoin:round;stroke:rgb(92.156863%,92.156863%,92.156863%);stroke-opacity:1;stroke-miterlimit:10;" d="M 69.910156 112.460938 L 740.058594 112.460938 "/>
</g>
<g clip-path="url(#clip11)" clip-rule="nonzero">
<path style="fill:none;stroke-width:1.939961;stroke-linecap:butt;stroke-linejoin:round;stroke:rgb(92.156863%,92.156863%,92.156863%);stroke-opacity:1;stroke-miterlimit:10;" d="M 69.910156 35.246094 L 740.058594 35.246094 "/>
</g>
<g clip-path="url(#clip12)" clip-rule="nonzero">
<path style="fill:none;stroke-width:1.939961;stroke-linecap:butt;stroke-linejoin:round;stroke:rgb(92.156863%,92.156863%,92.156863%);stroke-opacity:1;stroke-miterlimit:10;" d="M 195.5625 440.628906 L 195.5625 15.941406 "/>
</g>
<g clip-path="url(#clip13)" clip-rule="nonzero">
<path style="fill:none;stroke-width:1.939961;stroke-linecap:butt;stroke-linejoin:round;stroke:rgb(92.156863%,92.156863%,92.156863%);stroke-opacity:1;stroke-miterlimit:10;" d="M 404.984375 440.628906 L 404.984375 15.941406 "/>
</g>
<g clip-path="url(#clip14)" clip-rule="nonzero">
<path style="fill:none;stroke-width:1.939961;stroke-linecap:butt;stroke-linejoin:round;stroke:rgb(92.156863%,92.156863%,92.156863%);stroke-opacity:1;stroke-miterlimit:10;" d="M 614.40625 440.628906 L 614.40625 15.941406 "/>
</g>
<path style=" stroke:none;fill-rule:nonzero;fill:rgb(34.901961%,34.901961%,34.901961%);fill-opacity:1;" d="M 101.324219 421.324219 L 289.804688 421.324219 L 289.804688 228.285156 L 101.324219 228.285156 Z M 101.324219 421.324219 "/>
<path style=" stroke:none;fill-rule:nonzero;fill:rgb(34.901961%,34.901961%,34.901961%);fill-opacity:1;" d="M 310.746094 421.324219 L 499.226562 421.324219 L 499.226562 35.246094 L 310.746094 35.246094 Z M 310.746094 421.324219 "/>
<path style=" stroke:none;fill-rule:nonzero;fill:rgb(34.901961%,34.901961%,34.901961%);fill-opacity:1;" d="M 520.167969 421.324219 L 708.648438 421.324219 L 708.648438 228.285156 L 520.167969 228.285156 Z M 520.167969 421.324219 "/>
<path style="fill:none;stroke-width:1.939961;stroke-linecap:butt;stroke-linejoin:round;stroke:rgb(40%,40%,40%);stroke-opacity:1;stroke-miterlimit:10;" d="M 69.910156 440.628906 L 69.910156 15.941406 "/>
<path style=" stroke:none;fill-rule:evenodd;fill:rgb(12.941176%,12.941176%,12.941176%);fill-opacity:1;" d="M 45.433594 416.507812 L 45.746094 416.519531 L 46.042969 416.558594 L 46.324219 416.621094 L 46.585938 416.710938 L 46.835938 416.828125 L 47.066406 416.96875 L 47.285156 417.136719 L 47.484375 417.328125 L 47.671875 417.542969 L 47.839844 417.789062 L 47.996094 418.054688 L 48.136719 418.339844 L 48.257812 418.652344 L 48.363281 418.988281 L 48.457031 419.34375 L 48.527344 419.722656 L 48.585938 420.125 L 48.628906 420.554688 L 48.652344 421.003906 L 48.660156 421.476562 L 48.652344 421.945312 L 48.628906 422.398438 L 48.585938 422.824219 L 48.527344 423.226562 L 48.457031 423.609375 L 48.363281 423.96875 L 48.257812 424.304688 L 48.136719 424.617188 L 47.996094 424.90625 L 47.839844 425.175781 L 47.671875 425.417969 L 47.484375 425.636719 L 47.285156 425.828125 L 47.066406 425.996094 L 46.835938 426.136719 L 46.585938 426.253906 L 46.324219 426.34375 L 46.042969 426.40625 L 45.746094 426.445312 L 45.433594 426.457031 L 45.121094 426.445312 L 44.828125 426.40625 L 44.546875 426.34375 L 44.28125 426.253906 L 44.03125 426.136719 L 43.796875 425.996094 L 43.578125 425.828125 L 43.375 425.636719 L 43.1875 425.417969 L 43.015625 425.175781 L 42.863281 424.90625 L 42.726562 424.617188 L 42.605469 424.304688 L 42.5 423.96875 L 42.410156 423.609375 L 42.339844 423.226562 L 42.28125 422.824219 L 42.242188 422.398438 L 42.21875 421.945312 L 42.210938 421.476562 L 42.21875 421.003906 L 42.242188 420.554688 L 42.28125 420.125 L 42.339844 419.722656 L 42.410156 419.34375 L 42.5 418.988281 L 42.605469 418.652344 L 42.726562 418.339844 L 42.863281 418.054688 L 43.015625 417.789062 L 43.1875 417.542969 L 43.375 417.328125 L 43.578125 417.136719 L 43.796875 416.96875 L 44.03125 416.828125 L 44.28125 416.710938 L 44.546875 416.621094 L 44.828125 416.558594 L 45.121094 416.519531 Z M 45.433594 417.558594 L 45.253906 417.566406 L 45.078125 417.59375 L 44.917969 417.640625 L 44.761719 417.707031 L 44.617188 417.789062 L 44.484375 417.890625 L 44.355469 418.007812 L 44.242188 418.148438 L 44.136719 418.304688 L 44.039062 418.480469 L 43.953125 418.675781 L 43.878906 418.894531 L 43.808594 419.136719 L 43.753906 419.402344 L 43.703125 419.6875 L 43.664062 420 L 43.632812 420.335938 L 43.609375 420.691406 L 43.597656 421.070312 L 43.589844 421.476562 L 43.597656 421.878906 L 43.609375 422.257812 L 43.632812 422.617188 L 43.664062 422.953125 L 43.703125 423.265625 L 43.753906 423.554688 L 43.808594 423.820312 L 43.878906 424.066406 L 43.953125 424.285156 L 44.039062 424.484375 L 44.136719 424.660156 L 44.242188 424.816406 L 44.355469 424.953125 L 44.484375 425.074219 L 44.617188 425.175781 L 44.761719 425.257812 L 44.917969 425.324219 L 45.078125 425.367188 L 45.253906 425.398438 L 45.433594 425.40625 L 45.613281 425.398438 L 45.785156 425.367188 L 45.945312 425.324219 L 46.097656 425.257812 L 46.242188 425.175781 L 46.375 425.074219 L 46.5 424.953125 L 46.613281 424.816406 L 46.71875 424.660156 L 46.816406 424.484375 L 46.90625 424.285156 L 46.984375 424.066406 L 47.050781 423.820312 L 47.113281 423.554688 L 47.164062 423.265625 L 47.203125 422.953125 L 47.238281 422.617188 L 47.257812 422.257812 L 47.273438 421.878906 L 47.277344 421.476562 L 47.273438 421.074219 L 47.257812 420.695312 L 47.238281 420.339844 L 47.203125 420.007812 L 47.164062 419.699219 L 47.113281 419.414062 L 47.050781 419.148438 L 46.984375 418.90625 L 46.90625 418.691406 L 46.816406 418.492188 L 46.71875 418.316406 L 46.613281 418.15625 L 46.5 418.015625 L 46.375 417.894531 L 46.242188 417.792969 L 46.097656 417.707031 L 45.945312 417.640625 L 45.785156 417.59375 L 45.613281 417.566406 Z M 45.433594 417.558594 "/>
<path style=" stroke:none;fill-rule:evenodd;fill:rgb(12.941176%,12.941176%,12.941176%);fill-opacity:1;" d="M 51.167969 424.457031 L 51.25 424.457031 L 51.414062 424.480469 L 51.488281 424.5 L 51.5625 424.527344 L 51.632812 424.558594 L 51.699219 424.597656 L 51.765625 424.640625 L 51.828125 424.6875 L 51.886719 424.742188 L 51.941406 424.800781 L 51.988281 424.863281 L 52.03125 424.929688 L 52.070312 424.996094 L 52.101562 425.0625 L 52.128906 425.136719 L 52.148438 425.210938 L 52.164062 425.289062 L 52.171875 425.367188 L 52.175781 425.449219 L 52.171875 425.53125 L 52.164062 425.613281 L 52.148438 425.6875 L 52.128906 425.765625 L 52.101562 425.839844 L 52.070312 425.910156 L 52.03125 425.976562 L 51.988281 426.042969 L 51.941406 426.109375 L 51.886719 426.167969 L 51.828125 426.222656 L 51.765625 426.273438 L 51.699219 426.316406 L 51.632812 426.351562 L 51.5625 426.386719 L 51.488281 426.410156 L 51.414062 426.429688 L 51.332031 426.445312 L 51.25 426.453125 L 51.167969 426.457031 L 51.082031 426.453125 L 51.003906 426.445312 L 50.925781 426.429688 L 50.851562 426.410156 L 50.78125 426.386719 L 50.710938 426.351562 L 50.644531 426.316406 L 50.582031 426.273438 L 50.519531 426.222656 L 50.460938 426.167969 L 50.40625 426.109375 L 50.355469 426.042969 L 50.3125 425.976562 L 50.277344 425.910156 L 50.246094 425.839844 L 50.21875 425.765625 L 50.199219 425.6875 L 50.183594 425.613281 L 50.175781 425.53125 L 50.171875 425.449219 L 50.175781 425.367188 L 50.183594 425.289062 L 50.199219 425.210938 L 50.21875 425.136719 L 50.246094 425.0625 L 50.277344 424.996094 L 50.3125 424.929688 L 50.355469 424.863281 L 50.40625 424.800781 L 50.460938 424.742188 L 50.519531 424.6875 L 50.582031 424.640625 L 50.644531 424.597656 L 50.710938 424.558594 L 50.78125 424.527344 L 50.851562 424.5 L 50.925781 424.480469 L 51.082031 424.457031 Z M 51.167969 424.457031 "/>
<path style=" stroke:none;fill-rule:evenodd;fill:rgb(12.941176%,12.941176%,12.941176%);fill-opacity:1;" d="M 56.925781 416.507812 L 57.238281 416.519531 L 57.535156 416.558594 L 57.8125 416.621094 L 58.078125 416.710938 L 58.328125 416.828125 L 58.558594 416.96875 L 58.777344 417.136719 L 58.976562 417.328125 L 59.160156 417.542969 L 59.332031 417.789062 L 59.488281 418.054688 L 59.625 418.339844 L 59.75 418.652344 L 59.855469 418.988281 L 59.945312 419.34375 L 60.019531 419.722656 L 60.078125 420.125 L 60.117188 420.554688 L 60.144531 421.003906 L 60.152344 421.476562 L 60.144531 421.945312 L 60.117188 422.398438 L 60.078125 422.824219 L 60.019531 423.226562 L 59.945312 423.609375 L 59.855469 423.96875 L 59.75 424.304688 L 59.625 424.617188 L 59.488281 424.90625 L 59.332031 425.175781 L 59.160156 425.417969 L 58.976562 425.636719 L 58.777344 425.828125 L 58.558594 425.996094 L 58.328125 426.136719 L 58.078125 426.253906 L 57.8125 426.34375 L 57.535156 426.40625 L 57.238281 426.445312 L 56.925781 426.457031 L 56.613281 426.445312 L 56.316406 426.40625 L 56.035156 426.34375 L 55.773438 426.253906 L 55.523438 426.136719 L 55.289062 425.996094 L 55.070312 425.828125 L 54.867188 425.636719 L 54.679688 425.417969 L 54.507812 425.175781 L 54.355469 424.90625 L 54.214844 424.617188 L 54.09375 424.304688 L 53.992188 423.96875 L 53.902344 423.609375 L 53.828125 423.226562 L 53.773438 422.824219 L 53.734375 422.398438 L 53.707031 421.945312 L 53.699219 421.476562 L 53.707031 421.003906 L 53.734375 420.554688 L 53.773438 420.125 L 53.828125 419.722656 L 53.902344 419.34375 L 53.992188 418.988281 L 54.09375 418.652344 L 54.214844 418.339844 L 54.355469 418.054688 L 54.507812 417.789062 L 54.679688 417.542969 L 54.867188 417.328125 L 55.070312 417.136719 L 55.289062 416.96875 L 55.523438 416.828125 L 55.773438 416.710938 L 56.035156 416.621094 L 56.316406 416.558594 L 56.613281 416.519531 Z M 56.925781 417.558594 L 56.742188 417.566406 L 56.570312 417.59375 L 56.40625 417.640625 L 56.253906 417.707031 L 56.109375 417.789062 L 55.972656 417.890625 L 55.847656 418.007812 L 55.734375 418.148438 L 55.625 418.304688 L 55.527344 418.480469 L 55.445312 418.675781 L 55.367188 418.894531 L 55.300781 419.136719 L 55.242188 419.402344 L 55.195312 419.6875 L 55.152344 420 L 55.121094 420.335938 L 55.101562 420.691406 L 55.085938 421.070312 L 55.082031 421.476562 L 55.085938 421.878906 L 55.101562 422.257812 L 55.121094 422.617188 L 55.152344 422.953125 L 55.195312 423.265625 L 55.242188 423.554688 L 55.300781 423.820312 L 55.367188 424.066406 L 55.445312 424.285156 L 55.527344 424.484375 L 55.625 424.660156 L 55.734375 424.816406 L 55.847656 424.953125 L 55.972656 425.074219 L 56.109375 425.175781 L 56.253906 425.257812 L 56.40625 425.324219 L 56.570312 425.367188 L 56.742188 425.398438 L 56.925781 425.40625 L 57.105469 425.398438 L 57.277344 425.367188 L 57.4375 425.324219 L 57.589844 425.257812 L 57.734375 425.175781 L 57.867188 425.074219 L 57.992188 424.953125 L 58.105469 424.816406 L 58.210938 424.660156 L 58.308594 424.484375 L 58.394531 424.285156 L 58.472656 424.066406 L 58.542969 423.820312 L 58.601562 423.554688 L 58.652344 423.265625 L 58.695312 422.953125 L 58.726562 422.617188 L 58.75 422.257812 L 58.765625 421.878906 L 58.769531 421.476562 L 58.765625 421.074219 L 58.75 420.695312 L 58.726562 420.339844 L 58.695312 420.007812 L 58.652344 419.699219 L 58.601562 419.414062 L 58.542969 419.148438 L 58.472656 418.90625 L 58.394531 418.691406 L 58.308594 418.492188 L 58.210938 418.316406 L 58.105469 418.15625 L 57.992188 418.015625 L 57.867188 417.894531 L 57.734375 417.792969 L 57.589844 417.707031 L 57.4375 417.640625 L 57.277344 417.59375 L 57.105469 417.566406 Z M 56.925781 417.558594 "/>
<path style=" stroke:none;fill-rule:evenodd;fill:rgb(12.941176%,12.941176%,12.941176%);fill-opacity:1;" d="M 47.234375 339.289062 L 47.546875 339.304688 L 47.84375 339.34375 L 48.121094 339.40625 L 48.386719 339.496094 L 48.636719 339.609375 L 48.867188 339.753906 L 49.085938 339.917969 L 49.285156 340.109375 L 49.46875 340.328125 L 49.640625 340.574219 L 49.796875 340.835938 L 49.933594 341.125 L 50.058594 341.4375 L 50.164062 341.769531 L 50.253906 342.128906 L 50.328125 342.507812 L 50.386719 342.910156 L 50.425781 343.335938 L 50.453125 343.785156 L 50.460938 344.257812 L 50.453125 344.730469 L 50.425781 345.179688 L 50.386719 345.609375 L 50.328125 346.011719 L 50.253906 346.394531 L 50.164062 346.753906 L 50.058594 347.089844 L 49.933594 347.402344 L 49.796875 347.691406 L 49.640625 347.960938 L 49.46875 348.203125 L 49.285156 348.421875 L 49.085938 348.613281 L 48.867188 348.78125 L 48.636719 348.921875 L 48.386719 349.035156 L 48.121094 349.125 L 47.84375 349.191406 L 47.546875 349.226562 L 47.234375 349.242188 L 46.921875 349.226562 L 46.625 349.191406 L 46.347656 349.125 L 46.082031 349.035156 L 45.832031 348.921875 L 45.597656 348.78125 L 45.378906 348.613281 L 45.175781 348.421875 L 44.988281 348.203125 L 44.816406 347.960938 L 44.664062 347.691406 L 44.523438 347.402344 L 44.40625 347.089844 L 44.300781 346.753906 L 44.210938 346.394531 L 44.136719 346.011719 L 44.082031 345.609375 L 44.042969 345.179688 L 44.015625 344.730469 L 44.007812 344.257812 L 44.015625 343.785156 L 44.042969 343.335938 L 44.082031 342.910156 L 44.136719 342.507812 L 44.210938 342.128906 L 44.300781 341.769531 L 44.40625 341.4375 L 44.523438 341.125 L 44.664062 340.835938 L 44.816406 340.574219 L 44.988281 340.328125 L 45.175781 340.109375 L 45.378906 339.917969 L 45.597656 339.753906 L 45.832031 339.609375 L 46.082031 339.496094 L 46.347656 339.40625 L 46.625 339.34375 L 46.921875 339.304688 Z M 47.234375 340.34375 L 47.050781 340.351562 L 46.878906 340.378906 L 46.714844 340.425781 L 46.5625 340.488281 L 46.417969 340.574219 L 46.28125 340.675781 L 46.15625 340.792969 L 46.042969 340.933594 L 45.933594 341.089844 L 45.839844 341.265625 L 45.753906 341.460938 L 45.675781 341.679688 L 45.609375 341.921875 L 45.550781 342.183594 L 45.503906 342.472656 L 45.464844 342.785156 L 45.433594 343.117188 L 45.410156 343.476562 L 45.394531 343.855469 L 45.390625 344.257812 L 45.394531 344.664062 L 45.410156 345.042969 L 45.433594 345.402344 L 45.464844 345.734375 L 45.503906 346.046875 L 45.550781 346.335938 L 45.609375 346.605469 L 45.675781 346.847656 L 45.753906 347.070312 L 45.839844 347.269531 L 45.933594 347.445312 L 46.042969 347.601562 L 46.15625 347.738281 L 46.28125 347.859375 L 46.417969 347.960938 L 46.5625 348.042969 L 46.714844 348.105469 L 46.878906 348.152344 L 47.050781 348.179688 L 47.234375 348.191406 L 47.414062 348.179688 L 47.585938 348.152344 L 47.746094 348.105469 L 47.898438 348.042969 L 48.042969 347.960938 L 48.175781 347.859375 L 48.300781 347.738281 L 48.414062 347.601562 L 48.519531 347.445312 L 48.617188 347.269531 L 48.703125 347.070312 L 48.78125 346.847656 L 48.851562 346.605469 L 48.914062 346.335938 L 48.960938 346.046875 L 49.003906 345.734375 L 49.035156 345.402344 L 49.058594 345.042969 L 49.074219 344.664062 L 49.078125 344.257812 L 49.074219 343.859375 L 49.058594 343.480469 L 49.035156 343.125 L 49.003906 342.792969 L 48.960938 342.484375 L 48.914062 342.199219 L 48.851562 341.933594 L 48.78125 341.691406 L 48.703125 341.472656 L 48.617188 341.277344 L 48.519531 341.101562 L 48.414062 340.941406 L 48.300781 340.800781 L 48.175781 340.679688 L 48.042969 340.574219 L 47.898438 340.492188 L 47.746094 340.425781 L 47.585938 340.378906 L 47.414062 340.351562 Z M 47.234375 340.34375 "/>
<path style=" stroke:none;fill-rule:evenodd;fill:rgb(12.941176%,12.941176%,12.941176%);fill-opacity:1;" d="M 52.964844 347.238281 L 53.050781 347.242188 L 53.132812 347.25 L 53.210938 347.265625 L 53.289062 347.285156 L 53.363281 347.3125 L 53.433594 347.34375 L 53.5 347.378906 L 53.566406 347.425781 L 53.628906 347.472656 L 53.6875 347.527344 L 53.742188 347.585938 L 53.789062 347.648438 L 53.832031 347.710938 L 53.871094 347.777344 L 53.902344 347.847656 L 53.929688 347.921875 L 53.949219 347.996094 L 53.960938 348.070312 L 53.972656 348.152344 L 53.972656 348.316406 L 53.949219 348.472656 L 53.929688 348.550781 L 53.902344 348.621094 L 53.871094 348.691406 L 53.832031 348.761719 L 53.789062 348.828125 L 53.742188 348.890625 L 53.6875 348.953125 L 53.628906 349.007812 L 53.566406 349.058594 L 53.5 349.101562 L 53.433594 349.136719 L 53.363281 349.167969 L 53.289062 349.195312 L 53.210938 349.214844 L 53.132812 349.230469 L 53.050781 349.238281 L 52.964844 349.242188 L 52.882812 349.238281 L 52.804688 349.230469 L 52.726562 349.214844 L 52.652344 349.195312 L 52.582031 349.167969 L 52.511719 349.136719 L 52.445312 349.101562 L 52.378906 349.058594 L 52.320312 349.007812 L 52.261719 348.953125 L 52.207031 348.890625 L 52.15625 348.828125 L 52.113281 348.761719 L 52.074219 348.691406 L 52.042969 348.621094 L 52.019531 348.550781 L 52 348.472656 L 51.984375 348.394531 L 51.976562 348.316406 L 51.972656 348.234375 L 51.976562 348.152344 L 51.984375 348.070312 L 52 347.996094 L 52.019531 347.921875 L 52.042969 347.847656 L 52.074219 347.777344 L 52.113281 347.710938 L 52.15625 347.648438 L 52.207031 347.585938 L 52.261719 347.527344 L 52.320312 347.472656 L 52.378906 347.425781 L 52.445312 347.378906 L 52.511719 347.34375 L 52.582031 347.3125 L 52.652344 347.285156 L 52.726562 347.265625 L 52.804688 347.25 L 52.882812 347.242188 Z M 52.964844 347.238281 "/>
<path style=" stroke:none;fill-rule:evenodd;fill:rgb(12.941176%,12.941176%,12.941176%);fill-opacity:1;" d="M 59.359375 339.433594 L 59.359375 349.070312 L 58.035156 349.070312 L 58.035156 340.847656 L 55.789062 342.214844 L 55.210938 341.277344 L 58.191406 339.433594 Z M 59.359375 339.433594 "/>
<path style=" stroke:none;fill-rule:evenodd;fill:rgb(12.941176%,12.941176%,12.941176%);fill-opacity:1;" d="M 46.34375 262.074219 L 46.652344 262.085938 L 46.949219 262.125 L 47.230469 262.191406 L 47.492188 262.28125 L 47.742188 262.394531 L 47.976562 262.535156 L 48.191406 262.703125 L 48.394531 262.894531 L 48.578125 263.113281 L 48.746094 263.355469 L 48.902344 263.621094 L 49.042969 263.910156 L 49.164062 264.21875 L 49.273438 264.554688 L 49.363281 264.910156 L 49.4375 265.292969 L 49.492188 265.695312 L 49.535156 266.121094 L 49.558594 266.570312 L 49.566406 267.042969 L 49.558594 267.515625 L 49.535156 267.964844 L 49.492188 268.390625 L 49.4375 268.796875 L 49.363281 269.179688 L 49.273438 269.535156 L 49.164062 269.871094 L 49.042969 270.1875 L 48.902344 270.476562 L 48.746094 270.742188 L 48.578125 270.988281 L 48.394531 271.207031 L 48.191406 271.398438 L 47.976562 271.5625 L 47.742188 271.703125 L 47.492188 271.820312 L 47.230469 271.910156 L 46.949219 271.972656 L 46.652344 272.011719 L 46.34375 272.027344 L 46.03125 272.011719 L 45.734375 271.972656 L 45.453125 271.910156 L 45.1875 271.820312 L 44.9375 271.703125 L 44.703125 271.5625 L 44.484375 271.398438 L 44.28125 271.207031 L 44.09375 270.988281 L 43.921875 270.742188 L 43.769531 270.476562 L 43.632812 270.1875 L 43.511719 269.871094 L 43.40625 269.535156 L 43.316406 269.179688 L 43.246094 268.796875 L 43.1875 268.390625 L 43.148438 267.964844 L 43.125 267.515625 L 43.117188 267.042969 L 43.125 266.570312 L 43.148438 266.121094 L 43.1875 265.695312 L 43.246094 265.292969 L 43.316406 264.910156 L 43.40625 264.554688 L 43.511719 264.21875 L 43.632812 263.910156 L 43.769531 263.621094 L 43.921875 263.355469 L 44.09375 263.113281 L 44.28125 262.894531 L 44.484375 262.703125 L 44.703125 262.535156 L 44.9375 262.394531 L 45.1875 262.28125 L 45.453125 262.191406 L 45.734375 262.125 L 46.03125 262.085938 Z M 46.34375 263.125 L 46.160156 263.136719 L 45.988281 263.164062 L 45.824219 263.210938 L 45.667969 263.273438 L 45.523438 263.355469 L 45.390625 263.457031 L 45.265625 263.578125 L 45.148438 263.714844 L 45.042969 263.871094 L 44.945312 264.046875 L 44.859375 264.242188 L 44.785156 264.460938 L 44.71875 264.703125 L 44.660156 264.96875 L 44.609375 265.257812 L 44.570312 265.570312 L 44.539062 265.902344 L 44.515625 266.257812 L 44.503906 266.640625 L 44.5 267.042969 L 44.503906 267.445312 L 44.515625 267.828125 L 44.539062 268.183594 L 44.570312 268.519531 L 44.609375 268.832031 L 44.660156 269.121094 L 44.71875 269.386719 L 44.785156 269.632812 L 44.859375 269.855469 L 44.945312 270.050781 L 45.042969 270.226562 L 45.148438 270.382812 L 45.265625 270.523438 L 45.390625 270.640625 L 45.523438 270.742188 L 45.667969 270.828125 L 45.824219 270.890625 L 45.988281 270.9375 L 46.160156 270.964844 L 46.34375 270.972656 L 46.523438 270.964844 L 46.691406 270.9375 L 46.855469 270.890625 L 47.003906 270.828125 L 47.148438 270.742188 L 47.28125 270.640625 L 47.40625 270.523438 L 47.523438 270.382812 L 47.628906 270.226562 L 47.722656 270.050781 L 47.8125 269.855469 L 47.890625 269.632812 L 47.960938 269.386719 L 48.019531 269.121094 L 48.070312 268.832031 L 48.113281 268.519531 L 48.144531 268.183594 L 48.167969 267.828125 L 48.179688 267.445312 L 48.183594 267.042969 L 48.179688 266.640625 L 48.167969 266.265625 L 48.144531 265.910156 L 48.113281 265.578125 L 48.070312 265.269531 L 48.019531 264.980469 L 47.960938 264.71875 L 47.890625 264.476562 L 47.8125 264.257812 L 47.722656 264.0625 L 47.628906 263.882812 L 47.523438 263.726562 L 47.40625 263.585938 L 47.28125 263.464844 L 47.148438 263.359375 L 47.003906 263.277344 L 46.855469 263.210938 L 46.691406 263.164062 L 46.523438 263.136719 Z M 46.34375 263.125 "/>
<path style=" stroke:none;fill-rule:evenodd;fill:rgb(12.941176%,12.941176%,12.941176%);fill-opacity:1;" d="M 52.074219 270.023438 L 52.160156 270.027344 L 52.242188 270.035156 L 52.320312 270.050781 L 52.394531 270.070312 L 52.46875 270.097656 L 52.539062 270.128906 L 52.609375 270.164062 L 52.671875 270.207031 L 52.734375 270.257812 L 52.792969 270.3125 L 52.847656 270.371094 L 52.898438 270.433594 L 52.941406 270.496094 L 52.976562 270.5625 L 53.007812 270.632812 L 53.035156 270.703125 L 53.054688 270.777344 L 53.070312 270.855469 L 53.078125 270.933594 L 53.082031 271.015625 L 53.078125 271.101562 L 53.070312 271.179688 L 53.054688 271.257812 L 53.035156 271.332031 L 53.007812 271.40625 L 52.976562 271.476562 L 52.941406 271.546875 L 52.898438 271.613281 L 52.847656 271.675781 L 52.792969 271.738281 L 52.734375 271.792969 L 52.671875 271.839844 L 52.609375 271.882812 L 52.539062 271.921875 L 52.46875 271.953125 L 52.394531 271.980469 L 52.320312 272 L 52.242188 272.015625 L 52.160156 272.023438 L 52.074219 272.027344 L 51.992188 272.023438 L 51.910156 272.015625 L 51.835938 272 L 51.761719 271.980469 L 51.6875 271.953125 L 51.617188 271.921875 L 51.550781 271.882812 L 51.488281 271.839844 L 51.425781 271.792969 L 51.367188 271.738281 L 51.3125 271.675781 L 51.265625 271.613281 L 51.222656 271.546875 L 51.183594 271.476562 L 51.152344 271.40625 L 51.125 271.332031 L 51.105469 271.257812 L 51.089844 271.179688 L 51.082031 271.101562 L 51.078125 271.015625 L 51.082031 270.933594 L 51.089844 270.855469 L 51.105469 270.777344 L 51.125 270.703125 L 51.152344 270.632812 L 51.183594 270.5625 L 51.222656 270.496094 L 51.265625 270.433594 L 51.3125 270.371094 L 51.367188 270.3125 L 51.425781 270.257812 L 51.488281 270.207031 L 51.550781 270.164062 L 51.617188 270.128906 L 51.6875 270.097656 L 51.761719 270.070312 L 51.835938 270.050781 L 51.910156 270.035156 L 51.992188 270.027344 Z M 52.074219 270.023438 "/>
<path style=" stroke:none;fill-rule:evenodd;fill:rgb(12.941176%,12.941176%,12.941176%);fill-opacity:1;" d="M 57.097656 262.074219 L 57.269531 262.078125 L 57.4375 262.089844 L 57.597656 262.105469 L 57.753906 262.128906 L 57.910156 262.160156 L 58.058594 262.199219 L 58.203125 262.246094 L 58.34375 262.296875 L 58.480469 262.355469 L 58.609375 262.421875 L 58.742188 262.492188 L 58.863281 262.570312 L 58.980469 262.652344 L 59.09375 262.738281 L 59.199219 262.832031 L 59.296875 262.929688 L 59.390625 263.03125 L 59.476562 263.140625 L 59.558594 263.253906 L 59.632812 263.371094 L 59.703125 263.492188 L 59.761719 263.613281 L 59.816406 263.738281 L 59.863281 263.867188 L 59.902344 264 L 59.9375 264.136719 L 59.960938 264.273438 L 59.980469 264.417969 L 59.988281 264.5625 L 59.992188 264.710938 L 59.988281 264.886719 L 59.976562 265.058594 L 59.957031 265.230469 L 59.929688 265.402344 L 59.890625 265.570312 L 59.847656 265.738281 L 59.796875 265.90625 L 59.734375 266.070312 L 59.667969 266.234375 L 59.589844 266.394531 L 59.507812 266.558594 L 59.417969 266.722656 L 59.316406 266.890625 L 59.210938 267.0625 L 59.09375 267.234375 L 58.96875 267.410156 L 58.835938 267.585938 L 58.691406 267.769531 L 58.539062 267.953125 L 58.378906 268.136719 L 58.207031 268.332031 L 58.019531 268.542969 L 57.8125 268.765625 L 57.585938 269.003906 L 57.347656 269.257812 L 57.089844 269.523438 L 56.816406 269.808594 L 56.523438 270.105469 L 56.214844 270.417969 L 55.890625 270.742188 L 60.222656 270.742188 L 60.066406 271.851562 L 54.378906 271.851562 L 54.378906 270.800781 L 54.75 270.410156 L 55.105469 270.042969 L 55.433594 269.699219 L 55.742188 269.371094 L 56.027344 269.070312 L 56.289062 268.789062 L 56.527344 268.527344 L 56.746094 268.289062 L 56.941406 268.074219 L 57.113281 267.878906 L 57.269531 267.695312 L 57.417969 267.511719 L 57.554688 267.339844 L 57.683594 267.167969 L 57.804688 267.003906 L 57.914062 266.84375 L 58.015625 266.6875 L 58.109375 266.539062 L 58.191406 266.390625 L 58.265625 266.25 L 58.332031 266.113281 L 58.390625 265.96875 L 58.441406 265.828125 L 58.488281 265.683594 L 58.523438 265.535156 L 58.554688 265.386719 L 58.578125 265.234375 L 58.597656 265.082031 L 58.605469 264.925781 L 58.609375 264.769531 L 58.605469 264.621094 L 58.59375 264.480469 L 58.570312 264.347656 L 58.542969 264.222656 L 58.503906 264.101562 L 58.457031 263.988281 L 58.398438 263.882812 L 58.335938 263.78125 L 58.261719 263.6875 L 58.179688 263.601562 L 58.089844 263.519531 L 57.996094 263.445312 L 57.894531 263.382812 L 57.789062 263.324219 L 57.675781 263.277344 L 57.558594 263.238281 L 57.433594 263.207031 L 57.304688 263.1875 L 57.167969 263.171875 L 57.027344 263.167969 L 56.910156 263.171875 L 56.796875 263.179688 L 56.6875 263.191406 L 56.578125 263.207031 L 56.472656 263.230469 L 56.371094 263.257812 L 56.269531 263.289062 L 56.175781 263.324219 L 56.082031 263.367188 L 55.988281 263.414062 L 55.898438 263.464844 L 55.808594 263.523438 L 55.71875 263.589844 L 55.625 263.660156 L 55.527344 263.738281 L 55.433594 263.820312 L 55.238281 264.007812 L 55.140625 264.113281 L 55.039062 264.21875 L 54.175781 263.53125 L 54.296875 263.386719 L 54.417969 263.25 L 54.542969 263.121094 L 54.667969 263 L 54.796875 262.886719 L 54.929688 262.78125 L 55.066406 262.683594 L 55.203125 262.59375 L 55.34375 262.511719 L 55.484375 262.433594 L 55.632812 262.367188 L 55.78125 262.304688 L 55.933594 262.25 L 56.089844 262.203125 L 56.25 262.164062 L 56.414062 262.132812 L 56.578125 262.109375 L 56.75 262.089844 L 56.921875 262.078125 Z M 57.097656 262.074219 "/>
<path style=" stroke:none;fill-rule:evenodd;fill:rgb(12.941176%,12.941176%,12.941176%);fill-opacity:1;" d="M 46.285156 184.859375 L 46.597656 184.871094 L 46.890625 184.910156 L 47.171875 184.972656 L 47.4375 185.0625 L 47.683594 185.179688 L 47.917969 185.320312 L 48.132812 185.488281 L 48.335938 185.679688 L 48.519531 185.898438 L 48.6875 186.140625 L 48.84375 186.40625 L 48.984375 186.695312 L 49.109375 187.003906 L 49.214844 187.339844 L 49.304688 187.695312 L 49.378906 188.074219 L 49.4375 188.480469 L 49.476562 188.90625 L 49.5 189.355469 L 49.511719 189.828125 L 49.5 190.300781 L 49.476562 190.75 L 49.4375 191.175781 L 49.378906 191.582031 L 49.304688 191.960938 L 49.214844 192.320312 L 49.109375 192.65625 L 48.984375 192.96875 L 48.84375 193.261719 L 48.6875 193.527344 L 48.519531 193.769531 L 48.335938 193.988281 L 48.132812 194.179688 L 47.917969 194.347656 L 47.683594 194.488281 L 47.4375 194.605469 L 47.171875 194.695312 L 46.890625 194.757812 L 46.597656 194.796875 L 46.285156 194.808594 L 45.972656 194.796875 L 45.675781 194.757812 L 45.394531 194.695312 L 45.128906 194.605469 L 44.878906 194.488281 L 44.644531 194.347656 L 44.425781 194.179688 L 44.226562 193.988281 L 44.039062 193.769531 L 43.867188 193.527344 L 43.710938 193.261719 L 43.574219 192.96875 L 43.453125 192.65625 L 43.347656 192.320312 L 43.261719 191.960938 L 43.1875 191.582031 L 43.132812 191.175781 L 43.089844 190.75 L 43.066406 190.300781 L 43.058594 189.828125 L 43.066406 189.355469 L 43.089844 188.90625 L 43.132812 188.480469 L 43.1875 188.074219 L 43.261719 187.695312 L 43.347656 187.339844 L 43.453125 187.003906 L 43.574219 186.695312 L 43.710938 186.40625 L 43.867188 186.140625 L 44.039062 185.898438 L 44.226562 185.679688 L 44.425781 185.488281 L 44.644531 185.320312 L 44.878906 185.179688 L 45.128906 185.0625 L 45.394531 184.972656 L 45.675781 184.910156 L 45.972656 184.871094 Z M 46.285156 185.910156 L 46.101562 185.917969 L 45.929688 185.945312 L 45.765625 185.992188 L 45.613281 186.058594 L 45.46875 186.140625 L 45.332031 186.242188 L 45.207031 186.363281 L 45.089844 186.5 L 44.984375 186.65625 L 44.886719 186.832031 L 44.804688 187.027344 L 44.726562 187.246094 L 44.660156 187.488281 L 44.601562 187.753906 L 44.554688 188.042969 L 44.511719 188.351562 L 44.480469 188.6875 L 44.460938 189.042969 L 44.445312 189.425781 L 44.441406 189.828125 L 44.445312 190.230469 L 44.460938 190.609375 L 44.480469 190.96875 L 44.511719 191.304688 L 44.554688 191.617188 L 44.601562 191.90625 L 44.660156 192.171875 L 44.726562 192.417969 L 44.804688 192.636719 L 44.886719 192.835938 L 44.984375 193.011719 L 45.089844 193.167969 L 45.207031 193.308594 L 45.332031 193.425781 L 45.46875 193.527344 L 45.613281 193.609375 L 45.765625 193.675781 L 45.929688 193.722656 L 46.101562 193.75 L 46.285156 193.757812 L 46.464844 193.75 L 46.632812 193.722656 L 46.796875 193.675781 L 46.949219 193.609375 L 47.089844 193.527344 L 47.222656 193.425781 L 47.347656 193.308594 L 47.464844 193.167969 L 47.570312 193.011719 L 47.667969 192.835938 L 47.753906 192.636719 L 47.832031 192.417969 L 47.902344 192.171875 L 47.960938 191.90625 L 48.011719 191.617188 L 48.054688 191.304688 L 48.085938 190.96875 L 48.109375 190.609375 L 48.125 190.230469 L 48.128906 189.828125 L 48.125 189.425781 L 48.109375 189.050781 L 48.085938 188.695312 L 48.054688 188.363281 L 48.011719 188.050781 L 47.960938 187.765625 L 47.902344 187.5 L 47.832031 187.261719 L 47.753906 187.042969 L 47.667969 186.847656 L 47.570312 186.667969 L 47.464844 186.507812 L 47.347656 186.367188 L 47.222656 186.246094 L 47.089844 186.144531 L 46.949219 186.058594 L 46.796875 185.996094 L 46.632812 185.949219 L 46.464844 185.917969 Z M 46.285156 185.910156 "/>
<path style=" stroke:none;fill-rule:evenodd;fill:rgb(12.941176%,12.941176%,12.941176%);fill-opacity:1;" d="M 52.015625 192.808594 L 52.101562 192.8125 L 52.183594 192.820312 L 52.261719 192.832031 L 52.339844 192.855469 L 52.410156 192.878906 L 52.480469 192.910156 L 52.550781 192.949219 L 52.613281 192.992188 L 52.675781 193.042969 L 52.734375 193.097656 L 52.789062 193.15625 L 52.839844 193.214844 L 52.882812 193.28125 L 52.921875 193.347656 L 52.953125 193.417969 L 52.976562 193.488281 L 52.996094 193.5625 L 53.011719 193.640625 L 53.019531 193.71875 L 53.023438 193.800781 L 53.019531 193.882812 L 53.011719 193.964844 L 52.996094 194.042969 L 52.976562 194.117188 L 52.953125 194.191406 L 52.921875 194.261719 L 52.882812 194.328125 L 52.839844 194.394531 L 52.789062 194.460938 L 52.734375 194.523438 L 52.675781 194.578125 L 52.613281 194.625 L 52.550781 194.667969 L 52.480469 194.707031 L 52.410156 194.738281 L 52.339844 194.761719 L 52.261719 194.785156 L 52.183594 194.796875 L 52.101562 194.808594 L 51.933594 194.808594 L 51.777344 194.785156 L 51.628906 194.738281 L 51.5625 194.707031 L 51.496094 194.667969 L 51.429688 194.625 L 51.367188 194.578125 L 51.308594 194.523438 L 51.253906 194.460938 L 51.207031 194.394531 L 51.164062 194.328125 L 51.125 194.261719 L 51.09375 194.191406 L 51.066406 194.117188 L 51.046875 194.042969 L 51.035156 193.964844 L 51.023438 193.882812 L 51.023438 193.71875 L 51.046875 193.5625 L 51.066406 193.488281 L 51.09375 193.417969 L 51.125 193.347656 L 51.164062 193.28125 L 51.207031 193.214844 L 51.253906 193.15625 L 51.308594 193.097656 L 51.367188 193.042969 L 51.429688 192.992188 L 51.496094 192.949219 L 51.5625 192.910156 L 51.628906 192.878906 L 51.777344 192.832031 L 51.855469 192.820312 L 51.933594 192.8125 Z M 52.015625 192.808594 "/>
<path style=" stroke:none;fill-rule:evenodd;fill:rgb(12.941176%,12.941176%,12.941176%);fill-opacity:1;" d="M 57 184.859375 L 57.175781 184.863281 L 57.34375 184.871094 L 57.511719 184.890625 L 57.671875 184.914062 L 57.824219 184.941406 L 57.976562 184.976562 L 58.121094 185.019531 L 58.261719 185.070312 L 58.394531 185.128906 L 58.523438 185.191406 L 58.652344 185.257812 L 58.769531 185.332031 L 58.882812 185.410156 L 58.992188 185.492188 L 59.09375 185.578125 L 59.1875 185.671875 L 59.277344 185.765625 L 59.359375 185.867188 L 59.433594 185.972656 L 59.503906 186.082031 L 59.570312 186.195312 L 59.628906 186.3125 L 59.679688 186.429688 L 59.726562 186.546875 L 59.761719 186.671875 L 59.792969 186.792969 L 59.816406 186.917969 L 59.835938 187.046875 L 59.847656 187.175781 L 59.847656 187.308594 L 59.84375 187.480469 L 59.828125 187.644531 L 59.800781 187.808594 L 59.765625 187.960938 L 59.71875 188.109375 L 59.664062 188.253906 L 59.59375 188.390625 L 59.515625 188.519531 L 59.429688 188.644531 L 59.332031 188.761719 L 59.226562 188.871094 L 59.117188 188.972656 L 58.996094 189.066406 L 58.871094 189.152344 L 58.742188 189.234375 L 58.601562 189.304688 L 58.457031 189.371094 L 58.304688 189.429688 L 58.144531 189.480469 L 57.976562 189.523438 L 58.167969 189.546875 L 58.347656 189.578125 L 58.523438 189.625 L 58.691406 189.675781 L 58.851562 189.742188 L 59.003906 189.816406 L 59.152344 189.898438 L 59.289062 189.996094 L 59.421875 190.101562 L 59.546875 190.214844 L 59.660156 190.339844 L 59.765625 190.476562 L 59.855469 190.617188 L 59.933594 190.769531 L 60 190.929688 L 60.054688 191.097656 L 60.097656 191.273438 L 60.128906 191.460938 L 60.144531 191.65625 L 60.152344 191.859375 L 60.148438 192.023438 L 60.136719 192.183594 L 60.117188 192.34375 L 60.085938 192.5 L 60.050781 192.652344 L 60.007812 192.804688 L 59.953125 192.949219 L 59.894531 193.09375 L 59.824219 193.234375 L 59.75 193.371094 L 59.664062 193.503906 L 59.574219 193.628906 L 59.476562 193.75 L 59.371094 193.863281 L 59.257812 193.972656 L 59.140625 194.078125 L 59.015625 194.175781 L 58.882812 194.269531 L 58.742188 194.355469 L 58.597656 194.433594 L 58.445312 194.507812 L 58.289062 194.570312 L 58.125 194.625 L 57.960938 194.675781 L 57.789062 194.714844 L 57.613281 194.75 L 57.433594 194.777344 L 57.25 194.792969 L 57.0625 194.804688 L 56.867188 194.808594 L 56.695312 194.804688 L 56.523438 194.796875 L 56.355469 194.78125 L 56.1875 194.757812 L 56.027344 194.730469 L 55.867188 194.695312 L 55.710938 194.65625 L 55.554688 194.605469 L 55.402344 194.554688 L 55.253906 194.492188 L 55.109375 194.421875 L 54.96875 194.347656 L 54.832031 194.265625 L 54.699219 194.175781 L 54.566406 194.082031 L 54.441406 193.980469 L 54.320312 193.875 L 54.199219 193.761719 L 54.085938 193.640625 L 53.972656 193.511719 L 54.765625 192.777344 L 54.859375 192.875 L 54.957031 192.964844 L 55.050781 193.050781 L 55.148438 193.128906 L 55.246094 193.203125 L 55.339844 193.273438 L 55.535156 193.398438 L 55.730469 193.5 L 55.832031 193.542969 L 55.9375 193.582031 L 56.042969 193.617188 L 56.148438 193.648438 L 56.257812 193.671875 L 56.367188 193.691406 L 56.480469 193.707031 L 56.59375 193.71875 L 56.707031 193.726562 L 56.824219 193.730469 L 57.003906 193.722656 L 57.171875 193.710938 L 57.335938 193.683594 L 57.488281 193.648438 L 57.636719 193.605469 L 57.773438 193.546875 L 57.90625 193.484375 L 58.027344 193.40625 L 58.144531 193.320312 L 58.25 193.226562 L 58.347656 193.117188 L 58.4375 193.003906 L 58.515625 192.882812 L 58.582031 192.753906 L 58.640625 192.621094 L 58.6875 192.480469 L 58.722656 192.332031 L 58.75 192.175781 L 58.765625 192.011719 L 58.769531 191.84375 L 58.765625 191.660156 L 58.75 191.484375 L 58.726562 191.324219 L 58.691406 191.171875 L 58.648438 191.03125 L 58.59375 190.90625 L 58.53125 190.789062 L 58.457031 190.683594 L 58.371094 190.585938 L 58.28125 190.503906 L 58.175781 190.429688 L 58.066406 190.363281 L 57.945312 190.304688 L 57.816406 190.253906 L 57.679688 190.210938 L 57.53125 190.175781 L 57.375 190.148438 L 57.210938 190.128906 L 57.035156 190.117188 L 56.855469 190.113281 L 56.132812 190.113281 L 56.292969 189.09375 L 56.78125 189.09375 L 56.929688 189.089844 L 57.070312 189.074219 L 57.207031 189.050781 L 57.339844 189.019531 L 57.464844 188.980469 L 57.585938 188.933594 L 57.703125 188.875 L 57.8125 188.808594 L 57.921875 188.730469 L 58.019531 188.644531 L 58.117188 188.554688 L 58.203125 188.453125 L 58.277344 188.347656 L 58.34375 188.230469 L 58.398438 188.109375 L 58.445312 187.980469 L 58.480469 187.84375 L 58.503906 187.703125 L 58.519531 187.550781 L 58.523438 187.394531 L 58.519531 187.261719 L 58.507812 187.132812 L 58.484375 187.011719 L 58.457031 186.898438 L 58.417969 186.789062 L 58.367188 186.683594 L 58.3125 186.585938 L 58.246094 186.496094 L 58.175781 186.410156 L 58.09375 186.328125 L 58.003906 186.25 L 57.90625 186.183594 L 57.804688 186.121094 L 57.699219 186.070312 L 57.585938 186.027344 L 57.464844 185.988281 L 57.339844 185.960938 L 57.207031 185.941406 L 57.070312 185.929688 L 56.925781 185.925781 L 56.816406 185.925781 L 56.703125 185.933594 L 56.597656 185.941406 L 56.492188 185.957031 L 56.386719 185.976562 L 56.285156 185.996094 L 56.183594 186.023438 L 56.082031 186.054688 L 55.984375 186.089844 L 55.890625 186.125 L 55.796875 186.167969 L 55.609375 186.269531 L 55.515625 186.328125 L 55.421875 186.394531 L 55.324219 186.460938 L 55.230469 186.535156 L 55.132812 186.613281 L 55.035156 186.699219 L 54.9375 186.789062 L 54.246094 185.996094 L 54.496094 185.78125 L 54.75 185.585938 L 55.007812 185.417969 L 55.273438 185.269531 L 55.546875 185.144531 L 55.824219 185.042969 L 56.109375 184.960938 L 56.398438 184.90625 L 56.695312 184.871094 Z M 57 184.859375 "/>
<path style=" stroke:none;fill-rule:evenodd;fill:rgb(12.941176%,12.941176%,12.941176%);fill-opacity:1;" d="M 45.808594 107.644531 L 46.121094 107.65625 L 46.417969 107.695312 L 46.695312 107.757812 L 46.960938 107.847656 L 47.210938 107.964844 L 47.441406 108.105469 L 47.660156 108.269531 L 47.859375 108.464844 L 48.042969 108.679688 L 48.214844 108.925781 L 48.371094 109.191406 L 48.507812 109.476562 L 48.632812 109.789062 L 48.738281 110.121094 L 48.828125 110.480469 L 48.902344 110.859375 L 48.960938 111.261719 L 49.003906 111.691406 L 49.027344 112.140625 L 49.035156 112.609375 L 49.027344 113.082031 L 49.003906 113.535156 L 48.960938 113.960938 L 48.902344 114.363281 L 48.828125 114.746094 L 48.738281 115.105469 L 48.632812 115.441406 L 48.507812 115.753906 L 48.371094 116.042969 L 48.214844 116.3125 L 48.042969 116.554688 L 47.859375 116.773438 L 47.660156 116.964844 L 47.441406 117.132812 L 47.210938 117.273438 L 46.960938 117.386719 L 46.695312 117.476562 L 46.417969 117.542969 L 46.121094 117.582031 L 45.808594 117.59375 L 45.496094 117.582031 L 45.199219 117.542969 L 44.921875 117.476562 L 44.65625 117.386719 L 44.40625 117.273438 L 44.171875 117.132812 L 43.953125 116.964844 L 43.75 116.773438 L 43.5625 116.554688 L 43.390625 116.3125 L 43.238281 116.042969 L 43.101562 115.753906 L 42.980469 115.441406 L 42.875 115.105469 L 42.785156 114.746094 L 42.710938 114.363281 L 42.65625 113.960938 L 42.617188 113.535156 L 42.589844 113.082031 L 42.582031 112.609375 L 42.589844 112.140625 L 42.617188 111.691406 L 42.65625 111.261719 L 42.710938 110.859375 L 42.785156 110.480469 L 42.875 110.121094 L 42.980469 109.789062 L 43.101562 109.476562 L 43.238281 109.191406 L 43.390625 108.925781 L 43.5625 108.679688 L 43.75 108.464844 L 43.953125 108.269531 L 44.171875 108.105469 L 44.40625 107.964844 L 44.65625 107.847656 L 44.921875 107.757812 L 45.199219 107.695312 L 45.496094 107.65625 Z M 45.808594 108.695312 L 45.625 108.703125 L 45.453125 108.730469 L 45.289062 108.777344 L 45.136719 108.84375 L 44.992188 108.925781 L 44.855469 109.027344 L 44.730469 109.144531 L 44.617188 109.285156 L 44.507812 109.441406 L 44.414062 109.617188 L 44.328125 109.8125 L 44.25 110.03125 L 44.183594 110.273438 L 44.125 110.539062 L 44.078125 110.824219 L 44.039062 111.136719 L 44.007812 111.472656 L 43.984375 111.828125 L 43.96875 112.207031 L 43.964844 112.609375 L 43.96875 113.015625 L 43.984375 113.394531 L 44.007812 113.753906 L 44.039062 114.089844 L 44.078125 114.402344 L 44.125 114.691406 L 44.183594 114.957031 L 44.25 115.199219 L 44.328125 115.421875 L 44.414062 115.621094 L 44.507812 115.796875 L 44.617188 115.953125 L 44.730469 116.089844 L 44.855469 116.210938 L 44.992188 116.3125 L 45.136719 116.394531 L 45.289062 116.460938 L 45.453125 116.503906 L 45.625 116.535156 L 45.808594 116.542969 L 45.988281 116.535156 L 46.160156 116.503906 L 46.320312 116.460938 L 46.472656 116.394531 L 46.617188 116.3125 L 46.75 116.210938 L 46.875 116.089844 L 46.988281 115.953125 L 47.09375 115.796875 L 47.191406 115.621094 L 47.277344 115.421875 L 47.359375 115.199219 L 47.425781 114.957031 L 47.488281 114.691406 L 47.539062 114.402344 L 47.578125 114.089844 L 47.609375 113.753906 L 47.632812 113.394531 L 47.648438 113.015625 L 47.652344 112.609375 L 47.648438 112.210938 L 47.632812 111.832031 L 47.609375 111.476562 L 47.578125 111.144531 L 47.539062 110.835938 L 47.488281 110.550781 L 47.425781 110.285156 L 47.359375 110.042969 L 47.277344 109.824219 L 47.191406 109.628906 L 47.09375 109.453125 L 46.988281 109.292969 L 46.875 109.152344 L 46.75 109.03125 L 46.617188 108.929688 L 46.472656 108.84375 L 46.320312 108.777344 L 46.160156 108.730469 L 45.988281 108.703125 Z M 45.808594 108.695312 "/>
<path style=" stroke:none;fill-rule:evenodd;fill:rgb(12.941176%,12.941176%,12.941176%);fill-opacity:1;" d="M 51.539062 115.59375 L 51.625 115.59375 L 51.707031 115.605469 L 51.785156 115.617188 L 51.863281 115.636719 L 51.9375 115.664062 L 52.007812 115.695312 L 52.074219 115.734375 L 52.140625 115.777344 L 52.203125 115.824219 L 52.261719 115.878906 L 52.316406 115.9375 L 52.363281 116 L 52.40625 116.066406 L 52.445312 116.132812 L 52.476562 116.199219 L 52.503906 116.273438 L 52.523438 116.347656 L 52.535156 116.421875 L 52.546875 116.503906 L 52.546875 116.667969 L 52.535156 116.75 L 52.523438 116.824219 L 52.503906 116.902344 L 52.476562 116.972656 L 52.445312 117.046875 L 52.40625 117.113281 L 52.363281 117.179688 L 52.316406 117.242188 L 52.261719 117.304688 L 52.203125 117.359375 L 52.140625 117.410156 L 52.074219 117.453125 L 52.007812 117.488281 L 51.9375 117.523438 L 51.863281 117.546875 L 51.785156 117.566406 L 51.707031 117.582031 L 51.625 117.589844 L 51.539062 117.59375 L 51.457031 117.589844 L 51.378906 117.582031 L 51.300781 117.566406 L 51.226562 117.546875 L 51.15625 117.523438 L 51.085938 117.488281 L 51.019531 117.453125 L 50.957031 117.410156 L 50.894531 117.359375 L 50.835938 117.304688 L 50.78125 117.242188 L 50.730469 117.179688 L 50.6875 117.113281 L 50.652344 117.046875 L 50.617188 116.972656 L 50.59375 116.902344 L 50.574219 116.824219 L 50.558594 116.75 L 50.550781 116.667969 L 50.546875 116.585938 L 50.550781 116.503906 L 50.558594 116.421875 L 50.574219 116.347656 L 50.59375 116.273438 L 50.617188 116.199219 L 50.6875 116.066406 L 50.730469 116 L 50.78125 115.9375 L 50.835938 115.878906 L 50.894531 115.824219 L 50.957031 115.777344 L 51.019531 115.734375 L 51.085938 115.695312 L 51.15625 115.664062 L 51.226562 115.636719 L 51.300781 115.617188 L 51.457031 115.59375 Z M 51.539062 115.59375 "/>
<path style=" stroke:none;fill-rule:evenodd;fill:rgb(12.941176%,12.941176%,12.941176%);fill-opacity:1;" d="M 60.511719 113.992188 L 60.511719 115.042969 L 59.257812 115.042969 L 59.257812 117.421875 L 57.976562 117.421875 L 57.976562 115.042969 L 53.859375 115.042969 L 53.859375 114.09375 L 56.753906 107.644531 L 57.863281 108.105469 L 55.253906 113.992188 L 57.992188 113.992188 L 58.105469 111.402344 L 59.257812 111.402344 L 59.257812 113.992188 Z M 60.511719 113.992188 "/>
<path style=" stroke:none;fill-rule:evenodd;fill:rgb(12.941176%,12.941176%,12.941176%);fill-opacity:1;" d="M 46.253906 30.425781 L 46.566406 30.441406 L 46.863281 30.480469 L 47.144531 30.542969 L 47.40625 30.632812 L 47.65625 30.746094 L 47.886719 30.890625 L 48.105469 31.054688 L 48.304688 31.246094 L 48.492188 31.464844 L 48.660156 31.710938 L 48.816406 31.972656 L 48.957031 32.261719 L 49.078125 32.574219 L 49.1875 32.90625 L 49.277344 33.265625 L 49.351562 33.644531 L 49.40625 34.046875 L 49.449219 34.472656 L 49.472656 34.921875 L 49.480469 35.394531 L 49.472656 35.867188 L 49.449219 36.316406 L 49.40625 36.746094 L 49.351562 37.148438 L 49.277344 37.53125 L 49.1875 37.890625 L 49.078125 38.226562 L 48.957031 38.539062 L 48.816406 38.828125 L 48.660156 39.097656 L 48.492188 39.339844 L 48.304688 39.558594 L 48.105469 39.75 L 47.886719 39.917969 L 47.65625 40.058594 L 47.40625 40.171875 L 47.144531 40.261719 L 46.863281 40.328125 L 46.566406 40.363281 L 46.253906 40.378906 L 45.945312 40.363281 L 45.648438 40.328125 L 45.367188 40.261719 L 45.101562 40.171875 L 44.851562 40.058594 L 44.617188 39.917969 L 44.398438 39.75 L 44.195312 39.558594 L 44.007812 39.339844 L 43.835938 39.097656 L 43.683594 38.828125 L 43.546875 38.539062 L 43.425781 38.226562 L 43.320312 37.890625 L 43.230469 37.53125 L 43.160156 37.148438 L 43.101562 36.746094 L 43.0625 36.316406 L 43.039062 35.867188 L 43.03125 35.394531 L 43.039062 34.921875 L 43.0625 34.472656 L 43.101562 34.046875 L 43.160156 33.644531 L 43.230469 33.265625 L 43.320312 32.90625 L 43.425781 32.574219 L 43.546875 32.261719 L 43.683594 31.972656 L 43.835938 31.710938 L 44.007812 31.464844 L 44.195312 31.246094 L 44.398438 31.054688 L 44.617188 30.890625 L 44.851562 30.746094 L 45.101562 30.632812 L 45.367188 30.542969 L 45.648438 30.480469 L 45.945312 30.441406 Z M 46.253906 31.480469 L 46.074219 31.488281 L 45.898438 31.515625 L 45.738281 31.5625 L 45.582031 31.625 L 45.4375 31.710938 L 45.304688 31.808594 L 45.179688 31.929688 L 45.0625 32.070312 L 44.957031 32.226562 L 44.859375 32.398438 L 44.773438 32.597656 L 44.699219 32.816406 L 44.632812 33.058594 L 44.574219 33.320312 L 44.523438 33.609375 L 44.484375 33.921875 L 44.453125 34.253906 L 44.429688 34.613281 L 44.417969 34.992188 L 44.414062 35.394531 L 44.417969 35.796875 L 44.429688 36.179688 L 44.453125 36.539062 L 44.484375 36.871094 L 44.523438 37.183594 L 44.574219 37.472656 L 44.632812 37.742188 L 44.699219 37.984375 L 44.773438 38.207031 L 44.859375 38.40625 L 44.957031 38.582031 L 45.0625 38.738281 L 45.179688 38.875 L 45.304688 38.996094 L 45.4375 39.097656 L 45.582031 39.179688 L 45.738281 39.242188 L 45.898438 39.289062 L 46.074219 39.316406 L 46.253906 39.328125 L 46.433594 39.316406 L 46.605469 39.289062 L 46.765625 39.242188 L 46.917969 39.179688 L 47.0625 39.097656 L 47.195312 38.996094 L 47.320312 38.875 L 47.433594 38.738281 L 47.542969 38.582031 L 47.636719 38.40625 L 47.726562 38.207031 L 47.804688 37.984375 L 47.875 37.742188 L 47.933594 37.472656 L 47.984375 37.183594 L 48.023438 36.871094 L 48.058594 36.539062 L 48.082031 36.179688 L 48.09375 35.796875 L 48.097656 35.394531 L 48.09375 34.996094 L 48.082031 34.617188 L 48.058594 34.261719 L 48.023438 33.929688 L 47.984375 33.621094 L 47.933594 33.332031 L 47.875 33.070312 L 47.804688 32.828125 L 47.726562 32.609375 L 47.636719 32.414062 L 47.542969 32.238281 L 47.433594 32.078125 L 47.320312 31.9375 L 47.195312 31.816406 L 47.0625 31.710938 L 46.917969 31.628906 L 46.765625 31.5625 L 46.605469 31.515625 L 46.433594 31.488281 Z M 46.253906 31.480469 "/>
<path style=" stroke:none;fill-rule:evenodd;fill:rgb(12.941176%,12.941176%,12.941176%);fill-opacity:1;" d="M 51.988281 38.375 L 52.070312 38.378906 L 52.152344 38.386719 L 52.234375 38.402344 L 52.308594 38.421875 L 52.382812 38.449219 L 52.453125 38.480469 L 52.519531 38.515625 L 52.585938 38.558594 L 52.648438 38.609375 L 52.707031 38.664062 L 52.761719 38.722656 L 52.855469 38.847656 L 52.890625 38.914062 L 52.921875 38.984375 L 52.949219 39.054688 L 52.96875 39.132812 L 52.984375 39.207031 L 52.992188 39.289062 L 52.996094 39.371094 L 52.992188 39.453125 L 52.984375 39.53125 L 52.96875 39.609375 L 52.949219 39.683594 L 52.921875 39.757812 L 52.890625 39.828125 L 52.855469 39.898438 L 52.808594 39.964844 L 52.761719 40.027344 L 52.707031 40.089844 L 52.648438 40.144531 L 52.585938 40.195312 L 52.519531 40.238281 L 52.453125 40.273438 L 52.382812 40.304688 L 52.308594 40.332031 L 52.234375 40.351562 L 52.152344 40.367188 L 52.070312 40.375 L 51.988281 40.378906 L 51.90625 40.375 L 51.824219 40.367188 L 51.746094 40.351562 L 51.671875 40.332031 L 51.601562 40.304688 L 51.53125 40.273438 L 51.464844 40.238281 L 51.402344 40.195312 L 51.339844 40.144531 L 51.28125 40.089844 L 51.226562 40.027344 L 51.175781 39.964844 L 51.132812 39.898438 L 51.097656 39.828125 L 51.066406 39.757812 L 51.039062 39.683594 L 51.019531 39.609375 L 51.003906 39.53125 L 50.996094 39.453125 L 50.992188 39.371094 L 50.996094 39.289062 L 51.003906 39.207031 L 51.019531 39.132812 L 51.039062 39.054688 L 51.066406 38.984375 L 51.097656 38.914062 L 51.132812 38.847656 L 51.175781 38.785156 L 51.226562 38.722656 L 51.28125 38.664062 L 51.339844 38.609375 L 51.402344 38.558594 L 51.464844 38.515625 L 51.53125 38.480469 L 51.601562 38.449219 L 51.671875 38.421875 L 51.746094 38.402344 L 51.824219 38.386719 L 51.90625 38.378906 Z M 51.988281 38.375 "/>
<path style=" stroke:none;fill-rule:evenodd;fill:rgb(12.941176%,12.941176%,12.941176%);fill-opacity:1;" d="M 59.777344 31.609375 L 56.019531 31.609375 L 56.019531 34.445312 L 56.167969 34.375 L 56.316406 34.308594 L 56.464844 34.253906 L 56.617188 34.207031 L 56.769531 34.164062 L 56.925781 34.128906 L 57.082031 34.105469 L 57.238281 34.085938 L 57.398438 34.074219 L 57.558594 34.070312 L 57.800781 34.078125 L 58.035156 34.101562 L 58.257812 34.144531 L 58.472656 34.203125 L 58.675781 34.277344 L 58.871094 34.367188 L 59.054688 34.472656 L 59.226562 34.597656 L 59.390625 34.734375 L 59.546875 34.890625 L 59.6875 35.058594 L 59.816406 35.238281 L 59.929688 35.429688 L 60.027344 35.636719 L 60.109375 35.851562 L 60.175781 36.082031 L 60.226562 36.324219 L 60.265625 36.578125 L 60.289062 36.84375 L 60.296875 37.125 L 60.292969 37.3125 L 60.277344 37.496094 L 60.257812 37.675781 L 60.230469 37.851562 L 60.191406 38.023438 L 60.144531 38.191406 L 60.089844 38.355469 L 60.027344 38.515625 L 59.957031 38.671875 L 59.878906 38.824219 L 59.792969 38.964844 L 59.695312 39.105469 L 59.597656 39.234375 L 59.488281 39.359375 L 59.375 39.476562 L 59.253906 39.589844 L 59.125 39.695312 L 58.988281 39.792969 L 58.847656 39.886719 L 58.695312 39.972656 L 58.546875 40.050781 L 58.386719 40.121094 L 58.226562 40.179688 L 58.058594 40.234375 L 57.886719 40.277344 L 57.710938 40.3125 L 57.527344 40.339844 L 57.34375 40.363281 L 57.152344 40.375 L 56.953125 40.378906 L 56.78125 40.375 L 56.609375 40.367188 L 56.445312 40.351562 L 56.28125 40.328125 L 56.125 40.300781 L 55.96875 40.269531 L 55.816406 40.230469 L 55.667969 40.183594 L 55.523438 40.132812 L 55.386719 40.074219 L 55.246094 40.007812 L 55.113281 39.9375 L 54.980469 39.859375 L 54.847656 39.777344 L 54.71875 39.6875 L 54.46875 39.492188 L 54.34375 39.382812 L 54.222656 39.273438 L 54.105469 39.152344 L 54.882812 38.390625 L 54.972656 38.480469 L 55.066406 38.566406 L 55.253906 38.722656 L 55.347656 38.792969 L 55.445312 38.859375 L 55.539062 38.921875 L 55.636719 38.980469 L 55.734375 39.035156 L 55.832031 39.082031 L 55.929688 39.121094 L 56.03125 39.160156 L 56.136719 39.191406 L 56.242188 39.21875 L 56.355469 39.242188 L 56.464844 39.261719 L 56.582031 39.277344 L 56.699219 39.289062 L 56.816406 39.296875 L 56.941406 39.296875 L 57.121094 39.292969 L 57.292969 39.273438 L 57.457031 39.246094 L 57.613281 39.207031 L 57.761719 39.152344 L 57.902344 39.089844 L 58.03125 39.015625 L 58.15625 38.929688 L 58.273438 38.832031 L 58.378906 38.722656 L 58.480469 38.601562 L 58.574219 38.472656 L 58.652344 38.332031 L 58.722656 38.183594 L 58.78125 38.027344 L 58.828125 37.859375 L 58.867188 37.683594 L 58.890625 37.496094 L 58.90625 37.300781 L 58.914062 37.09375 L 58.910156 36.890625 L 58.894531 36.695312 L 58.871094 36.515625 L 58.835938 36.347656 L 58.792969 36.1875 L 58.742188 36.039062 L 58.679688 35.90625 L 58.609375 35.78125 L 58.527344 35.667969 L 58.4375 35.566406 L 58.339844 35.476562 L 58.234375 35.398438 L 58.125 35.324219 L 58.003906 35.265625 L 57.878906 35.210938 L 57.75 35.167969 L 57.609375 35.136719 L 57.464844 35.113281 L 57.3125 35.097656 L 57.15625 35.09375 L 57.082031 35.09375 L 57.007812 35.097656 L 56.867188 35.105469 L 56.796875 35.113281 L 56.726562 35.125 L 56.59375 35.148438 L 56.527344 35.164062 L 56.402344 35.195312 L 56.335938 35.210938 L 56.269531 35.230469 L 56.070312 35.300781 L 56 35.328125 L 55.859375 35.390625 L 55.789062 35.425781 L 54.75 35.425781 L 54.75 30.570312 L 59.964844 30.570312 Z M 59.777344 31.609375 "/>
<path style="fill:none;stroke-width:1.939961;stroke-linecap:butt;stroke-linejoin:round;stroke:rgb(20%,20%,20%);stroke-opacity:1;stroke-miterlimit:10;" d="M 64.929688 421.324219 L 69.910156 421.324219 "/>
<path style="fill:none;stroke-width:1.939961;stroke-linecap:butt;stroke-linejoin:round;stroke:rgb(20%,20%,20%);stroke-opacity:1;stroke-miterlimit:10;" d="M 64.929688 344.109375 L 69.910156 344.109375 "/>
<path style="fill:none;stroke-width:1.939961;stroke-linecap:butt;stroke-linejoin:round;stroke:rgb(20%,20%,20%);stroke-opacity:1;stroke-miterlimit:10;" d="M 64.929688 266.890625 L 69.910156 266.890625 "/>
<path style="fill:none;stroke-width:1.939961;stroke-linecap:butt;stroke-linejoin:round;stroke:rgb(20%,20%,20%);stroke-opacity:1;stroke-miterlimit:10;" d="M 64.929688 189.675781 L 69.910156 189.675781 "/>
<path style="fill:none;stroke-width:1.939961;stroke-linecap:butt;stroke-linejoin:round;stroke:rgb(20%,20%,20%);stroke-opacity:1;stroke-miterlimit:10;" d="M 64.929688 112.460938 L 69.910156 112.460938 "/>
<path style="fill:none;stroke-width:1.939961;stroke-linecap:butt;stroke-linejoin:round;stroke:rgb(20%,20%,20%);stroke-opacity:1;stroke-miterlimit:10;" d="M 64.929688 35.246094 L 69.910156 35.246094 "/>
<path style="fill:none;stroke-width:1.939961;stroke-linecap:butt;stroke-linejoin:round;stroke:rgb(40%,40%,40%);stroke-opacity:1;stroke-miterlimit:10;" d="M 69.910156 440.628906 L 740.058594 440.628906 "/>
<path style="fill:none;stroke-width:1.939961;stroke-linecap:butt;stroke-linejoin:round;stroke:rgb(20%,20%,20%);stroke-opacity:1;stroke-miterlimit:10;" d="M 195.5625 445.609375 L 195.5625 440.628906 "/>
<path style="fill:none;stroke-width:1.939961;stroke-linecap:butt;stroke-linejoin:round;stroke:rgb(20%,20%,20%);stroke-opacity:1;stroke-miterlimit:10;" d="M 404.984375 445.609375 L 404.984375 440.628906 "/>
<path style="fill:none;stroke-width:1.939961;stroke-linecap:butt;stroke-linejoin:round;stroke:rgb(20%,20%,20%);stroke-opacity:1;stroke-miterlimit:10;" d="M 614.40625 445.609375 L 614.40625 440.628906 "/>
<path style=" stroke:none;fill-rule:evenodd;fill:rgb(12.941176%,12.941176%,12.941176%);fill-opacity:1;" d="M 195.5625 449.738281 L 195.875 449.75 L 196.171875 449.789062 L 196.449219 449.851562 L 196.714844 449.941406 L 196.964844 450.058594 L 197.195312 450.199219 L 197.414062 450.367188 L 197.613281 450.558594 L 197.796875 450.777344 L 197.96875 451.019531 L 198.125 451.285156 L 198.261719 451.574219 L 198.386719 451.882812 L 198.492188 452.21875 L 198.582031 452.574219 L 198.65625 452.953125 L 198.714844 453.359375 L 198.757812 453.785156 L 198.78125 454.234375 L 198.789062 454.707031 L 198.78125 455.179688 L 198.757812 455.628906 L 198.714844 456.054688 L 198.65625 456.460938 L 198.582031 456.839844 L 198.492188 457.199219 L 198.386719 457.535156 L 198.261719 457.847656 L 198.125 458.140625 L 197.96875 458.40625 L 197.796875 458.648438 L 197.613281 458.867188 L 197.414062 459.058594 L 197.195312 459.226562 L 196.964844 459.367188 L 196.714844 459.484375 L 196.449219 459.574219 L 196.171875 459.636719 L 195.875 459.675781 L 195.5625 459.6875 L 195.25 459.675781 L 194.953125 459.636719 L 194.675781 459.574219 L 194.410156 459.484375 L 194.160156 459.367188 L 193.925781 459.226562 L 193.707031 459.058594 L 193.503906 458.867188 L 193.316406 458.648438 L 193.144531 458.40625 L 192.992188 458.140625 L 192.855469 457.847656 L 192.734375 457.535156 L 192.628906 457.199219 L 192.539062 456.839844 L 192.464844 456.460938 L 192.410156 456.054688 L 192.371094 455.628906 L 192.34375 455.179688 L 192.335938 454.707031 L 192.34375 454.234375 L 192.371094 453.785156 L 192.410156 453.359375 L 192.464844 452.953125 L 192.539062 452.574219 L 192.628906 452.21875 L 192.734375 451.882812 L 192.855469 451.574219 L 192.992188 451.285156 L 193.144531 451.019531 L 193.316406 450.777344 L 193.503906 450.558594 L 193.707031 450.367188 L 193.925781 450.199219 L 194.160156 450.058594 L 194.410156 449.941406 L 194.675781 449.851562 L 194.953125 449.789062 L 195.25 449.75 Z M 195.5625 450.789062 L 195.378906 450.796875 L 195.207031 450.824219 L 195.042969 450.871094 L 194.890625 450.9375 L 194.746094 451.019531 L 194.609375 451.121094 L 194.484375 451.242188 L 194.371094 451.378906 L 194.261719 451.535156 L 194.167969 451.710938 L 194.082031 451.90625 L 194.003906 452.125 L 193.9375 452.367188 L 193.878906 452.632812 L 193.832031 452.921875 L 193.792969 453.230469 L 193.761719 453.566406 L 193.738281 453.921875 L 193.722656 454.304688 L 193.71875 454.707031 L 193.722656 455.109375 L 193.738281 455.488281 L 193.761719 455.847656 L 193.792969 456.183594 L 193.832031 456.496094 L 193.878906 456.785156 L 193.9375 457.050781 L 194.003906 457.296875 L 194.082031 457.515625 L 194.167969 457.714844 L 194.261719 457.890625 L 194.371094 458.046875 L 194.484375 458.1875 L 194.609375 458.304688 L 194.746094 458.40625 L 194.890625 458.488281 L 195.042969 458.554688 L 195.207031 458.601562 L 195.378906 458.628906 L 195.5625 458.636719 L 195.742188 458.628906 L 195.914062 458.601562 L 196.074219 458.554688 L 196.226562 458.488281 L 196.371094 458.40625 L 196.503906 458.304688 L 196.628906 458.1875 L 196.742188 458.046875 L 196.847656 457.890625 L 196.945312 457.714844 L 197.03125 457.515625 L 197.113281 457.296875 L 197.179688 457.050781 L 197.242188 456.785156 L 197.292969 456.496094 L 197.332031 456.183594 L 197.363281 455.847656 L 197.386719 455.488281 L 197.402344 455.109375 L 197.40625 454.707031 L 197.402344 454.304688 L 197.386719 453.929688 L 197.363281 453.574219 L 197.332031 453.242188 L 197.292969 452.929688 L 197.242188 452.644531 L 197.179688 452.378906 L 197.113281 452.140625 L 197.03125 451.921875 L 196.945312 451.726562 L 196.847656 451.546875 L 196.742188 451.386719 L 196.628906 451.246094 L 196.503906 451.125 L 196.371094 451.023438 L 196.226562 450.9375 L 196.074219 450.875 L 195.914062 450.828125 L 195.742188 450.796875 Z M 195.5625 450.789062 "/>
<path style=" stroke:none;fill-rule:evenodd;fill:rgb(12.941176%,12.941176%,12.941176%);fill-opacity:1;" d="M 406.519531 449.882812 L 406.519531 459.515625 L 405.195312 459.515625 L 405.195312 451.292969 L 402.949219 452.660156 L 402.371094 451.726562 L 405.351562 449.882812 Z M 406.519531 449.882812 "/>
<path style=" stroke:none;fill-rule:evenodd;fill:rgb(12.941176%,12.941176%,12.941176%);fill-opacity:1;" d="M 614.125 449.738281 L 614.296875 449.742188 L 614.460938 449.75 L 614.625 449.769531 L 614.78125 449.792969 L 614.9375 449.824219 L 615.085938 449.863281 L 615.230469 449.90625 L 615.371094 449.960938 L 615.507812 450.019531 L 615.636719 450.082031 L 615.765625 450.15625 L 615.890625 450.230469 L 616.007812 450.3125 L 616.121094 450.402344 L 616.226562 450.492188 L 616.324219 450.589844 L 616.417969 450.695312 L 616.503906 450.800781 L 616.585938 450.914062 L 616.660156 451.035156 L 616.730469 451.152344 L 616.789062 451.277344 L 616.84375 451.402344 L 616.890625 451.53125 L 616.929688 451.664062 L 616.960938 451.800781 L 616.988281 451.9375 L 617.007812 452.078125 L 617.015625 452.226562 L 617.019531 452.375 L 617.015625 452.546875 L 617.003906 452.722656 L 616.984375 452.894531 L 616.957031 453.0625 L 616.917969 453.234375 L 616.875 453.402344 L 616.824219 453.566406 L 616.761719 453.734375 L 616.695312 453.894531 L 616.617188 454.058594 L 616.535156 454.21875 L 616.445312 454.386719 L 616.34375 454.554688 L 616.238281 454.722656 L 616.121094 454.898438 L 615.996094 455.074219 L 615.859375 455.25 L 615.71875 455.429688 L 615.566406 455.613281 L 615.40625 455.800781 L 615.234375 455.996094 L 615.046875 456.203125 L 614.839844 456.429688 L 614.613281 456.667969 L 614.375 456.921875 L 614.117188 457.1875 L 613.84375 457.46875 L 613.550781 457.769531 L 613.242188 458.078125 L 612.917969 458.40625 L 617.25 458.40625 L 617.09375 459.515625 L 611.40625 459.515625 L 611.40625 458.464844 L 611.777344 458.074219 L 612.132812 457.707031 L 612.460938 457.359375 L 612.769531 457.035156 L 613.054688 456.734375 L 613.316406 456.453125 L 613.554688 456.191406 L 613.773438 455.953125 L 613.96875 455.734375 L 614.140625 455.542969 L 614.296875 455.355469 L 614.445312 455.175781 L 614.582031 455 L 614.710938 454.832031 L 614.832031 454.667969 L 614.941406 454.507812 L 615.042969 454.351562 L 615.136719 454.199219 L 615.21875 454.054688 L 615.292969 453.914062 L 615.359375 453.773438 L 615.417969 453.632812 L 615.46875 453.488281 L 615.511719 453.34375 L 615.550781 453.199219 L 615.582031 453.046875 L 615.605469 452.898438 L 615.625 452.742188 L 615.632812 452.589844 L 615.636719 452.429688 L 615.632812 452.285156 L 615.621094 452.144531 L 615.597656 452.011719 L 615.570312 451.882812 L 615.53125 451.765625 L 615.480469 451.652344 L 615.425781 451.542969 L 615.363281 451.445312 L 615.289062 451.351562 L 615.207031 451.265625 L 615.117188 451.183594 L 615.023438 451.109375 L 614.921875 451.042969 L 614.8125 450.988281 L 614.703125 450.941406 L 614.582031 450.902344 L 614.460938 450.871094 L 614.332031 450.851562 L 614.195312 450.835938 L 614.054688 450.832031 L 613.9375 450.835938 L 613.824219 450.84375 L 613.710938 450.855469 L 613.605469 450.871094 L 613.5 450.894531 L 613.398438 450.921875 L 613.296875 450.953125 L 613.203125 450.988281 L 613.109375 451.03125 L 613.015625 451.078125 L 612.925781 451.128906 L 612.835938 451.1875 L 612.742188 451.253906 L 612.652344 451.324219 L 612.554688 451.402344 L 612.460938 451.484375 L 612.363281 451.574219 L 612.265625 451.671875 L 612.167969 451.773438 L 612.066406 451.882812 L 611.203125 451.191406 L 611.320312 451.050781 L 611.445312 450.914062 L 611.570312 450.785156 L 611.695312 450.664062 L 611.824219 450.550781 L 611.957031 450.445312 L 612.09375 450.347656 L 612.230469 450.257812 L 612.371094 450.171875 L 612.511719 450.097656 L 612.660156 450.03125 L 612.808594 449.96875 L 612.960938 449.914062 L 613.117188 449.867188 L 613.277344 449.828125 L 613.4375 449.796875 L 613.605469 449.769531 L 613.777344 449.753906 L 613.949219 449.742188 Z M 614.125 449.738281 "/>
<path style=" stroke:none;fill-rule:evenodd;fill:rgb(27.058824%,27.058824%,27.058824%);fill-opacity:1;" d="M 79.664062 472.546875 L 75.671875 478.015625 L 78.371094 484.394531 L 76.601562 484.394531 L 74.640625 479.167969 L 71.148438 484.394531 L 69.34375 484.394531 L 73.78125 478.082031 L 71.335938 472.546875 L 73.109375 472.546875 L 74.8125 477 L 77.875 472.546875 Z M 79.664062 472.546875 "/>
<path style=" stroke:none;fill-rule:evenodd;fill:rgb(27.058824%,27.058824%,27.058824%);fill-opacity:1;" d="M 15.941406 57.273438 L 15.949219 56.886719 L 15.972656 56.515625 L 16.011719 56.167969 L 16.066406 55.835938 L 16.136719 55.523438 L 16.226562 55.226562 L 16.328125 54.949219 L 16.445312 54.691406 L 16.582031 54.449219 L 16.730469 54.226562 L 16.894531 54.023438 L 17.074219 53.835938 L 17.265625 53.675781 L 17.476562 53.535156 L 17.703125 53.414062 L 17.945312 53.316406 L 18.203125 53.242188 L 18.476562 53.1875 L 18.765625 53.15625 L 19.070312 53.144531 L 19.304688 53.148438 L 19.535156 53.164062 L 19.765625 53.191406 L 19.988281 53.226562 L 20.207031 53.273438 L 20.421875 53.328125 L 20.632812 53.398438 L 20.835938 53.472656 L 21.039062 53.5625 L 21.238281 53.660156 L 21.429688 53.765625 L 21.617188 53.886719 L 21.792969 54.019531 L 21.964844 54.164062 L 22.128906 54.320312 L 22.285156 54.492188 L 22.433594 54.679688 L 22.574219 54.875 L 22.710938 55.085938 L 22.835938 55.3125 L 22.953125 55.542969 L 23.054688 55.792969 L 23.144531 56.050781 L 23.222656 56.324219 L 23.289062 56.609375 L 23.34375 56.910156 L 23.386719 57.21875 L 23.414062 57.546875 L 23.433594 57.882812 L 23.4375 58.234375 L 23.4375 59.765625 L 27.792969 60.367188 L 27.792969 61.984375 L 15.941406 60.316406 Z M 22.148438 58.199219 L 22.140625 57.84375 L 22.113281 57.507812 L 22.070312 57.195312 L 22.011719 56.90625 L 21.933594 56.636719 L 21.839844 56.386719 L 21.726562 56.164062 L 21.597656 55.960938 L 21.453125 55.78125 L 21.289062 55.621094 L 21.109375 55.476562 L 20.921875 55.347656 L 20.722656 55.234375 L 20.511719 55.136719 L 20.296875 55.054688 L 20.070312 54.984375 L 19.832031 54.933594 L 19.589844 54.894531 L 19.335938 54.871094 L 19.070312 54.863281 L 18.875 54.871094 L 18.695312 54.890625 L 18.523438 54.921875 L 18.363281 54.96875 L 18.214844 55.027344 L 18.078125 55.097656 L 17.953125 55.183594 L 17.835938 55.28125 L 17.734375 55.394531 L 17.644531 55.515625 L 17.5625 55.652344 L 17.488281 55.796875 L 17.421875 55.953125 L 17.367188 56.121094 L 17.320312 56.304688 L 17.28125 56.496094 L 17.25 56.703125 L 17.230469 56.921875 L 17.21875 57.152344 L 17.214844 57.390625 L 17.214844 58.886719 L 22.148438 59.578125 Z M 22.148438 58.199219 "/>
<path style=" stroke:none;fill-rule:evenodd;fill:rgb(27.058824%,27.058824%,27.058824%);fill-opacity:1;" d="M 30.234375 53.867188 L 28.875 53.675781 L 28.875 45.386719 L 30.234375 45.574219 Z M 30.234375 53.867188 "/>
<path style=" stroke:none;fill-rule:evenodd;fill:rgb(27.058824%,27.058824%,27.058824%);fill-opacity:1;" d="M 15.941406 34.566406 L 21.410156 38.558594 L 27.792969 35.859375 L 27.792969 37.628906 L 22.5625 39.589844 L 27.792969 43.082031 L 27.792969 44.886719 L 21.480469 40.449219 L 15.941406 42.894531 L 15.941406 41.121094 L 20.394531 39.417969 L 15.941406 36.355469 Z M 15.941406 34.566406 "/>
<path style=" stroke:none;fill-rule:evenodd;fill:rgb(27.058824%,27.058824%,27.058824%);fill-opacity:1;" d="M 13.980469 28.996094 L 14.472656 29.386719 L 14.960938 29.757812 L 15.445312 30.101562 L 15.925781 30.429688 L 16.398438 30.730469 L 16.871094 31.011719 L 17.335938 31.273438 L 17.800781 31.511719 L 18.257812 31.726562 L 18.710938 31.917969 L 19.167969 32.089844 L 19.636719 32.242188 L 20.117188 32.375 L 20.613281 32.492188 L 21.121094 32.589844 L 21.640625 32.671875 L 22.175781 32.734375 L 22.722656 32.777344 L 23.28125 32.804688 L 23.851562 32.8125 L 24.191406 32.808594 L 24.523438 32.796875 L 24.84375 32.78125 L 25.160156 32.753906 L 25.464844 32.71875 L 25.761719 32.675781 L 26.050781 32.628906 L 26.328125 32.570312 L 26.601562 32.507812 L 26.863281 32.433594 L 27.121094 32.351562 L 27.382812 32.261719 L 27.648438 32.160156 L 27.921875 32.050781 L 28.199219 31.9375 L 28.484375 31.8125 L 28.769531 31.679688 L 29.0625 31.539062 L 29.363281 31.386719 L 29.664062 31.230469 L 30.25 32.261719 L 30 32.40625 L 29.757812 32.546875 L 29.523438 32.679688 L 29.296875 32.804688 L 29.078125 32.925781 L 28.867188 33.039062 L 28.664062 33.148438 L 28.46875 33.25 L 28.101562 33.433594 L 27.925781 33.515625 L 27.746094 33.59375 L 27.5625 33.667969 L 27.371094 33.742188 L 27.175781 33.816406 L 26.976562 33.882812 L 26.769531 33.953125 L 26.558594 34.015625 L 26.34375 34.078125 L 26.121094 34.136719 L 25.898438 34.191406 L 25.667969 34.238281 L 25.433594 34.277344 L 25.191406 34.3125 L 24.949219 34.34375 L 24.699219 34.367188 L 24.449219 34.386719 L 24.191406 34.402344 L 23.929688 34.410156 L 23.664062 34.414062 L 23.234375 34.40625 L 22.816406 34.394531 L 22.40625 34.367188 L 22.003906 34.332031 L 21.613281 34.289062 L 21.230469 34.234375 L 20.855469 34.167969 L 20.492188 34.09375 L 20.136719 34.007812 L 19.792969 33.914062 L 19.453125 33.808594 L 19.113281 33.691406 L 18.78125 33.566406 L 18.457031 33.433594 L 18.132812 33.289062 L 17.816406 33.140625 L 17.503906 32.980469 L 17.195312 32.8125 L 16.890625 32.636719 L 16.59375 32.453125 L 16.292969 32.257812 L 15.984375 32.046875 L 15.667969 31.828125 L 15.34375 31.59375 L 15.011719 31.347656 L 14.671875 31.089844 L 14.320312 30.816406 L 13.964844 30.53125 L 13.597656 30.234375 L 13.222656 29.921875 Z M 13.980469 28.996094 "/>
<path style=" stroke:none;fill-rule:evenodd;fill:rgb(27.058824%,27.058824%,27.058824%);fill-opacity:1;" d="M 18.726562 21.1875 L 23.0625 24.558594 L 27.792969 22.132812 L 27.792969 23.886719 L 23.972656 25.605469 L 27.792969 28.375 L 27.792969 30.214844 L 22.921875 26.414062 L 18.726562 28.566406 L 18.726562 26.828125 L 22.082031 25.382812 L 18.726562 23.007812 Z M 18.726562 21.1875 "/>
<path style=" stroke:none;fill-rule:evenodd;fill:rgb(27.058824%,27.058824%,27.058824%);fill-opacity:1;" d="M 13.292969 18.398438 L 13.542969 18.253906 L 13.785156 18.117188 L 14.019531 17.984375 L 14.246094 17.859375 L 14.464844 17.742188 L 14.675781 17.628906 L 14.878906 17.523438 L 15.261719 17.332031 L 15.441406 17.246094 L 15.617188 17.164062 L 15.796875 17.082031 L 15.980469 17.003906 L 16.171875 16.929688 L 16.367188 16.855469 L 16.566406 16.789062 L 16.773438 16.722656 L 16.984375 16.660156 L 17.199219 16.597656 L 17.417969 16.542969 L 17.644531 16.488281 L 17.875 16.4375 L 18.109375 16.394531 L 18.347656 16.355469 L 18.59375 16.324219 L 18.839844 16.296875 L 19.09375 16.277344 L 19.351562 16.261719 L 19.613281 16.253906 L 19.878906 16.25 L 20.308594 16.253906 L 20.726562 16.269531 L 21.140625 16.296875 L 21.542969 16.332031 L 21.933594 16.378906 L 22.320312 16.4375 L 22.695312 16.503906 L 23.058594 16.578125 L 23.417969 16.667969 L 23.765625 16.765625 L 24.105469 16.871094 L 24.4375 16.984375 L 24.769531 17.105469 L 25.09375 17.238281 L 25.414062 17.375 L 25.730469 17.523438 L 26.039062 17.683594 L 26.347656 17.851562 L 26.648438 18.027344 L 26.949219 18.210938 L 27.25 18.40625 L 27.554688 18.613281 L 27.871094 18.835938 L 28.199219 19.070312 L 28.53125 19.316406 L 28.871094 19.574219 L 29.222656 19.847656 L 29.578125 20.132812 L 29.945312 20.429688 L 30.320312 20.738281 L 29.5625 21.667969 L 29.070312 21.277344 L 28.582031 20.90625 L 28.09375 20.558594 L 27.613281 20.234375 L 27.136719 19.929688 L 26.664062 19.648438 L 26.195312 19.390625 L 25.730469 19.152344 L 25.273438 18.9375 L 24.816406 18.742188 L 24.355469 18.570312 L 23.882812 18.414062 L 23.398438 18.277344 L 22.898438 18.160156 L 22.390625 18.058594 L 21.867188 17.976562 L 21.332031 17.914062 L 20.785156 17.867188 L 20.226562 17.839844 L 19.65625 17.832031 L 19.320312 17.835938 L 18.992188 17.847656 L 18.671875 17.867188 L 18.363281 17.894531 L 18.058594 17.929688 L 17.765625 17.976562 L 17.480469 18.027344 L 17.207031 18.085938 L 16.9375 18.152344 L 16.679688 18.226562 L 16.421875 18.3125 L 16.160156 18.402344 L 15.894531 18.503906 L 15.621094 18.609375 L 15.34375 18.726562 L 15.058594 18.851562 L 14.769531 18.984375 L 14.476562 19.125 L 14.179688 19.273438 L 13.875 19.433594 Z M 13.292969 18.398438 "/>
</g>
</svg>
