<?xml version="1.0" encoding="UTF-8"?>
<svg xmlns="http://www.w3.org/2000/svg" xmlns:xlink="http://www.w3.org/1999/xlink" width="756pt" height="504pt" viewBox="0 0 756 504" version="1.1">
<defs>
<clipPath id="clip1">
  <path d="M 58.417969 353 L 740.058594 353 L 740.058594 355 L 58.417969 355 Z M 58.417969 353 "/>
</clipPath>
<clipPath id="clip2">
  <path d="M 58.417969 219 L 740.058594 219 L 740.058594 221 L 58.417969 221 Z M 58.417969 219 "/>
</clipPath>
<clipPath id="clip3">
  <path d="M 58.417969 85 L 740.058594 85 L 740.058594 87 L 58.417969 87 Z M 58.417969 85 "/>
</clipPath>
<clipPath id="clip4">
  <path d="M 192 15.941406 L 194 15.941406 L 194 440.628906 L 192 440.628906 Z M 192 15.941406 "/>
</clipPath>
<clipPath id="clip5">
  <path d="M 398 15.941406 L 400 15.941406 L 400 440.628906 L 398 440.628906 Z M 398 15.941406 "/>
</clipPath>
<clipPath id="clip6">
  <path d="M 605 15.941406 L 607 15.941406 L 607 440.628906 L 605 440.628906 Z M 605 15.941406 "/>
</clipPath>
<clipPath id="clip7">
  <path d="M 58.417969 420 L 740.058594 420 L 740.058594 423 L 58.417969 423 Z M 58.417969 420 "/>
</clipPath>
<clipPath id="clip8">
  <path d="M 58.417969 286 L 740.058594 286 L 740.058594 289 L 58.417969 289 Z M 58.417969 286 "/>
</clipPath>
<clipPath id="clip9">
  <path d="M 58.417969 152 L 740.058594 152 L 740.058594 155 L 58.417969 155 Z M 58.417969 152 "/>
</clipPath>
<clipPath id="clip10">
  <path d="M 58.417969 18 L 740.058594 18 L 740.058594 21 L 58.417969 21 Z M 58.417969 18 "/>
</clipPath>
<clipPath id="clip11">
  <path d="M 88 15.941406 L 91 15.941406 L 91 440.628906 L 88 440.628906 Z M 88 15.941406 "/>
</clipPath>
<clipPath id="clip12">
  <path d="M 294 15.941406 L 297 15.941406 L 297 440.628906 L 294 440.628906 Z M 294 15.941406 "/>
</clipPath>
<clipPath id="clip13">
  <path d="M 501 15.941406 L 504 15.941406 L 504 440.628906 L 501 440.628906 Z M 501 15.941406 "/>
</clipPath>
<clipPath id="clip14">
  <path d="M 708 15.941406 L 711 15.941406 L 711 440.628906 L 708 440.628906 Z M 708 15.941406 "/>
</clipPath>
</defs>
<g id="surface59">
<rect x="0" y="0" width="756" height="504" style="fill:rgb(100%,100%,100%);fill-opacity:1;stroke:none;"/>
<g clip-path="url(#clip1)" clip-rule="nonzero">
<path style="fill:none;stroke-width:0.96998;stroke-linecap:butt;stroke-linejoin:round;stroke:rgb(92.156863%,92.156863%,92.156863%);stroke-opacity:1;stroke-miterlimit:10;" d="M 58.417969 354.324219 L 740.058594 354.324219 "/>
</g>
<g clip-path="url(#clip2)" clip-rule="nonzero">
<path style="fill:none;stroke-width:0.96998;stroke-linecap:butt;stroke-linejoin:round;stroke:rgb(92.156863%,92.156863%,92.156863%);stroke-opacity:1;stroke-miterlimit:10;" d="M 58.417969 220.324219 L 740.058594 220.324219 "/>
</g>
<g clip-path="url(#clip3)" clip-rule="nonzero">
<path style="fill:none;stroke-width:0.96998;stroke-linecap:butt;stroke-linejoin:round;stroke:rgb(92.156863%,92.156863%,92.156863%);stroke-opacity:1;stroke-miterlimit:10;" d="M 58.417969 86.324219 L 740.058594 86.324219 "/>
</g>
<g clip-path="url(#clip4)" clip-rule="nonzero">
<path style="fill:none;stroke-width:0.96998;stroke-linecap:butt;stroke-linejoin:round;stroke:rgb(92.156863%,92.156863%,92.156863%);stroke-opacity:1;stroke-miterlimit:10;" d="M 192.679688 440.628906 L 192.679688 15.941406 "/>
</g>
<g clip-path="url(#clip5)" clip-rule="nonzero">
<path style="fill:none;stroke-width:0.96998;stroke-linecap:butt;stroke-linejoin:round;stroke:rgb(92.156863%,92.156863%,92.156863%);stroke-opacity:1;stroke-miterlimit:10;" d="M 399.238281 440.628906 L 399.238281 15.941406 "/>
</g>
<g clip-path="url(#clip6)" clip-rule="nonzero">
<path style="fill:none;stroke-width:0.96998;stroke-linecap:butt;stroke-linejoin:round;stroke:rgb(92.156863%,92.156863%,92.156863%);stroke-opacity:1;stroke-miterlimit:10;" d="M 605.796875 440.628906 L 605.796875 15.941406 "/>
</g>
<g clip-path="url(#clip7)" clip-rule="nonzero">
<path style="fill:none;stroke-width:1.939961;stroke-linecap:butt;stroke-linejoin:round;stroke:rgb(92.156863%,92.156863%,92.156863%);stroke-opacity:1;stroke-miterlimit:10;" d="M 58.417969 421.324219 L 740.058594 421.324219 "/>
</g>
<g clip-path="url(#clip8)" clip-rule="nonzero">
<path style="fill:none;stroke-width:1.939961;stroke-linecap:butt;stroke-linejoin:round;stroke:rgb(92.156863%,92.156863%,92.156863%);stroke-opacity:1;stroke-miterlimit:10;" d="M 58.417969 287.324219 L 740.058594 287.324219 "/>
</g>
<g clip-path="url(#clip9)" clip-rule="nonzero">
<path style="fill:none;stroke-width:1.939961;stroke-linecap:butt;stroke-linejoin:round;stroke:rgb(92.156863%,92.156863%,92.156863%);stroke-opacity:1;stroke-miterlimit:10;" d="M 58.417969 153.324219 L 740.058594 153.324219 "/>
</g>
<g clip-path="url(#clip10)" clip-rule="nonzero">
<path style="fill:none;stroke-width:1.939961;stroke-linecap:butt;stroke-linejoin:round;stroke:rgb(92.156863%,92.156863%,92.156863%);stroke-opacity:1;stroke-miterlimit:10;" d="M 58.417969 19.324219 L 740.058594 19.324219 "/>
</g>
<g clip-path="url(#clip11)" clip-rule="nonzero">
<path style="fill:none;stroke-width:1.939961;stroke-linecap:butt;stroke-linejoin:round;stroke:rgb(92.156863%,92.156863%,92.156863%);stroke-opacity:1;stroke-miterlimit:10;" d="M 89.402344 440.628906 L 89.402344 15.941406 "/>
</g>
<g clip-path="url(#clip12)" clip-rule="nonzero">
<path style="fill:none;stroke-width:1.939961;stroke-linecap:butt;stroke-linejoin:round;stroke:rgb(92.156863%,92.156863%,92.156863%);stroke-opacity:1;stroke-miterlimit:10;" d="M 295.960938 440.628906 L 295.960938 15.941406 "/>
</g>
<g clip-path="url(#clip13)" clip-rule="nonzero">
<path style="fill:none;stroke-width:1.939961;stroke-linecap:butt;stroke-linejoin:round;stroke:rgb(92.156863%,92.156863%,92.156863%);stroke-opacity:1;stroke-miterlimit:10;" d="M 502.519531 440.628906 L 502.519531 15.941406 "/>
</g>
<g clip-path="url(#clip14)" clip-rule="nonzero">
<path style="fill:none;stroke-width:1.939961;stroke-linecap:butt;stroke-linejoin:round;stroke:rgb(92.156863%,92.156863%,92.156863%);stroke-opacity:1;stroke-miterlimit:10;" d="M 709.074219 440.628906 L 709.074219 15.941406 "/>
</g>
<path style=" stroke:none;fill-rule:nonzero;fill:rgb(82.352941%,21.960784%,17.254902%);fill-opacity:0.501961;" d="M 347.601562 396.199219 L 348.117188 395.695312 L 348.632812 395.183594 L 349.148438 394.667969 L 349.664062 394.148438 L 350.183594 393.625 L 350.699219 393.09375 L 351.214844 392.558594 L 351.730469 392.019531 L 352.246094 391.472656 L 352.765625 390.921875 L 353.28125 390.367188 L 353.796875 389.808594 L 354.3125 389.242188 L 354.828125 388.671875 L 355.347656 388.097656 L 355.863281 387.515625 L 356.378906 386.929688 L 356.894531 386.339844 L 357.410156 385.746094 L 357.929688 385.144531 L 358.445312 384.539062 L 359.476562 383.3125 L 359.992188 382.691406 L 360.507812 382.066406 L 361.027344 381.433594 L 361.542969 380.800781 L 362.058594 380.160156 L 363.089844 378.863281 L 363.609375 378.207031 L 364.125 377.546875 L 365.15625 376.210938 L 365.671875 375.535156 L 366.191406 374.851562 L 366.707031 374.167969 L 367.222656 373.476562 L 367.738281 372.78125 L 368.253906 372.078125 L 368.773438 371.371094 L 369.289062 370.660156 L 369.804688 369.945312 L 370.835938 368.5 L 371.355469 367.765625 L 371.871094 367.03125 L 372.386719 366.289062 L 372.902344 365.542969 L 373.417969 364.792969 L 373.9375 364.035156 L 374.453125 363.273438 L 374.96875 362.507812 L 375.484375 361.738281 L 376 360.960938 L 376.519531 360.179688 L 377.035156 359.394531 L 377.550781 358.601562 L 378.066406 357.804688 L 378.582031 357.003906 L 379.101562 356.199219 L 379.617188 355.386719 L 380.132812 354.570312 L 381.164062 352.921875 L 381.683594 352.089844 L 382.199219 351.253906 L 382.714844 350.410156 L 383.230469 349.5625 L 383.746094 348.710938 L 384.265625 347.855469 L 385.296875 346.128906 L 386.328125 344.378906 L 386.847656 343.496094 L 387.363281 342.609375 L 387.878906 341.71875 L 388.394531 340.820312 L 388.910156 339.917969 L 389.429688 339.011719 L 389.945312 338.101562 L 390.460938 337.183594 L 390.976562 336.261719 L 391.492188 335.332031 L 392.011719 334.402344 L 392.527344 333.464844 L 393.042969 332.523438 L 393.558594 331.574219 L 394.074219 330.621094 L 394.589844 329.664062 L 395.109375 328.703125 L 395.625 327.734375 L 396.140625 326.761719 L 396.65625 325.785156 L 397.171875 324.804688 L 397.691406 323.816406 L 398.207031 322.824219 L 398.722656 321.828125 L 399.238281 320.824219 L 399.238281 421.324219 L 347.601562 421.324219 Z M 347.601562 396.199219 "/>
<path style="fill:none;stroke-width:3.200935;stroke-linecap:butt;stroke-linejoin:round;stroke:rgb(0%,0%,0%);stroke-opacity:1;stroke-miterlimit:10;" d="M 89.402344 421.324219 L 293.894531 421.324219 L 300.089844 421.164062 L 306.289062 420.320312 L 312.484375 418.75 L 318.683594 416.460938 L 324.878906 413.445312 L 331.074219 409.707031 L 337.273438 405.242188 L 343.46875 400.058594 L 349.664062 394.148438 L 355.863281 387.515625 L 362.058594 380.160156 L 368.253906 372.078125 L 374.453125 363.273438 L 380.648438 353.746094 L 386.847656 343.496094 L 393.042969 332.523438 L 399.238281 320.824219 L 405.4375 308.402344 L 411.632812 295.257812 L 417.828125 281.386719 L 424.027344 266.796875 L 430.222656 251.480469 L 436.417969 235.441406 L 442.617188 218.675781 L 448.8125 201.1875 L 455.011719 182.980469 L 461.207031 164.042969 L 467.402344 144.386719 L 473.601562 124.003906 L 479.796875 102.902344 L 485.992188 81.070312 L 492.191406 58.519531 L 498.386719 35.246094 L 504.582031 421.324219 L 709.074219 421.324219 "/>
<path style="fill:none;stroke-width:1.939961;stroke-linecap:butt;stroke-linejoin:round;stroke:rgb(40%,40%,40%);stroke-opacity:1;stroke-miterlimit:10;" d="M 58.417969 440.628906 L 58.417969 15.941406 "/>
<path style=" stroke:none;fill-rule:evenodd;fill:rgb(12.941176%,12.941176%,12.941176%);fill-opacity:1;" d="M 45.433594 416.507812 L 45.746094 416.519531 L 46.042969 416.558594 L 46.324219 416.621094 L 46.585938 416.710938 L 46.835938 416.828125 L 47.066406 416.96875 L 47.285156 417.136719 L 47.484375 417.328125 L 47.671875 417.542969 L 47.839844 417.789062 L 47.996094 418.054688 L 48.136719 418.339844 L 48.257812 418.652344 L 48.363281 418.988281 L 48.457031 419.34375 L 48.527344 419.722656 L 48.585938 420.125 L 48.628906 420.554688 L 48.652344 421.003906 L 48.660156 421.476562 L 48.652344 421.945312 L 48.628906 422.398438 L 48.585938 422.824219 L 48.527344 423.226562 L 48.457031 423.609375 L 48.363281 423.96875 L 48.257812 424.304688 L 48.136719 424.617188 L 47.996094 424.90625 L 47.839844 425.175781 L 47.671875 425.417969 L 47.484375 425.636719 L 47.285156 425.828125 L 47.066406 425.996094 L 46.835938 426.136719 L 46.585938 426.253906 L 46.324219 426.34375 L 46.042969 426.40625 L 45.746094 426.445312 L 45.433594 426.457031 L 45.121094 426.445312 L 44.828125 426.40625 L 44.546875 426.34375 L 44.28125 426.253906 L 44.03125 426.136719 L 43.796875 425.996094 L 43.578125 425.828125 L 43.375 425.636719 L 43.1875 425.417969 L 43.015625 425.175781 L 42.863281 424.90625 L 42.726562 424.617188 L 42.605469 424.304688 L 42.5 423.96875 L 42.410156 423.609375 L 42.339844 423.226562 L 42.28125 422.824219 L 42.242188 422.398438 L 42.21875 421.945312 L 42.210938 421.476562 L 42.21875 421.003906 L 42.242188 420.554688 L 42.28125 420.125 L 42.339844 419.722656 L 42.410156 419.34375 L 42.5 418.988281 L 42.605469 418.652344 L 42.726562 418.339844 L 42.863281 418.054688 L 43.015625 417.789062 L 43.1875 417.542969 L 43.375 417.328125 L 43.578125 417.136719 L 43.796875 416.96875 L 44.03125 416.828125 L 44.28125 416.710938 L 44.546875 416.621094 L 44.828125 416.558594 L 45.121094 416.519531 Z M 45.433594 417.558594 L 45.253906 417.566406 L 45.078125 417.59375 L 44.917969 417.640625 L 44.761719 417.707031 L 44.617188 417.789062 L 44.484375 417.890625 L 44.355469 418.007812 L 44.242188 418.148438 L 44.136719 418.304688 L 44.039062 418.480469 L 43.953125 418.675781 L 43.878906 418.894531 L 43.808594 419.136719 L 43.753906 419.402344 L 43.703125 419.6875 L 43.664062 420 L 43.632812 420.335938 L 43.609375 420.691406 L 43.597656 421.070312 L 43.589844 421.476562 L 43.597656 421.878906 L 43.609375 422.257812 L 43.632812 422.617188 L 43.664062 422.953125 L 43.703125 423.265625 L 43.753906 423.554688 L 43.808594 423.820312 L 43.878906 424.066406 L 43.953125 424.285156 L 44.039062 424.484375 L 44.136719 424.660156 L 44.242188 424.816406 L 44.355469 424.953125 L 44.484375 425.074219 L 44.617188 425.175781 L 44.761719 425.257812 L 44.917969 425.324219 L 45.078125 425.367188 L 45.253906 425.398438 L 45.433594 425.40625 L 45.613281 425.398438 L 45.785156 425.367188 L 45.945312 425.324219 L 46.097656 425.257812 L 46.242188 425.175781 L 46.375 425.074219 L 46.5 424.953125 L 46.613281 424.816406 L 46.71875 424.660156 L 46.816406 424.484375 L 46.90625 424.285156 L 46.984375 424.066406 L 47.050781 423.820312 L 47.113281 423.554688 L 47.164062 423.265625 L 47.203125 422.953125 L 47.238281 422.617188 L 47.257812 422.257812 L 47.273438 421.878906 L 47.277344 421.476562 L 47.273438 421.074219 L 47.257812 420.695312 L 47.238281 420.339844 L 47.203125 420.007812 L 47.164062 419.699219 L 47.113281 419.414062 L 47.050781 419.148438 L 46.984375 418.90625 L 46.90625 418.691406 L 46.816406 418.492188 L 46.71875 418.316406 L 46.613281 418.15625 L 46.5 418.015625 L 46.375 417.894531 L 46.242188 417.792969 L 46.097656 417.707031 L 45.945312 417.640625 L 45.785156 417.59375 L 45.613281 417.566406 Z M 45.433594 417.558594 "/>
<path style=" stroke:none;fill-rule:evenodd;fill:rgb(12.941176%,12.941176%,12.941176%);fill-opacity:1;" d="M 47.867188 282.652344 L 47.867188 292.285156 L 46.542969 292.285156 L 46.542969 284.0625 L 44.296875 285.429688 L 43.722656 284.496094 L 46.703125 282.652344 Z M 47.867188 282.652344 "/>
<path style=" stroke:none;fill-rule:evenodd;fill:rgb(12.941176%,12.941176%,12.941176%);fill-opacity:1;" d="M 45.609375 148.507812 L 45.777344 148.511719 L 45.945312 148.523438 L 46.105469 148.539062 L 46.265625 148.5625 L 46.417969 148.59375 L 46.566406 148.632812 L 46.710938 148.675781 L 46.851562 148.730469 L 46.988281 148.789062 L 47.121094 148.851562 L 47.25 148.925781 L 47.371094 149.003906 L 47.488281 149.085938 L 47.601562 149.171875 L 47.707031 149.265625 L 47.804688 149.363281 L 47.898438 149.464844 L 47.984375 149.570312 L 48.066406 149.683594 L 48.140625 149.804688 L 48.210938 149.921875 L 48.273438 150.046875 L 48.324219 150.171875 L 48.371094 150.300781 L 48.410156 150.433594 L 48.445312 150.570312 L 48.46875 150.707031 L 48.488281 150.851562 L 48.5 150.996094 L 48.503906 151.144531 L 48.496094 151.316406 L 48.484375 151.492188 L 48.464844 151.664062 L 48.4375 151.835938 L 48.402344 152.003906 L 48.355469 152.171875 L 48.304688 152.335938 L 48.242188 152.503906 L 48.175781 152.664062 L 48.097656 152.828125 L 48.015625 152.992188 L 47.925781 153.15625 L 47.828125 153.324219 L 47.71875 153.492188 L 47.601562 153.667969 L 47.476562 153.84375 L 47.34375 154.019531 L 47.199219 154.199219 L 47.050781 154.382812 L 46.890625 154.570312 L 46.714844 154.765625 L 46.527344 154.972656 L 46.320312 155.199219 L 46.097656 155.4375 L 45.855469 155.691406 L 45.597656 155.957031 L 45.324219 156.242188 L 45.03125 156.539062 L 44.722656 156.851562 L 44.398438 157.175781 L 48.734375 157.175781 L 48.574219 158.285156 L 42.886719 158.285156 L 42.886719 157.234375 L 43.261719 156.84375 L 43.613281 156.476562 L 43.941406 156.128906 L 44.25 155.804688 L 44.535156 155.503906 L 44.796875 155.222656 L 45.039062 154.960938 L 45.253906 154.722656 L 45.449219 154.507812 L 45.621094 154.3125 L 45.777344 154.125 L 45.925781 153.945312 L 46.0625 153.769531 L 46.195312 153.601562 L 46.3125 153.4375 L 46.425781 153.277344 L 46.523438 153.121094 L 46.617188 152.96875 L 46.699219 152.824219 L 46.773438 152.683594 L 46.839844 152.542969 L 46.898438 152.402344 L 46.949219 152.261719 L 46.996094 152.113281 L 47.035156 151.96875 L 47.0625 151.816406 L 47.089844 151.667969 L 47.105469 151.511719 L 47.117188 151.359375 L 47.121094 151.199219 L 47.117188 151.054688 L 47.101562 150.914062 L 47.082031 150.78125 L 47.050781 150.65625 L 47.011719 150.535156 L 46.964844 150.421875 L 46.90625 150.316406 L 46.84375 150.214844 L 46.769531 150.121094 L 46.6875 150.035156 L 46.597656 149.953125 L 46.503906 149.878906 L 46.402344 149.8125 L 46.296875 149.757812 L 46.183594 149.710938 L 46.066406 149.671875 L 45.941406 149.640625 L 45.8125 149.621094 L 45.675781 149.605469 L 45.535156 149.601562 L 45.417969 149.605469 L 45.304688 149.613281 L 45.195312 149.625 L 45.085938 149.640625 L 44.980469 149.664062 L 44.878906 149.691406 L 44.78125 149.722656 L 44.683594 149.757812 L 44.589844 149.800781 L 44.5 149.847656 L 44.410156 149.898438 L 44.316406 149.957031 L 44.226562 150.023438 L 44.132812 150.09375 L 44.039062 150.171875 L 43.941406 150.253906 L 43.84375 150.34375 L 43.746094 150.441406 L 43.648438 150.542969 L 43.546875 150.652344 L 42.683594 149.960938 L 42.804688 149.820312 L 42.925781 149.683594 L 43.050781 149.554688 L 43.175781 149.433594 L 43.308594 149.320312 L 43.441406 149.214844 L 43.574219 149.117188 L 43.710938 149.027344 L 43.851562 148.945312 L 43.996094 148.867188 L 44.140625 148.800781 L 44.289062 148.738281 L 44.441406 148.683594 L 44.597656 148.636719 L 44.757812 148.597656 L 44.921875 148.566406 L 45.085938 148.539062 L 45.257812 148.523438 L 45.429688 148.511719 Z M 45.609375 148.507812 "/>
<path style=" stroke:none;fill-rule:evenodd;fill:rgb(12.941176%,12.941176%,12.941176%);fill-opacity:1;" d="M 45.507812 14.507812 L 45.683594 14.511719 L 45.855469 14.523438 L 46.019531 14.539062 L 46.179688 14.5625 L 46.335938 14.589844 L 46.484375 14.628906 L 46.628906 14.671875 L 46.769531 14.71875 L 46.902344 14.777344 L 47.035156 14.839844 L 47.160156 14.90625 L 47.28125 14.980469 L 47.394531 15.058594 L 47.5 15.140625 L 47.601562 15.226562 L 47.695312 15.320312 L 47.785156 15.417969 L 47.867188 15.515625 L 47.941406 15.621094 L 48.011719 15.730469 L 48.078125 15.84375 L 48.136719 15.960938 L 48.1875 16.078125 L 48.234375 16.199219 L 48.273438 16.320312 L 48.304688 16.441406 L 48.328125 16.566406 L 48.34375 16.695312 L 48.355469 16.824219 L 48.359375 16.957031 L 48.351562 17.128906 L 48.335938 17.296875 L 48.3125 17.457031 L 48.273438 17.609375 L 48.226562 17.757812 L 48.171875 17.902344 L 48.105469 18.039062 L 48.027344 18.167969 L 47.9375 18.292969 L 47.839844 18.410156 L 47.734375 18.519531 L 47.625 18.621094 L 47.507812 18.714844 L 47.382812 18.800781 L 47.25 18.882812 L 47.109375 18.953125 L 46.964844 19.019531 L 46.8125 19.078125 L 46.652344 19.128906 L 46.484375 19.175781 L 46.675781 19.195312 L 46.859375 19.230469 L 47.03125 19.273438 L 47.199219 19.324219 L 47.359375 19.390625 L 47.515625 19.464844 L 47.660156 19.546875 L 47.800781 19.644531 L 47.929688 19.75 L 48.054688 19.863281 L 48.171875 19.992188 L 48.273438 20.125 L 48.363281 20.265625 L 48.441406 20.417969 L 48.507812 20.578125 L 48.5625 20.746094 L 48.605469 20.921875 L 48.636719 21.109375 L 48.65625 21.304688 L 48.660156 21.507812 L 48.65625 21.671875 L 48.644531 21.835938 L 48.625 21.992188 L 48.597656 22.148438 L 48.558594 22.300781 L 48.515625 22.453125 L 48.464844 22.597656 L 48.402344 22.742188 L 48.332031 22.882812 L 48.257812 23.019531 L 48.171875 23.152344 L 48.082031 23.277344 L 47.984375 23.398438 L 47.878906 23.515625 L 47.769531 23.625 L 47.648438 23.726562 L 47.523438 23.824219 L 47.390625 23.917969 L 47.25 24.003906 L 47.105469 24.085938 L 46.953125 24.15625 L 46.796875 24.21875 L 46.636719 24.273438 L 46.46875 24.324219 L 46.300781 24.363281 L 46.125 24.398438 L 45.945312 24.425781 L 45.757812 24.445312 L 45.570312 24.453125 L 45.378906 24.457031 L 45.203125 24.457031 L 45.03125 24.445312 L 44.863281 24.429688 L 44.699219 24.40625 L 44.535156 24.378906 L 44.375 24.34375 L 44.21875 24.304688 L 44.0625 24.257812 L 43.914062 24.203125 L 43.765625 24.140625 L 43.621094 24.074219 L 43.476562 23.996094 L 43.339844 23.914062 L 43.207031 23.828125 L 43.078125 23.730469 L 42.949219 23.628906 L 42.828125 23.523438 L 42.710938 23.410156 L 42.59375 23.289062 L 42.484375 23.164062 L 43.273438 22.429688 L 43.371094 22.523438 L 43.464844 22.613281 L 43.5625 22.699219 L 43.65625 22.777344 L 43.753906 22.851562 L 43.851562 22.921875 L 43.945312 22.988281 L 44.042969 23.046875 L 44.238281 23.148438 L 44.339844 23.191406 L 44.445312 23.230469 L 44.550781 23.265625 L 44.65625 23.296875 L 44.765625 23.320312 L 44.875 23.339844 L 44.988281 23.359375 L 45.101562 23.371094 L 45.335938 23.378906 L 45.511719 23.375 L 45.679688 23.359375 L 45.84375 23.332031 L 45.996094 23.296875 L 46.144531 23.253906 L 46.28125 23.195312 L 46.414062 23.132812 L 46.535156 23.054688 L 46.652344 22.96875 L 46.757812 22.875 L 46.859375 22.765625 L 46.945312 22.652344 L 47.023438 22.53125 L 47.089844 22.40625 L 47.148438 22.269531 L 47.195312 22.128906 L 47.230469 21.980469 L 47.257812 21.824219 L 47.273438 21.660156 L 47.277344 21.492188 L 47.273438 21.308594 L 47.257812 21.132812 L 47.234375 20.972656 L 47.199219 20.820312 L 47.15625 20.683594 L 47.101562 20.554688 L 47.039062 20.4375 L 46.964844 20.332031 L 46.882812 20.238281 L 46.789062 20.152344 L 46.6875 20.078125 L 46.574219 20.011719 L 46.453125 19.953125 L 46.324219 19.902344 L 46.1875 19.863281 L 46.039062 19.828125 L 45.882812 19.800781 L 45.71875 19.78125 L 45.546875 19.769531 L 45.363281 19.765625 L 44.644531 19.765625 L 44.800781 18.742188 L 45.289062 18.742188 L 45.4375 18.738281 L 45.578125 18.722656 L 45.71875 18.703125 L 45.847656 18.671875 L 45.976562 18.628906 L 46.097656 18.582031 L 46.210938 18.523438 L 46.324219 18.457031 L 46.429688 18.378906 L 46.527344 18.296875 L 46.625 18.203125 L 46.710938 18.101562 L 46.785156 17.996094 L 46.851562 17.878906 L 46.90625 17.757812 L 46.953125 17.628906 L 46.988281 17.492188 L 47.011719 17.351562 L 47.027344 17.199219 L 47.035156 17.042969 L 47.027344 16.910156 L 47.015625 16.785156 L 46.996094 16.664062 L 46.964844 16.546875 L 46.925781 16.4375 L 46.878906 16.335938 L 46.820312 16.234375 L 46.757812 16.144531 L 46.683594 16.058594 L 46.601562 15.976562 L 46.511719 15.902344 L 46.417969 15.832031 L 46.316406 15.769531 L 46.207031 15.71875 L 46.09375 15.675781 L 45.972656 15.636719 L 45.847656 15.609375 L 45.714844 15.589844 L 45.578125 15.578125 L 45.433594 15.574219 L 45.324219 15.574219 L 45.214844 15.582031 L 45.105469 15.59375 L 45 15.605469 L 44.894531 15.625 L 44.792969 15.644531 L 44.691406 15.671875 L 44.589844 15.703125 L 44.492188 15.738281 L 44.398438 15.777344 L 44.304688 15.820312 L 44.210938 15.867188 L 44.117188 15.917969 L 44.023438 15.976562 L 43.835938 16.109375 L 43.738281 16.183594 L 43.640625 16.265625 L 43.546875 16.347656 L 43.449219 16.4375 L 42.757812 15.644531 L 43.003906 15.429688 L 43.257812 15.234375 L 43.519531 15.066406 L 43.785156 14.917969 L 44.054688 14.792969 L 44.335938 14.691406 L 44.617188 14.609375 L 44.910156 14.554688 L 45.203125 14.519531 Z M 45.507812 14.507812 "/>
<path style="fill:none;stroke-width:1.939961;stroke-linecap:butt;stroke-linejoin:round;stroke:rgb(20%,20%,20%);stroke-opacity:1;stroke-miterlimit:10;" d="M 53.4375 421.324219 L 58.417969 421.324219 "/>
<path style="fill:none;stroke-width:1.939961;stroke-linecap:butt;stroke-linejoin:round;stroke:rgb(20%,20%,20%);stroke-opacity:1;stroke-miterlimit:10;" d="M 53.4375 287.324219 L 58.417969 287.324219 "/>
<path style="fill:none;stroke-width:1.939961;stroke-linecap:butt;stroke-linejoin:round;stroke:rgb(20%,20%,20%);stroke-opacity:1;stroke-miterlimit:10;" d="M 53.4375 153.324219 L 58.417969 153.324219 "/>
<path style="fill:none;stroke-width:1.939961;stroke-linecap:butt;stroke-linejoin:round;stroke:rgb(20%,20%,20%);stroke-opacity:1;stroke-miterlimit:10;" d="M 53.4375 19.324219 L 58.417969 19.324219 "/>
<path style="fill:none;stroke-width:1.939961;stroke-linecap:butt;stroke-linejoin:round;stroke:rgb(40%,40%,40%);stroke-opacity:1;stroke-miterlimit:10;" d="M 58.417969 440.628906 L 740.058594 440.628906 "/>
<path style="fill:none;stroke-width:1.939961;stroke-linecap:butt;stroke-linejoin:round;stroke:rgb(20%,20%,20%);stroke-opacity:1;stroke-miterlimit:10;" d="M 89.402344 445.609375 L 89.402344 440.628906 "/>
<path style="fill:none;stroke-width:1.939961;stroke-linecap:butt;stroke-linejoin:round;stroke:rgb(20%,20%,20%);stroke-opacity:1;stroke-miterlimit:10;" d="M 295.960938 445.609375 L 295.960938 440.628906 "/>
<path style="fill:none;stroke-width:1.939961;stroke-linecap:butt;stroke-linejoin:round;stroke:rgb(20%,20%,20%);stroke-opacity:1;stroke-miterlimit:10;" d="M 502.519531 445.609375 L 502.519531 440.628906 "/>
<path style="fill:none;stroke-width:1.939961;stroke-linecap:butt;stroke-linejoin:round;stroke:rgb(20%,20%,20%);stroke-opacity:1;stroke-miterlimit:10;" d="M 709.074219 445.609375 L 709.074219 440.628906 "/>
<path style=" stroke:none;fill-rule:evenodd;fill:rgb(12.941176%,12.941176%,12.941176%);fill-opacity:1;" d="M 84.246094 455.570312 L 84.246094 454.445312 L 88.324219 454.445312 L 88.324219 455.570312 Z M 84.246094 455.570312 "/>
<path style=" stroke:none;fill-rule:evenodd;fill:rgb(12.941176%,12.941176%,12.941176%);fill-opacity:1;" d="M 93.835938 449.882812 L 93.835938 459.515625 L 92.511719 459.515625 L 92.511719 451.292969 L 90.265625 452.660156 L 89.691406 451.726562 L 92.671875 449.882812 Z M 93.835938 449.882812 "/>
<path style=" stroke:none;fill-rule:evenodd;fill:rgb(12.941176%,12.941176%,12.941176%);fill-opacity:1;" d="M 295.960938 449.738281 L 296.273438 449.75 L 296.566406 449.789062 L 296.847656 449.851562 L 297.113281 449.941406 L 297.359375 450.058594 L 297.59375 450.199219 L 297.808594 450.367188 L 298.011719 450.558594 L 298.195312 450.777344 L 298.363281 451.019531 L 298.519531 451.285156 L 298.660156 451.574219 L 298.785156 451.882812 L 298.890625 452.21875 L 298.980469 452.574219 L 299.054688 452.953125 L 299.113281 453.359375 L 299.152344 453.785156 L 299.179688 454.234375 L 299.1875 454.707031 L 299.179688 455.179688 L 299.152344 455.628906 L 299.113281 456.054688 L 299.054688 456.460938 L 298.980469 456.839844 L 298.890625 457.199219 L 298.785156 457.535156 L 298.660156 457.847656 L 298.519531 458.140625 L 298.363281 458.40625 L 298.195312 458.648438 L 298.011719 458.867188 L 297.808594 459.058594 L 297.59375 459.226562 L 297.359375 459.367188 L 297.113281 459.484375 L 296.847656 459.574219 L 296.566406 459.636719 L 296.273438 459.675781 L 295.960938 459.6875 L 295.648438 459.675781 L 295.351562 459.636719 L 295.070312 459.574219 L 294.804688 459.484375 L 294.554688 459.367188 L 294.320312 459.226562 L 294.105469 459.058594 L 293.902344 458.867188 L 293.714844 458.648438 L 293.542969 458.40625 L 293.386719 458.140625 L 293.25 457.847656 L 293.128906 457.535156 L 293.023438 457.199219 L 292.9375 456.839844 L 292.863281 456.460938 L 292.808594 456.054688 L 292.765625 455.628906 L 292.742188 455.179688 L 292.734375 454.707031 L 292.742188 454.234375 L 292.765625 453.785156 L 292.808594 453.359375 L 292.863281 452.953125 L 292.9375 452.574219 L 293.023438 452.21875 L 293.128906 451.882812 L 293.25 451.574219 L 293.386719 451.285156 L 293.542969 451.019531 L 293.714844 450.777344 L 293.902344 450.558594 L 294.105469 450.367188 L 294.320312 450.199219 L 294.554688 450.058594 L 294.804688 449.941406 L 295.070312 449.851562 L 295.351562 449.789062 L 295.648438 449.75 Z M 295.960938 450.789062 L 295.777344 450.796875 L 295.605469 450.824219 L 295.441406 450.871094 L 295.289062 450.9375 L 295.144531 451.019531 L 295.007812 451.121094 L 294.882812 451.242188 L 294.765625 451.378906 L 294.660156 451.535156 L 294.5625 451.710938 L 294.480469 451.90625 L 294.402344 452.125 L 294.335938 452.367188 L 294.277344 452.632812 L 294.230469 452.921875 L 294.1875 453.230469 L 294.15625 453.566406 L 294.136719 453.921875 L 294.121094 454.304688 L 294.117188 454.707031 L 294.121094 455.109375 L 294.136719 455.488281 L 294.15625 455.847656 L 294.1875 456.183594 L 294.230469 456.496094 L 294.277344 456.785156 L 294.335938 457.050781 L 294.402344 457.296875 L 294.480469 457.515625 L 294.5625 457.714844 L 294.660156 457.890625 L 294.765625 458.046875 L 294.882812 458.1875 L 295.007812 458.304688 L 295.144531 458.40625 L 295.289062 458.488281 L 295.441406 458.554688 L 295.605469 458.601562 L 295.777344 458.628906 L 295.960938 458.636719 L 296.140625 458.628906 L 296.3125 458.601562 L 296.472656 458.554688 L 296.625 458.488281 L 296.765625 458.40625 L 296.902344 458.304688 L 297.023438 458.1875 L 297.140625 458.046875 L 297.246094 457.890625 L 297.34375 457.714844 L 297.429688 457.515625 L 297.507812 457.296875 L 297.578125 457.050781 L 297.636719 456.785156 L 297.6875 456.496094 L 297.730469 456.183594 L 297.761719 455.847656 L 297.785156 455.488281 L 297.800781 455.109375 L 297.804688 454.707031 L 297.800781 454.304688 L 297.785156 453.929688 L 297.761719 453.574219 L 297.730469 453.242188 L 297.6875 452.929688 L 297.636719 452.644531 L 297.578125 452.378906 L 297.507812 452.140625 L 297.429688 451.921875 L 297.34375 451.726562 L 297.246094 451.546875 L 297.140625 451.386719 L 297.023438 451.246094 L 296.902344 451.125 L 296.765625 451.023438 L 296.625 450.9375 L 296.472656 450.875 L 296.3125 450.828125 L 296.140625 450.796875 Z M 295.960938 450.789062 "/>
<path style=" stroke:none;fill-rule:evenodd;fill:rgb(12.941176%,12.941176%,12.941176%);fill-opacity:1;" d="M 504.050781 449.882812 L 504.050781 459.515625 L 502.726562 459.515625 L 502.726562 451.292969 L 500.480469 452.660156 L 499.90625 451.726562 L 502.886719 449.882812 Z M 504.050781 449.882812 "/>
<path style=" stroke:none;fill-rule:evenodd;fill:rgb(12.941176%,12.941176%,12.941176%);fill-opacity:1;" d="M 708.796875 449.738281 L 708.964844 449.742188 L 709.132812 449.75 L 709.292969 449.769531 L 709.453125 449.792969 L 709.605469 449.824219 L 709.753906 449.863281 L 709.898438 449.90625 L 710.039062 449.960938 L 710.175781 450.019531 L 710.308594 450.082031 L 710.4375 450.15625 L 710.558594 450.230469 L 710.675781 450.3125 L 710.789062 450.402344 L 710.894531 450.492188 L 710.992188 450.589844 L 711.085938 450.695312 L 711.171875 450.800781 L 711.253906 450.914062 L 711.328125 451.035156 L 711.398438 451.152344 L 711.460938 451.277344 L 711.511719 451.402344 L 711.558594 451.53125 L 711.601562 451.664062 L 711.632812 451.800781 L 711.65625 451.9375 L 711.675781 452.078125 L 711.6875 452.226562 L 711.691406 452.375 L 711.6875 452.546875 L 711.671875 452.722656 L 711.652344 452.894531 L 711.625 453.0625 L 711.589844 453.234375 L 711.542969 453.402344 L 711.492188 453.566406 L 711.433594 453.734375 L 711.363281 453.894531 L 711.285156 454.058594 L 711.203125 454.21875 L 711.113281 454.386719 L 711.015625 454.554688 L 710.90625 454.722656 L 710.789062 454.898438 L 710.664062 455.074219 L 710.53125 455.25 L 710.386719 455.429688 L 710.238281 455.613281 L 710.078125 455.800781 L 709.902344 455.996094 L 709.714844 456.203125 L 709.507812 456.429688 L 709.285156 456.667969 L 709.042969 456.921875 L 708.785156 457.1875 L 708.511719 457.46875 L 708.21875 457.769531 L 707.910156 458.078125 L 707.585938 458.40625 L 711.921875 458.40625 L 711.761719 459.515625 L 706.074219 459.515625 L 706.074219 458.464844 L 706.449219 458.074219 L 706.800781 457.707031 L 707.128906 457.359375 L 707.4375 457.035156 L 707.722656 456.734375 L 707.984375 456.453125 L 708.226562 456.191406 L 708.441406 455.953125 L 708.636719 455.734375 L 708.808594 455.542969 L 708.964844 455.355469 L 709.113281 455.175781 L 709.253906 455 L 709.382812 454.832031 L 709.5 454.667969 L 709.613281 454.507812 L 709.710938 454.351562 L 709.804688 454.199219 L 709.886719 454.054688 L 709.960938 453.914062 L 710.027344 453.773438 L 710.085938 453.632812 L 710.136719 453.488281 L 710.183594 453.34375 L 710.222656 453.199219 L 710.253906 453.046875 L 710.277344 452.898438 L 710.292969 452.742188 L 710.304688 452.589844 L 710.308594 452.429688 L 710.304688 452.285156 L 710.289062 452.144531 L 710.269531 452.011719 L 710.238281 451.882812 L 710.199219 451.765625 L 710.152344 451.652344 L 710.09375 451.542969 L 710.03125 451.445312 L 709.957031 451.351562 L 709.875 451.265625 L 709.785156 451.183594 L 709.691406 451.109375 L 709.589844 451.042969 L 709.484375 450.988281 L 709.371094 450.941406 L 709.253906 450.902344 L 709.128906 450.871094 L 709 450.851562 L 708.863281 450.835938 L 708.722656 450.832031 L 708.605469 450.835938 L 708.492188 450.84375 L 708.382812 450.855469 L 708.273438 450.871094 L 708.167969 450.894531 L 708.066406 450.921875 L 707.96875 450.953125 L 707.871094 450.988281 L 707.777344 451.03125 L 707.6875 451.078125 L 707.597656 451.128906 L 707.503906 451.1875 L 707.414062 451.253906 L 707.320312 451.324219 L 707.226562 451.402344 L 707.128906 451.484375 L 707.035156 451.574219 L 706.933594 451.671875 L 706.835938 451.773438 L 706.734375 451.882812 L 705.871094 451.191406 L 705.992188 451.050781 L 706.113281 450.914062 L 706.238281 450.785156 L 706.363281 450.664062 L 706.496094 450.550781 L 706.628906 450.445312 L 706.761719 450.347656 L 706.898438 450.257812 L 707.039062 450.171875 L 707.183594 450.097656 L 707.328125 450.03125 L 707.476562 449.96875 L 707.628906 449.914062 L 707.785156 449.867188 L 707.945312 449.828125 L 708.109375 449.796875 L 708.273438 449.769531 L 708.445312 449.753906 L 708.617188 449.742188 Z M 708.796875 449.738281 "/>
<path style=" stroke:none;fill-rule:evenodd;fill:rgb(27.058824%,27.058824%,27.058824%);fill-opacity:1;" d="M 68.808594 472.546875 L 63.390625 484.394531 L 61.652344 484.394531 L 59.535156 472.546875 L 61.222656 472.546875 L 62.734375 482.625 L 67.121094 472.546875 Z M 68.808594 472.546875 "/>
<path style=" stroke:none;fill-rule:evenodd;fill:rgb(27.058824%,27.058824%,27.058824%);fill-opacity:1;" d="M 73.570312 475.125 L 73.90625 475.132812 L 74.070312 475.140625 L 74.234375 475.15625 L 74.394531 475.171875 L 74.550781 475.195312 L 74.710938 475.21875 L 74.867188 475.246094 L 75.019531 475.277344 L 75.171875 475.316406 L 75.328125 475.355469 L 75.484375 475.398438 L 75.640625 475.445312 L 75.953125 475.554688 L 76.273438 475.679688 L 76.433594 475.75 L 76.753906 475.898438 L 75.824219 482.332031 L 75.820312 482.386719 L 75.8125 482.433594 L 75.808594 482.480469 L 75.804688 482.523438 L 75.796875 482.601562 L 75.792969 482.632812 L 75.792969 482.6875 L 75.789062 482.710938 L 75.800781 482.886719 L 75.808594 482.9375 L 75.820312 482.988281 L 75.835938 483.039062 L 75.851562 483.085938 L 75.867188 483.128906 L 75.886719 483.171875 L 75.910156 483.210938 L 75.972656 483.28125 L 76.050781 483.351562 L 76.097656 483.382812 L 76.144531 483.410156 L 76.195312 483.441406 L 76.3125 483.496094 L 76.375 483.519531 L 75.929688 484.601562 L 75.789062 484.582031 L 75.652344 484.558594 L 75.523438 484.527344 L 75.402344 484.488281 L 75.289062 484.449219 L 75.179688 484.398438 L 75.078125 484.347656 L 74.980469 484.289062 L 74.894531 484.226562 L 74.808594 484.15625 L 74.734375 484.078125 L 74.664062 483.996094 L 74.601562 483.90625 L 74.542969 483.8125 L 74.492188 483.707031 L 74.445312 483.597656 L 74.410156 483.480469 L 74.375 483.355469 L 74.347656 483.226562 L 74.328125 483.089844 L 74.21875 483.226562 L 74.101562 483.359375 L 73.984375 483.484375 L 73.867188 483.605469 L 73.742188 483.722656 L 73.492188 483.933594 L 73.359375 484.03125 L 73.226562 484.121094 L 73.089844 484.207031 L 72.953125 484.28125 L 72.8125 484.347656 L 72.667969 484.410156 L 72.527344 484.460938 L 72.382812 484.503906 L 72.234375 484.539062 L 72.085938 484.566406 L 71.933594 484.585938 L 71.78125 484.597656 L 71.628906 484.601562 L 71.359375 484.59375 L 71.101562 484.566406 L 70.859375 484.515625 L 70.625 484.453125 L 70.40625 484.367188 L 70.199219 484.261719 L 70.003906 484.140625 L 69.824219 483.996094 L 69.652344 483.835938 L 69.496094 483.65625 L 69.351562 483.460938 L 69.222656 483.253906 L 69.109375 483.03125 L 69.011719 482.796875 L 68.929688 482.550781 L 68.859375 482.292969 L 68.808594 482.019531 L 68.769531 481.734375 L 68.746094 481.4375 L 68.738281 481.128906 L 68.742188 480.851562 L 68.757812 480.578125 L 68.785156 480.300781 L 68.820312 480.027344 L 68.863281 479.753906 L 68.917969 479.476562 L 68.984375 479.203125 L 69.058594 478.925781 L 69.144531 478.652344 L 69.238281 478.375 L 69.347656 478.105469 L 69.464844 477.84375 L 69.597656 477.589844 L 69.742188 477.347656 L 69.894531 477.113281 L 70.0625 476.886719 L 70.238281 476.667969 L 70.425781 476.460938 L 70.625 476.261719 L 70.835938 476.070312 L 71.058594 475.890625 L 71.292969 475.730469 L 71.539062 475.589844 L 71.796875 475.464844 L 72.0625 475.363281 L 72.34375 475.277344 L 72.632812 475.210938 L 72.933594 475.164062 L 73.246094 475.136719 Z M 73.605469 476.382812 L 73.394531 476.386719 L 73.1875 476.410156 L 72.988281 476.449219 L 72.796875 476.5 L 72.613281 476.566406 L 72.4375 476.648438 L 72.265625 476.742188 L 72.105469 476.855469 L 71.949219 476.980469 L 71.800781 477.121094 L 71.664062 477.269531 L 71.53125 477.425781 L 71.410156 477.589844 L 71.292969 477.757812 L 71.183594 477.9375 L 71.085938 478.125 L 70.988281 478.316406 L 70.902344 478.519531 L 70.824219 478.726562 L 70.75 478.945312 L 70.6875 479.160156 L 70.632812 479.378906 L 70.585938 479.597656 L 70.542969 479.816406 L 70.507812 480.035156 L 70.476562 480.257812 L 70.453125 480.476562 L 70.4375 480.699219 L 70.425781 480.921875 L 70.425781 481.144531 L 70.429688 481.363281 L 70.441406 481.570312 L 70.460938 481.765625 L 70.488281 481.949219 L 70.523438 482.121094 L 70.566406 482.28125 L 70.617188 482.433594 L 70.675781 482.570312 L 70.746094 482.699219 L 70.820312 482.8125 L 70.902344 482.914062 L 70.992188 483.003906 L 71.089844 483.085938 L 71.191406 483.15625 L 71.300781 483.214844 L 71.417969 483.261719 L 71.542969 483.300781 L 71.671875 483.324219 L 71.8125 483.339844 L 71.957031 483.347656 L 72.09375 483.34375 L 72.230469 483.328125 L 72.363281 483.308594 L 72.496094 483.277344 L 72.621094 483.238281 L 72.746094 483.191406 L 72.867188 483.136719 L 72.984375 483.070312 L 73.097656 483 L 73.210938 482.917969 L 73.324219 482.828125 L 73.4375 482.730469 L 73.554688 482.625 L 73.671875 482.511719 L 73.785156 482.390625 L 73.90625 482.265625 L 74.023438 482.128906 L 74.140625 481.988281 L 74.261719 481.835938 L 74.378906 481.679688 L 75.085938 476.671875 L 75.011719 476.644531 L 74.941406 476.613281 L 74.871094 476.589844 L 74.800781 476.5625 L 74.730469 476.539062 L 74.519531 476.480469 L 74.378906 476.449219 L 74.246094 476.425781 L 74.171875 476.414062 L 74.101562 476.40625 L 73.945312 476.390625 L 73.78125 476.382812 Z M 73.605469 476.382812 "/>
<path style=" stroke:none;fill-rule:evenodd;fill:rgb(27.058824%,27.058824%,27.058824%);fill-opacity:1;" d="M 80.382812 482.625 L 80.378906 482.640625 L 80.378906 482.660156 L 80.375 482.679688 L 80.371094 482.703125 L 80.371094 482.722656 L 80.367188 482.746094 L 80.367188 482.894531 L 80.375 482.980469 L 80.382812 483.019531 L 80.390625 483.054688 L 80.402344 483.085938 L 80.417969 483.117188 L 80.449219 483.171875 L 80.46875 483.191406 L 80.515625 483.230469 L 80.542969 483.246094 L 80.570312 483.257812 L 80.601562 483.269531 L 80.671875 483.285156 L 80.710938 483.292969 L 80.753906 483.292969 L 80.796875 483.296875 L 80.847656 483.292969 L 80.902344 483.289062 L 80.960938 483.285156 L 81.019531 483.277344 L 81.078125 483.265625 L 81.144531 483.253906 L 81.207031 483.238281 L 81.273438 483.21875 L 81.34375 483.199219 L 81.414062 483.175781 L 81.742188 484.308594 L 81.613281 484.367188 L 81.355469 484.460938 L 81.226562 484.496094 L 81.101562 484.53125 L 80.851562 484.578125 L 80.730469 484.589844 L 80.605469 484.601562 L 80.488281 484.601562 L 80.332031 484.597656 L 80.183594 484.585938 L 80.042969 484.5625 L 79.910156 484.535156 L 79.78125 484.496094 L 79.660156 484.449219 L 79.546875 484.390625 L 79.441406 484.328125 L 79.339844 484.253906 L 79.246094 484.171875 L 79.167969 484.082031 L 79.09375 483.984375 L 79.027344 483.878906 L 78.972656 483.761719 L 78.925781 483.640625 L 78.886719 483.507812 L 78.855469 483.367188 L 78.835938 483.21875 L 78.824219 483.0625 L 78.816406 482.898438 L 78.820312 482.867188 L 78.820312 482.785156 L 78.824219 482.738281 L 78.828125 482.6875 L 78.832031 482.632812 L 78.835938 482.574219 L 78.839844 482.507812 L 78.847656 482.441406 L 78.851562 482.367188 L 80.367188 471.683594 L 81.949219 471.496094 Z M 80.382812 482.625 "/>
<path style=" stroke:none;fill-rule:evenodd;fill:rgb(27.058824%,27.058824%,27.058824%);fill-opacity:1;" d="M 86.058594 484.601562 L 85.855469 484.597656 L 85.65625 484.578125 L 85.46875 484.550781 L 85.292969 484.507812 L 85.121094 484.457031 L 84.960938 484.390625 L 84.808594 484.316406 L 84.667969 484.226562 L 84.53125 484.128906 L 84.40625 484.019531 L 84.296875 483.894531 L 84.199219 483.757812 L 84.109375 483.617188 L 84.035156 483.464844 L 83.96875 483.304688 L 83.917969 483.132812 L 83.875 482.957031 L 83.847656 482.769531 L 83.828125 482.570312 L 83.824219 482.367188 L 83.824219 482.25 L 83.828125 482.191406 L 83.832031 482.128906 L 83.835938 482.070312 L 83.84375 482.007812 L 83.847656 481.949219 L 83.855469 481.886719 L 83.863281 481.828125 L 83.875 481.765625 L 84.785156 475.332031 L 86.351562 475.332031 L 85.457031 481.695312 L 85.449219 481.757812 L 85.4375 481.816406 L 85.429688 481.875 L 85.425781 481.933594 L 85.417969 481.992188 L 85.414062 482.046875 L 85.410156 482.105469 L 85.40625 482.15625 L 85.40625 482.378906 L 85.414062 482.484375 L 85.425781 482.585938 L 85.445312 482.679688 L 85.464844 482.765625 L 85.492188 482.847656 L 85.523438 482.921875 L 85.558594 482.988281 L 85.601562 483.050781 L 85.644531 483.105469 L 85.699219 483.15625 L 85.757812 483.199219 L 85.824219 483.238281 L 85.890625 483.269531 L 85.964844 483.300781 L 86.042969 483.324219 L 86.125 483.339844 L 86.214844 483.355469 L 86.304688 483.363281 L 86.402344 483.363281 L 86.558594 483.359375 L 86.707031 483.339844 L 86.855469 483.3125 L 87.003906 483.269531 L 87.148438 483.21875 L 87.289062 483.152344 L 87.429688 483.078125 L 87.566406 482.988281 L 87.699219 482.890625 L 87.832031 482.78125 L 87.964844 482.660156 L 88.097656 482.53125 L 88.230469 482.394531 L 88.363281 482.25 L 88.496094 482.101562 L 88.628906 481.941406 L 88.761719 481.773438 L 88.894531 481.601562 L 89.023438 481.421875 L 89.15625 481.230469 L 89.980469 475.332031 L 91.546875 475.332031 L 90.273438 484.394531 L 88.929688 484.394531 L 89.050781 482.726562 L 88.917969 482.910156 L 88.78125 483.082031 L 88.644531 483.246094 L 88.507812 483.398438 L 88.367188 483.542969 L 88.226562 483.679688 L 88.085938 483.808594 L 87.945312 483.925781 L 87.804688 484.039062 L 87.660156 484.136719 L 87.515625 484.226562 L 87.371094 484.304688 L 87.21875 484.375 L 87.0625 484.433594 L 86.90625 484.488281 L 86.746094 484.527344 L 86.578125 484.5625 L 86.410156 484.585938 L 86.234375 484.597656 Z M 86.058594 484.601562 "/>
<path style=" stroke:none;fill-rule:evenodd;fill:rgb(27.058824%,27.058824%,27.058824%);fill-opacity:1;" d="M 100.953125 477.429688 L 100.9375 477.769531 L 100.890625 478.085938 L 100.816406 478.386719 L 100.707031 478.664062 L 100.566406 478.925781 L 100.398438 479.167969 L 100.195312 479.390625 L 99.964844 479.59375 L 99.699219 479.777344 L 99.40625 479.941406 L 99.085938 480.089844 L 98.738281 480.230469 L 98.367188 480.363281 L 97.96875 480.484375 L 97.550781 480.597656 L 97.101562 480.703125 L 96.632812 480.796875 L 96.136719 480.882812 L 95.617188 480.957031 L 95.070312 481.023438 L 95.101562 481.453125 L 95.167969 481.835938 L 95.269531 482.175781 L 95.410156 482.46875 L 95.589844 482.714844 L 95.800781 482.917969 L 96.054688 483.074219 L 96.34375 483.1875 L 96.667969 483.253906 L 97.03125 483.277344 L 97.160156 483.277344 L 97.285156 483.269531 L 97.535156 483.246094 L 97.65625 483.226562 L 97.777344 483.203125 L 97.898438 483.175781 L 98.019531 483.144531 L 98.136719 483.109375 L 98.253906 483.070312 L 98.371094 483.027344 L 98.488281 482.980469 L 98.609375 482.929688 L 98.726562 482.871094 L 98.847656 482.808594 L 98.96875 482.742188 L 99.089844 482.671875 L 99.210938 482.597656 L 99.335938 482.519531 L 99.457031 482.433594 L 100.128906 483.5 L 99.820312 483.710938 L 99.507812 483.898438 L 99.191406 484.0625 L 98.875 484.207031 L 98.550781 484.328125 L 98.222656 484.425781 L 97.894531 484.503906 L 97.558594 484.558594 L 97.21875 484.589844 L 96.878906 484.601562 L 96.554688 484.59375 L 96.246094 484.5625 L 95.953125 484.515625 L 95.675781 484.449219 L 95.410156 484.363281 L 95.164062 484.253906 L 94.929688 484.128906 L 94.710938 483.984375 L 94.503906 483.824219 L 94.316406 483.640625 L 94.144531 483.4375 L 93.992188 483.21875 L 93.859375 482.984375 L 93.742188 482.734375 L 93.644531 482.46875 L 93.5625 482.191406 L 93.5 481.894531 L 93.457031 481.585938 L 93.429688 481.261719 L 93.421875 480.921875 L 93.425781 480.648438 L 93.4375 480.378906 L 93.460938 480.109375 L 93.496094 479.839844 L 93.535156 479.570312 L 93.589844 479.304688 L 93.648438 479.035156 L 93.71875 478.769531 L 93.796875 478.503906 L 93.886719 478.238281 L 93.988281 477.976562 L 94.101562 477.71875 L 94.226562 477.476562 L 94.363281 477.238281 L 94.507812 477.011719 L 94.667969 476.796875 L 94.835938 476.589844 L 95.019531 476.390625 L 95.210938 476.199219 L 95.417969 476.019531 L 95.632812 475.851562 L 95.859375 475.699219 L 96.097656 475.5625 L 96.347656 475.449219 L 96.605469 475.347656 L 96.878906 475.269531 L 97.164062 475.207031 L 97.457031 475.160156 L 97.765625 475.132812 L 98.082031 475.125 L 98.351562 475.132812 L 98.605469 475.152344 L 98.851562 475.1875 L 99.082031 475.234375 L 99.300781 475.292969 L 99.503906 475.367188 L 99.695312 475.453125 L 99.875 475.554688 L 100.042969 475.667969 L 100.199219 475.796875 L 100.339844 475.933594 L 100.46875 476.078125 L 100.582031 476.226562 L 100.683594 476.378906 L 100.765625 476.539062 L 100.832031 476.707031 L 100.886719 476.878906 L 100.925781 477.054688 L 100.945312 477.242188 Z M 95.15625 479.820312 L 95.574219 479.769531 L 95.964844 479.714844 L 96.335938 479.652344 L 96.683594 479.585938 L 97.007812 479.515625 L 97.308594 479.4375 L 97.585938 479.359375 L 97.84375 479.269531 L 98.078125 479.179688 L 98.289062 479.082031 L 98.480469 478.976562 L 98.652344 478.859375 L 98.804688 478.726562 L 98.9375 478.585938 L 99.050781 478.433594 L 99.140625 478.265625 L 99.210938 478.089844 L 99.261719 477.898438 L 99.292969 477.695312 L 99.304688 477.480469 L 99.300781 477.398438 L 99.292969 477.320312 L 99.277344 477.242188 L 99.257812 477.164062 L 99.230469 477.085938 L 99.199219 477.011719 L 99.160156 476.9375 L 99.117188 476.867188 L 99.066406 476.792969 L 99.011719 476.726562 L 98.949219 476.660156 L 98.878906 476.601562 L 98.804688 476.550781 L 98.71875 476.503906 L 98.628906 476.46875 L 98.53125 476.4375 L 98.425781 476.410156 L 98.3125 476.394531 L 98.191406 476.382812 L 98.066406 476.382812 L 97.808594 476.390625 L 97.566406 476.421875 L 97.335938 476.472656 L 97.117188 476.539062 L 96.90625 476.628906 L 96.714844 476.738281 L 96.53125 476.871094 L 96.359375 477.019531 L 96.199219 477.1875 L 96.050781 477.378906 L 95.917969 477.582031 L 95.789062 477.796875 L 95.675781 478.015625 L 95.570312 478.25 L 95.476562 478.488281 L 95.390625 478.738281 L 95.316406 478.996094 L 95.253906 479.261719 L 95.199219 479.535156 Z M 95.15625 479.820312 "/>
<path style=" stroke:none;fill-rule:evenodd;fill:rgb(27.058824%,27.058824%,27.058824%);fill-opacity:1;" d="M 15.941406 67.832031 L 15.949219 67.371094 L 15.980469 66.929688 L 16.027344 66.503906 L 16.097656 66.097656 L 16.183594 65.710938 L 16.292969 65.34375 L 16.421875 64.996094 L 16.566406 64.667969 L 16.734375 64.355469 L 16.921875 64.066406 L 17.128906 63.796875 L 17.371094 63.558594 L 17.640625 63.347656 L 17.945312 63.164062 L 18.28125 63.007812 L 18.644531 62.882812 L 19.042969 62.78125 L 19.472656 62.710938 L 19.9375 62.667969 L 20.429688 62.65625 L 20.828125 62.660156 L 21.21875 62.679688 L 21.605469 62.714844 L 21.984375 62.761719 L 22.355469 62.820312 L 22.71875 62.890625 L 23.078125 62.976562 L 23.429688 63.074219 L 23.773438 63.183594 L 24.109375 63.308594 L 24.4375 63.449219 L 24.75 63.601562 L 25.050781 63.773438 L 25.339844 63.957031 L 25.613281 64.160156 L 25.878906 64.378906 L 26.125 64.613281 L 26.363281 64.859375 L 26.582031 65.125 L 26.792969 65.40625 L 26.984375 65.699219 L 27.152344 66.011719 L 27.300781 66.335938 L 27.433594 66.679688 L 27.542969 67.039062 L 27.632812 67.410156 L 27.703125 67.800781 L 27.75 68.207031 L 27.78125 68.632812 L 27.792969 69.070312 L 27.792969 71.925781 L 15.941406 70.257812 Z M 17.246094 68.832031 L 26.5 70.121094 L 26.5 68.832031 L 26.492188 68.511719 L 26.464844 68.207031 L 26.421875 67.914062 L 26.359375 67.632812 L 26.277344 67.363281 L 26.179688 67.105469 L 26.0625 66.863281 L 25.929688 66.628906 L 25.777344 66.40625 L 25.605469 66.199219 L 25.421875 66 L 25.230469 65.816406 L 25.027344 65.640625 L 24.8125 65.480469 L 24.59375 65.328125 L 24.359375 65.191406 L 24.117188 65.066406 L 23.867188 64.949219 L 23.605469 64.84375 L 23.335938 64.753906 L 23.058594 64.667969 L 22.777344 64.59375 L 22.492188 64.527344 L 22.207031 64.46875 L 21.914062 64.417969 L 21.617188 64.378906 L 21.316406 64.347656 L 21.011719 64.324219 L 20.707031 64.3125 L 20.394531 64.304688 L 20.140625 64.3125 L 19.898438 64.324219 L 19.667969 64.347656 L 19.449219 64.378906 L 19.242188 64.417969 L 19.050781 64.46875 L 18.867188 64.527344 L 18.699219 64.59375 L 18.542969 64.667969 L 18.398438 64.753906 L 18.265625 64.847656 L 18.144531 64.945312 L 18.027344 65.046875 L 17.921875 65.15625 L 17.828125 65.269531 L 17.742188 65.390625 L 17.664062 65.515625 L 17.597656 65.644531 L 17.539062 65.78125 L 17.488281 65.921875 L 17.441406 66.066406 L 17.402344 66.214844 L 17.367188 66.371094 L 17.335938 66.527344 L 17.308594 66.691406 L 17.285156 66.863281 L 17.269531 67.039062 L 17.257812 67.21875 L 17.25 67.402344 L 17.246094 67.59375 Z M 17.246094 68.832031 "/>
<path style=" stroke:none;fill-rule:evenodd;fill:rgb(27.058824%,27.058824%,27.058824%);fill-opacity:1;" d="M 20.824219 53.574219 L 21.164062 53.589844 L 21.480469 53.636719 L 21.78125 53.714844 L 22.0625 53.820312 L 22.320312 53.960938 L 22.5625 54.132812 L 22.785156 54.332031 L 22.988281 54.566406 L 23.171875 54.828125 L 23.335938 55.121094 L 23.488281 55.445312 L 23.628906 55.789062 L 23.757812 56.160156 L 23.882812 56.558594 L 23.992188 56.980469 L 24.097656 57.425781 L 24.191406 57.894531 L 24.277344 58.390625 L 24.351562 58.910156 L 24.417969 59.457031 L 24.847656 59.425781 L 25.230469 59.359375 L 25.570312 59.257812 L 25.863281 59.117188 L 26.109375 58.941406 L 26.3125 58.726562 L 26.46875 58.472656 L 26.582031 58.183594 L 26.652344 57.859375 L 26.671875 57.496094 L 26.671875 57.367188 L 26.65625 57.117188 L 26.640625 56.996094 L 26.621094 56.871094 L 26.597656 56.75 L 26.570312 56.628906 L 26.539062 56.511719 L 26.503906 56.390625 L 26.464844 56.273438 L 26.421875 56.15625 L 26.375 56.039062 L 26.324219 55.921875 L 26.265625 55.800781 L 26.203125 55.679688 L 26.136719 55.558594 L 26.066406 55.4375 L 25.992188 55.316406 L 25.914062 55.195312 L 25.832031 55.070312 L 26.898438 54.398438 L 27.105469 54.707031 L 27.292969 55.019531 L 27.457031 55.335938 L 27.601562 55.65625 L 27.722656 55.976562 L 27.820312 56.304688 L 27.898438 56.636719 L 27.953125 56.96875 L 27.988281 57.308594 L 27.996094 57.648438 L 27.988281 57.972656 L 27.957031 58.28125 L 27.910156 58.574219 L 27.84375 58.851562 L 27.757812 59.117188 L 27.652344 59.367188 L 27.527344 59.597656 L 27.382812 59.820312 L 27.21875 60.023438 L 27.035156 60.214844 L 26.832031 60.382812 L 26.613281 60.535156 L 26.378906 60.667969 L 26.128906 60.785156 L 25.863281 60.882812 L 25.585938 60.964844 L 25.289062 61.027344 L 24.980469 61.070312 L 24.65625 61.097656 L 24.316406 61.109375 L 24.046875 61.101562 L 23.773438 61.089844 L 23.503906 61.066406 L 23.234375 61.03125 L 22.964844 60.992188 L 22.699219 60.941406 L 22.429688 60.878906 L 22.164062 60.808594 L 21.898438 60.730469 L 21.632812 60.644531 L 21.371094 60.542969 L 21.117188 60.425781 L 20.871094 60.304688 L 20.632812 60.167969 L 20.40625 60.019531 L 20.191406 59.859375 L 19.984375 59.691406 L 19.785156 59.507812 L 19.59375 59.316406 L 19.414062 59.113281 L 19.246094 58.898438 L 19.09375 58.667969 L 18.957031 58.429688 L 18.84375 58.183594 L 18.742188 57.921875 L 18.664062 57.648438 L 18.601562 57.363281 L 18.554688 57.070312 L 18.527344 56.765625 L 18.519531 56.445312 L 18.527344 56.175781 L 18.546875 55.921875 L 18.582031 55.679688 L 18.628906 55.445312 L 18.6875 55.230469 L 18.761719 55.023438 L 18.847656 54.832031 L 18.949219 54.652344 L 19.0625 54.484375 L 19.191406 54.332031 L 19.328125 54.1875 L 19.472656 54.058594 L 19.621094 53.945312 L 19.773438 53.847656 L 19.933594 53.761719 L 20.101562 53.695312 L 20.273438 53.640625 L 20.453125 53.605469 L 20.636719 53.582031 Z M 23.214844 59.371094 L 23.164062 58.953125 L 23.109375 58.5625 L 23.046875 58.191406 L 22.980469 57.84375 L 22.910156 57.519531 L 22.832031 57.21875 L 22.753906 56.941406 L 22.664062 56.683594 L 22.574219 56.449219 L 22.476562 56.238281 L 22.371094 56.046875 L 22.253906 55.875 L 22.121094 55.722656 L 21.980469 55.589844 L 21.828125 55.480469 L 21.660156 55.386719 L 21.484375 55.316406 L 21.292969 55.265625 L 21.089844 55.234375 L 20.875 55.226562 L 20.792969 55.226562 L 20.636719 55.25 L 20.480469 55.296875 L 20.332031 55.367188 L 20.261719 55.414062 L 20.1875 55.460938 L 20.121094 55.515625 L 20.054688 55.578125 L 19.996094 55.648438 L 19.945312 55.726562 L 19.898438 55.808594 L 19.863281 55.898438 L 19.832031 56 L 19.808594 56.105469 L 19.789062 56.214844 L 19.777344 56.335938 L 19.777344 56.464844 L 19.785156 56.71875 L 19.816406 56.960938 L 19.867188 57.195312 L 19.933594 57.414062 L 20.023438 57.621094 L 20.136719 57.816406 L 20.265625 58 L 20.414062 58.167969 L 20.582031 58.328125 L 20.773438 58.476562 L 20.976562 58.613281 L 21.191406 58.738281 L 21.414062 58.851562 L 21.644531 58.957031 L 21.882812 59.050781 L 22.132812 59.136719 L 22.390625 59.210938 L 22.65625 59.273438 L 22.929688 59.328125 Z M 23.214844 59.371094 "/>
<path style=" stroke:none;fill-rule:evenodd;fill:rgb(27.058824%,27.058824%,27.058824%);fill-opacity:1;" d="M 18.519531 46.503906 L 18.527344 46.308594 L 18.546875 46.121094 L 18.574219 45.945312 L 18.621094 45.773438 L 18.675781 45.613281 L 18.742188 45.460938 L 18.824219 45.320312 L 18.917969 45.183594 L 19.023438 45.058594 L 19.140625 44.9375 L 19.265625 44.828125 L 19.398438 44.730469 L 19.542969 44.640625 L 19.695312 44.566406 L 19.859375 44.5 L 20.027344 44.449219 L 20.210938 44.40625 L 20.398438 44.378906 L 20.597656 44.359375 L 20.808594 44.355469 L 20.921875 44.355469 L 21.039062 44.363281 L 21.101562 44.367188 L 21.164062 44.375 L 21.226562 44.378906 L 21.359375 44.394531 L 21.425781 44.40625 L 27.792969 45.300781 L 27.792969 46.867188 L 21.460938 45.972656 L 21.386719 45.964844 L 21.320312 45.960938 L 21.257812 45.953125 L 21.199219 45.949219 L 21.148438 45.945312 L 21.101562 45.941406 L 21.058594 45.941406 L 21.019531 45.9375 L 20.960938 45.9375 L 20.84375 45.941406 L 20.734375 45.949219 L 20.632812 45.960938 L 20.535156 45.976562 L 20.445312 46 L 20.363281 46.03125 L 20.289062 46.0625 L 20.21875 46.101562 L 20.15625 46.144531 L 20.101562 46.195312 L 20.054688 46.25 L 20.007812 46.308594 L 19.972656 46.371094 L 19.9375 46.4375 L 19.910156 46.507812 L 19.886719 46.585938 L 19.867188 46.664062 L 19.855469 46.75 L 19.847656 46.839844 L 19.84375 46.933594 L 19.851562 47.09375 L 19.871094 47.25 L 19.90625 47.40625 L 19.957031 47.558594 L 20.019531 47.714844 L 20.097656 47.867188 L 20.191406 48.015625 L 20.296875 48.167969 L 20.414062 48.316406 L 20.550781 48.464844 L 20.695312 48.609375 L 20.847656 48.75 L 21.007812 48.890625 L 21.175781 49.027344 L 21.355469 49.160156 L 21.539062 49.296875 L 21.730469 49.425781 L 21.929688 49.554688 L 22.140625 49.683594 L 22.355469 49.808594 L 27.792969 50.5625 L 27.792969 52.128906 L 18.726562 50.855469 L 18.726562 49.515625 L 20.5 49.652344 L 20.3125 49.515625 L 20.136719 49.378906 L 19.96875 49.242188 L 19.808594 49.097656 L 19.660156 48.957031 L 19.519531 48.808594 L 19.382812 48.664062 L 19.261719 48.511719 L 19.144531 48.359375 L 19.035156 48.207031 L 18.9375 48.050781 L 18.851562 47.890625 L 18.773438 47.730469 L 18.707031 47.5625 L 18.648438 47.394531 L 18.601562 47.222656 L 18.566406 47.046875 L 18.539062 46.871094 L 18.523438 46.6875 Z M 18.519531 46.503906 "/>
<path style=" stroke:none;fill-rule:evenodd;fill:rgb(27.058824%,27.058824%,27.058824%);fill-opacity:1;" d="M 18.519531 38.609375 L 18.53125 38.269531 L 18.566406 37.941406 L 18.621094 37.621094 L 18.699219 37.308594 L 18.800781 37.007812 L 18.921875 36.714844 L 19.066406 36.429688 L 19.234375 36.15625 L 19.425781 35.890625 L 19.636719 35.632812 L 20.585938 36.410156 L 20.429688 36.613281 L 20.292969 36.820312 L 20.171875 37.035156 L 20.066406 37.25 L 19.976562 37.46875 L 19.90625 37.695312 L 19.847656 37.921875 L 19.808594 38.152344 L 19.785156 38.386719 L 19.777344 38.628906 L 19.777344 38.789062 L 19.789062 38.945312 L 19.804688 39.09375 L 19.828125 39.234375 L 19.859375 39.371094 L 19.894531 39.5 L 19.9375 39.621094 L 19.984375 39.738281 L 20.039062 39.847656 L 20.101562 39.953125 L 20.171875 40.042969 L 20.242188 40.125 L 20.320312 40.195312 L 20.402344 40.257812 L 20.488281 40.3125 L 20.582031 40.355469 L 20.679688 40.390625 L 20.78125 40.414062 L 20.886719 40.429688 L 20.996094 40.433594 L 21.097656 40.429688 L 21.195312 40.417969 L 21.285156 40.398438 L 21.371094 40.371094 L 21.453125 40.335938 L 21.53125 40.289062 L 21.601562 40.238281 L 21.667969 40.179688 L 21.730469 40.113281 L 21.789062 40.039062 L 21.84375 39.949219 L 21.898438 39.847656 L 21.957031 39.734375 L 22.015625 39.609375 L 22.070312 39.472656 L 22.128906 39.324219 L 22.191406 39.164062 L 22.25 38.992188 L 22.3125 38.808594 L 22.371094 38.609375 L 22.457031 38.351562 L 22.546875 38.109375 L 22.640625 37.878906 L 22.738281 37.664062 L 22.839844 37.460938 L 22.949219 37.273438 L 23.058594 37.101562 L 23.175781 36.941406 L 23.296875 36.796875 L 23.421875 36.667969 L 23.550781 36.546875 L 23.6875 36.441406 L 23.832031 36.351562 L 23.988281 36.269531 L 24.148438 36.203125 L 24.320312 36.144531 L 24.5 36.101562 L 24.6875 36.070312 L 24.886719 36.054688 L 25.089844 36.046875 L 25.28125 36.050781 L 25.464844 36.066406 L 25.640625 36.09375 L 25.8125 36.132812 L 25.976562 36.179688 L 26.136719 36.238281 L 26.289062 36.308594 L 26.433594 36.386719 L 26.574219 36.480469 L 26.707031 36.582031 L 26.835938 36.691406 L 26.957031 36.804688 L 27.070312 36.929688 L 27.179688 37.058594 L 27.28125 37.195312 L 27.375 37.335938 L 27.460938 37.488281 L 27.542969 37.640625 L 27.621094 37.804688 L 27.6875 37.972656 L 27.746094 38.144531 L 27.800781 38.316406 L 27.847656 38.492188 L 27.886719 38.671875 L 27.921875 38.855469 L 27.949219 39.039062 L 27.96875 39.230469 L 27.984375 39.421875 L 27.996094 39.617188 L 27.996094 39.8125 L 27.984375 40.210938 L 27.945312 40.59375 L 27.878906 40.960938 L 27.789062 41.316406 L 27.671875 41.660156 L 27.527344 41.988281 L 27.355469 42.300781 L 27.160156 42.605469 L 26.9375 42.894531 L 26.691406 43.167969 L 25.777344 42.273438 L 25.957031 42.046875 L 26.121094 41.816406 L 26.261719 41.578125 L 26.382812 41.332031 L 26.488281 41.082031 L 26.574219 40.828125 L 26.640625 40.566406 L 26.6875 40.296875 L 26.714844 40.023438 L 26.726562 39.746094 L 26.71875 39.535156 L 26.707031 39.335938 L 26.683594 39.148438 L 26.652344 38.972656 L 26.613281 38.8125 L 26.5625 38.660156 L 26.503906 38.523438 L 26.4375 38.398438 L 26.363281 38.28125 L 26.277344 38.179688 L 26.183594 38.089844 L 26.085938 38.007812 L 25.988281 37.933594 L 25.890625 37.871094 L 25.789062 37.820312 L 25.683594 37.773438 L 25.578125 37.742188 L 25.46875 37.71875 L 25.359375 37.703125 L 25.246094 37.699219 L 25.15625 37.699219 L 25.066406 37.707031 L 24.984375 37.714844 L 24.902344 37.726562 L 24.828125 37.742188 L 24.6875 37.78125 L 24.5625 37.835938 L 24.503906 37.871094 L 24.453125 37.90625 L 24.398438 37.949219 L 24.347656 37.996094 L 24.296875 38.046875 L 24.246094 38.101562 L 24.199219 38.164062 L 24.152344 38.230469 L 24.109375 38.300781 L 24.066406 38.375 L 24.023438 38.453125 L 23.984375 38.539062 L 23.941406 38.628906 L 23.898438 38.726562 L 23.855469 38.828125 L 23.808594 38.941406 L 23.765625 39.058594 L 23.71875 39.1875 L 23.671875 39.320312 L 23.625 39.460938 L 23.578125 39.609375 L 23.496094 39.863281 L 23.410156 40.101562 L 23.324219 40.324219 L 23.234375 40.535156 L 23.136719 40.730469 L 23.039062 40.910156 L 22.9375 41.074219 L 22.832031 41.226562 L 22.726562 41.359375 L 22.613281 41.480469 L 22.492188 41.585938 L 22.367188 41.679688 L 22.230469 41.761719 L 22.089844 41.835938 L 21.941406 41.894531 L 21.789062 41.945312 L 21.625 41.984375 L 21.457031 42.011719 L 21.28125 42.027344 L 21.101562 42.03125 L 20.972656 42.027344 L 20.847656 42.015625 L 20.722656 42 L 20.597656 41.972656 L 20.476562 41.9375 L 20.355469 41.894531 L 20.234375 41.847656 L 20.113281 41.789062 L 19.996094 41.726562 L 19.878906 41.652344 L 19.761719 41.574219 L 19.648438 41.488281 L 19.539062 41.390625 L 19.433594 41.289062 L 19.332031 41.175781 L 19.238281 41.058594 L 19.144531 40.929688 L 19.058594 40.796875 L 18.976562 40.652344 L 18.898438 40.5 L 18.828125 40.34375 L 18.761719 40.179688 L 18.707031 40.007812 L 18.65625 39.828125 L 18.613281 39.640625 L 18.582031 39.449219 L 18.554688 39.25 L 18.535156 39.042969 L 18.523438 38.828125 Z M 18.519531 38.609375 "/>
<path style=" stroke:none;fill-rule:evenodd;fill:rgb(27.058824%,27.058824%,27.058824%);fill-opacity:1;" d="M 18.726562 31.386719 L 27.792969 32.660156 L 27.792969 34.222656 L 18.726562 32.949219 Z M 16.523438 31.796875 L 16.523438 31.890625 L 16.515625 31.976562 L 16.5 32.058594 L 16.480469 32.140625 L 16.457031 32.214844 L 16.425781 32.289062 L 16.390625 32.355469 L 16.347656 32.421875 L 16.300781 32.480469 L 16.25 32.539062 L 16.191406 32.589844 L 16.128906 32.636719 L 16.0625 32.679688 L 15.996094 32.714844 L 15.925781 32.746094 L 15.855469 32.769531 L 15.78125 32.789062 L 15.625 32.8125 L 15.542969 32.8125 L 15.445312 32.808594 L 15.351562 32.800781 L 15.261719 32.78125 L 15.171875 32.757812 L 15.089844 32.726562 L 15.007812 32.691406 L 14.929688 32.644531 L 14.855469 32.59375 L 14.785156 32.535156 L 14.71875 32.46875 L 14.652344 32.398438 L 14.59375 32.324219 L 14.542969 32.25 L 14.5 32.167969 L 14.460938 32.085938 L 14.429688 32 L 14.40625 31.910156 L 14.390625 31.820312 L 14.378906 31.726562 L 14.375 31.625 L 14.378906 31.535156 L 14.386719 31.449219 L 14.398438 31.363281 L 14.417969 31.285156 L 14.472656 31.136719 L 14.550781 31.003906 L 14.597656 30.945312 L 14.648438 30.886719 L 14.707031 30.835938 L 14.765625 30.789062 L 14.828125 30.746094 L 14.894531 30.710938 L 14.964844 30.679688 L 15.035156 30.65625 L 15.113281 30.636719 L 15.191406 30.621094 L 15.269531 30.613281 L 15.355469 30.613281 L 15.453125 30.617188 L 15.546875 30.625 L 15.640625 30.644531 L 15.730469 30.667969 L 15.816406 30.699219 L 15.898438 30.734375 L 15.976562 30.78125 L 16.054688 30.832031 L 16.128906 30.890625 L 16.199219 30.957031 L 16.261719 31.027344 L 16.316406 31.101562 L 16.363281 31.175781 L 16.40625 31.253906 L 16.441406 31.339844 L 16.472656 31.425781 L 16.496094 31.511719 L 16.511719 31.605469 L 16.523438 31.699219 Z M 16.523438 31.796875 "/>
<path style=" stroke:none;fill-rule:evenodd;fill:rgb(27.058824%,27.058824%,27.058824%);fill-opacity:1;" d="M 25.398438 27.429688 L 25.464844 27.4375 L 25.527344 27.441406 L 25.585938 27.449219 L 25.636719 27.453125 L 25.683594 27.457031 L 25.726562 27.457031 L 25.765625 27.460938 L 25.796875 27.460938 L 25.824219 27.464844 L 25.847656 27.464844 L 26.011719 27.457031 L 26.085938 27.445312 L 26.15625 27.433594 L 26.222656 27.417969 L 26.339844 27.371094 L 26.390625 27.34375 L 26.441406 27.3125 L 26.484375 27.273438 L 26.519531 27.230469 L 26.550781 27.183594 L 26.582031 27.132812 L 26.605469 27.078125 L 26.644531 26.953125 L 26.65625 26.886719 L 26.664062 26.8125 L 26.671875 26.734375 L 26.671875 26.59375 L 26.667969 26.53125 L 26.664062 26.472656 L 26.660156 26.410156 L 26.652344 26.351562 L 26.640625 26.289062 L 26.632812 26.230469 L 26.585938 26.054688 L 26.566406 25.992188 L 26.542969 25.925781 L 26.515625 25.859375 L 26.492188 25.792969 L 26.460938 25.722656 L 26.433594 25.652344 L 26.402344 25.578125 L 26.367188 25.503906 L 26.332031 25.425781 L 26.292969 25.347656 L 27.394531 24.832031 L 27.511719 25.023438 L 27.613281 25.214844 L 27.703125 25.410156 L 27.78125 25.609375 L 27.847656 25.808594 L 27.902344 26.011719 L 27.941406 26.214844 L 27.972656 26.421875 L 27.992188 26.632812 L 27.996094 26.84375 L 27.992188 27.050781 L 27.976562 27.246094 L 27.949219 27.429688 L 27.914062 27.605469 L 27.863281 27.773438 L 27.804688 27.929688 L 27.734375 28.078125 L 27.65625 28.214844 L 27.566406 28.34375 L 27.464844 28.460938 L 27.351562 28.570312 L 27.226562 28.667969 L 27.09375 28.75 L 26.953125 28.824219 L 26.800781 28.886719 L 26.644531 28.9375 L 26.472656 28.976562 L 26.296875 29.007812 L 26.109375 29.023438 L 25.917969 29.03125 L 25.847656 29.027344 L 25.714844 29.027344 L 25.597656 29.019531 L 25.542969 29.015625 L 25.449219 29.007812 L 25.40625 29 L 25.367188 28.996094 L 19.949219 28.238281 L 19.949219 29.804688 L 18.726562 29.632812 L 18.726562 27.996094 L 16.628906 27.429688 L 16.492188 26.191406 L 18.726562 26.5 L 18.726562 24.367188 L 19.949219 24.710938 L 19.949219 26.671875 Z M 25.398438 27.429688 "/>
<path style=" stroke:none;fill-rule:evenodd;fill:rgb(27.058824%,27.058824%,27.058824%);fill-opacity:1;" d="M 27.878906 19.65625 L 28.183594 19.800781 L 28.476562 19.953125 L 28.757812 20.117188 L 29.023438 20.285156 L 29.277344 20.464844 L 29.519531 20.648438 L 29.746094 20.84375 L 29.964844 21.046875 L 30.164062 21.257812 L 30.355469 21.480469 L 30.527344 21.707031 L 30.691406 21.953125 L 30.835938 22.210938 L 30.96875 22.480469 L 31.085938 22.765625 L 31.1875 23.0625 L 31.277344 23.371094 L 31.351562 23.695312 L 31.410156 24.035156 L 31.453125 24.386719 L 30.214844 24.453125 L 30.183594 24.273438 L 30.148438 24.097656 L 30.109375 23.929688 L 30.070312 23.769531 L 30.027344 23.617188 L 29.980469 23.46875 L 29.933594 23.332031 L 29.878906 23.199219 L 29.824219 23.074219 L 29.769531 22.957031 L 29.644531 22.730469 L 29.578125 22.625 L 29.507812 22.519531 L 29.433594 22.421875 L 29.355469 22.324219 L 29.273438 22.230469 L 29.191406 22.144531 L 29.101562 22.058594 L 29.011719 21.976562 L 28.917969 21.898438 L 28.820312 21.820312 L 28.714844 21.738281 L 28.601562 21.65625 L 28.484375 21.578125 L 28.359375 21.496094 L 28.226562 21.414062 L 28.085938 21.332031 L 27.941406 21.25 L 27.792969 21.167969 L 27.792969 21.753906 L 18.726562 23.492188 L 18.726562 21.839844 L 26.585938 20.566406 L 18.726562 17.09375 L 18.726562 15.457031 Z M 27.878906 19.65625 "/>
</g>
</svg>
